<?xml version="1.0" encoding="UTF-8" standalone="no"?>
<!DOCTYPE svg PUBLIC "-//W3C//DTD SVG 1.1//EN" "http://www.w3.org/Graphics/SVG/1.1/DTD/svg11.dtd">
<svg xmlns="http://www.w3.org/2000/svg" version="1.1" viewBox="0 0 1920 1080">
<path fill="#0e0e0e" d="
  M 0.00 0.00
  L 1920.00 0.00
  L 1920.00 1080.00
  L 0.00 1080.00
  L 0.00 0.00
  Z
  M 1073.18 303.54
  C 1059.88 261.45 1022.97 229.57 979.52 222.98
  A 2.97 2.95 -85.8 0 1 977.01 220.06
  L 976.99 194.75
  A 0.75 0.75 0.0 0 0 976.24 194.00
  L 945.66 194.00
  A 1.66 1.65 -89.8 0 0 944.01 195.65
  L 943.99 221.97
  A 0.71 0.70 84.6 0 1 943.42 222.67
  Q 896.98 231.26 868.38 265.82
  C 855.68 281.17 848.35 298.98 844.05 318.53
  Q 843.53 320.89 842.75 323.46
  A 0.78 0.77 8.7 0 1 842.01 324.00
  L 806.75 324.00
  A 0.75 0.75 0.0 0 0 806.00 324.75
  L 806.00 356.37
  A 0.63 0.63 0.0 0 0 806.63 357.00
  L 821.63 357.00
  A 1.38 1.37 90.0 0 1 823.00 358.38
  L 823.00 383.97
  A 1.03 1.03 0.0 0 0 824.03 385.00
  L 1097.16 385.00
  A 1.59 1.59 0.0 0 0 1098.75 383.41
  L 1098.75 357.65
  A 0.66 0.65 -0.0 0 1 1099.41 357.00
  L 1114.38 357.00
  A 0.63 0.62 90.0 0 0 1115.00 356.37
  L 1114.99 324.81
  A 0.80 0.80 0.0 0 0 1114.19 324.01
  L 1079.96 324.00
  A 1.00 0.99 72.0 0 1 1079.15 323.58
  C 1077.73 321.65 1078.00 319.00 1077.49 317.34
  Q 1075.36 310.41 1073.18 303.54
  Z
  M 832.46 540.22
  C 875.15 515.88 917.83 491.48 960.43 467.02
  A 0.74 0.72 -44.3 0 1 961.16 467.02
  Q 1027.60 505.01 1093.96 543.02
  C 1098.49 545.61 1102.91 545.41 1107.87 544.81
  A 1.28 1.28 0.0 0 0 1109.00 543.54
  L 1109.00 451.62
  A 0.63 0.62 -0.0 0 1 1109.63 451.00
  L 1124.23 451.01
  A 1.49 1.49 0.0 0 0 1125.72 449.52
  L 1125.76 418.76
  A 0.75 0.75 0.0 0 0 1125.01 418.00
  L 796.63 418.00
  A 0.63 0.62 0.0 0 0 796.00 418.62
  L 796.00 450.38
  A 0.62 0.62 0.0 0 0 796.62 451.00
  L 811.25 451.00
  A 1.00 1.00 0.0 0 1 812.25 452.00
  L 812.25 543.47
  A 1.50 1.50 0.0 0 0 813.74 544.97
  Q 817.07 545.01 820.50 545.00
  C 825.46 544.99 828.06 542.73 832.46 540.22
  Z
  M 894.09 543.37
  A 0.87 0.87 0.0 0 0 894.52 545.00
  L 1027.08 545.00
  A 0.87 0.87 0.0 0 0 1027.51 543.37
  L 961.23 505.44
  A 0.87 0.87 0.0 0 0 960.37 505.44
  L 894.09 543.37
  Z
  M 812.51 579.25
  A 1.00 1.00 0.0 0 0 811.51 578.25
  L 679.75 578.25
  A 1.00 1.00 0.0 0 0 678.75 579.25
  L 678.75 758.75
  A 1.00 1.00 0.0 0 0 679.75 759.75
  L 811.51 759.75
  A 1.00 1.00 0.0 0 0 812.51 758.75
  L 812.51 579.25
  Z
  M 878.50 579.17
  A 0.92 0.92 0.0 0 0 877.58 578.25
  L 846.66 578.25
  A 0.92 0.92 0.0 0 0 845.74 579.17
  L 845.74 676.07
  A 0.92 0.92 0.0 0 0 846.66 676.99
  L 877.58 676.99
  A 0.92 0.92 0.0 0 0 878.50 676.07
  L 878.50 579.17
  Z
  M 943.49 579.24
  A 0.77 0.77 0.0 0 0 942.72 578.47
  L 912.52 578.47
  A 0.77 0.77 0.0 0 0 911.75 579.24
  L 911.75 676.00
  A 0.77 0.77 0.0 0 0 912.52 676.77
  L 942.72 676.77
  A 0.77 0.77 0.0 0 0 943.49 676.00
  L 943.49 579.24
  Z
  M 1010.26 579.54
  A 1.29 1.29 0.0 0 0 1008.97 578.25
  L 978.79 578.25
  A 1.29 1.29 0.0 0 0 977.50 579.54
  L 977.50 675.70
  A 1.29 1.29 0.0 0 0 978.79 676.99
  L 1008.97 676.99
  A 1.29 1.29 0.0 0 0 1010.26 675.70
  L 1010.26 579.54
  Z
  M 1075.76 579.67
  A 1.42 1.42 0.0 0 0 1074.34 578.25
  L 1044.42 578.25
  A 1.42 1.42 0.0 0 0 1043.00 579.67
  L 1043.00 675.57
  A 1.42 1.42 0.0 0 0 1044.42 676.99
  L 1074.34 676.99
  A 1.42 1.42 0.0 0 0 1075.76 675.57
  L 1075.76 579.67
  Z
  M 1241.50 579.73
  A 1.23 1.23 0.0 0 0 1240.27 578.50
  L 1110.49 578.50
  A 1.23 1.23 0.0 0 0 1109.26 579.73
  L 1109.26 758.27
  A 1.23 1.23 0.0 0 0 1110.49 759.50
  L 1240.27 759.50
  A 1.23 1.23 0.0 0 0 1241.50 758.27
  L 1241.50 579.73
  Z
  M 1075.76 711.17
  A 0.66 0.66 0.0 0 0 1075.10 710.51
  L 846.66 710.51
  A 0.66 0.66 0.0 0 0 846.00 711.17
  L 846.00 759.09
  A 0.66 0.66 0.0 0 0 846.66 759.75
  L 1075.10 759.75
  A 0.66 0.66 0.0 0 0 1075.76 759.09
  L 1075.76 711.17
  Z"
/>
</svg>
