<?xml version="1.0" standalone="no"?><!DOCTYPE svg PUBLIC "-//W3C//DTD SVG 1.1//EN" "http://www.w3.org/Graphics/SVG/1.1/DTD/svg11.dtd"><svg t="1689664892823" class="icon" viewBox="0 0 1024 1024" version="1.1" xmlns="http://www.w3.org/2000/svg" p-id="2002" id="mx_n_1689664892823" xmlns:xlink="http://www.w3.org/1999/xlink" width="200" height="200"><path d="M512 512m-341.33333333 0a341.33333333 341.33333333 0 1 0 682.66666666 0 341.33333333 341.33333333 0 1 0-682.66666666 0Z" fill="#ffcc00" p-id="2003"></path><path d="M512 5.33333333C232.64 5.33333333 5.33333333 232.64 5.33333333 512s227.30666667 506.66666667 506.66666667 506.66666667c279.46666667 0 506.66666667-227.30666667 506.66666667-506.66666667S791.36 5.33333333 512 5.33333333z m0 961.06666667C261.44 966.4 57.6 762.56 57.6 512S261.44 57.6 512 57.6s454.4 203.84 454.4 454.4-203.94666667 454.4-454.4 454.4z" fill="#ffcc00" p-id="2004"></path></svg>