<?xml version="1.0" encoding="UTF-8" standalone="no"?>
<!DOCTYPE svg PUBLIC "-//W3C//DTD SVG 1.1//EN" "http://www.w3.org/Graphics/SVG/1.1/DTD/svg11.dtd">
<svg xmlns="http://www.w3.org/2000/svg" version="1.1" viewBox="0 0 591 591">
<g stroke-width="2.00" fill="none" stroke-linecap="butt">
<path stroke="#cfc6a2" vector-effect="non-scaling-stroke" d="
  M 218.76 202.69
  C 218.76 207.98 222.53 215.48 228.56 215.49
  Q 295.72 215.52 362.88 215.49
  C 370.23 215.48 375.01 208.73 375.01 201.84
  Q 374.98 138.17 375.01 74.52
  Q 375.01 69.44 373.71 66.74
  C 370.33 59.78 365.18 59.28 357.32 59.21
  Q 295.64 58.72 233.98 59.29
  C 224.94 59.37 218.77 62.18 218.77 72.25
  Q 218.76 137.47 218.76 202.69"
/>
<path stroke="#cfc6a2" vector-effect="non-scaling-stroke" d="
  M 158.77 299.93
  A 0.77 0.76 -86.6 0 1 159.53 299.25
  L 284.24 299.25
  A 0.49 0.49 0.0 0 1 284.73 299.74
  L 284.80 331.59
  A 1.52 1.51 -0.2 0 0 286.33 333.10
  L 308.42 332.92
  A 0.59 0.58 -0.5 0 0 309.00 332.34
  L 309.01 300.04
  A 0.84 0.83 90.0 0 1 309.84 299.20
  L 434.05 299.27
  A 0.53 0.52 90.0 0 1 434.57 299.80
  L 434.21 332.46
  A 0.50 0.50 0.0 0 0 434.71 332.97
  L 456.76 333.06
  A 1.00 1.00 0.0 0 0 457.76 332.06
  Q 457.67 311.84 457.89 291.11
  C 457.95 285.27 458.12 280.90 453.73 277.82
  C 448.21 273.94 443.33 275.04 437.02 275.03
  Q 373.42 274.91 309.69 275.09
  A 0.67 0.66 0.0 0 1 309.02 274.43
  L 308.99 241.49
  A 0.50 0.49 0.0 0 0 308.49 241.00
  L 285.38 241.00
  A 0.62 0.61 90.0 0 0 284.77 241.62
  L 284.71 274.00
  A 0.71 0.71 0.0 0 1 284.18 274.69
  Q 283.22 274.95 281.25 274.96
  Q 216.68 275.13 152.12 274.86
  Q 145.50 274.83 142.68 276.03
  C 133.55 279.92 135.26 289.69 135.25 297.72
  Q 135.24 315.06 135.26 332.28
  A 0.72 0.72 0.0 0 0 135.98 333.00
  L 157.99 333.00
  A 0.54 0.53 -88.9 0 0 158.52 332.48
  Q 159.11 318.21 158.64 304.00
  Q 158.57 301.75 158.77 299.93"
/>
<path stroke="#cfc6a2" vector-effect="non-scaling-stroke" d="
  M 83.96 467.75
  C 83.88 473.78 90.85 481.58 96.50 481.64
  Q 151.18 482.23 194.87 481.73
  C 205.84 481.61 208.75 475.96 208.75 465.43
  Q 208.75 418.98 208.76 372.54
  C 208.76 362.84 203.75 358.46 194.19 358.47
  Q 147.21 358.55 100.22 358.46
  C 93.19 358.45 88.05 361.25 85.25 367.61
  Q 84.00 370.46 84.06 375.62
  Q 84.55 421.68 83.96 467.75"
/>
<path stroke="#cfc6a2" vector-effect="non-scaling-stroke" d="
  M 249.24 481.77
  C 280.98 481.54 312.69 482.21 344.45 481.70
  C 353.58 481.55 359.03 476.79 359.02 467.40
  Q 358.99 419.03 359.00 370.67
  C 359.00 363.03 351.86 358.49 344.90 358.49
  Q 297.49 358.52 250.08 358.48
  Q 244.75 358.47 242.11 359.70
  C 236.75 362.19 234.73 366.61 234.73 372.65
  Q 234.77 419.51 234.74 466.37
  C 234.73 476.13 239.00 481.84 249.24 481.77"
/>
<path stroke="#cfc6a2" vector-effect="non-scaling-stroke" d="
  M 384.66 472.35
  C 386.12 476.48 390.78 481.52 395.50 481.59
  Q 443.48 482.33 491.44 481.74
  C 499.89 481.63 507.02 480.60 507.01 470.77
  Q 506.99 421.38 507.00 372.00
  C 507.00 361.39 502.81 358.50 492.26 358.50
  Q 444.98 358.49 397.71 358.51
  C 390.95 358.52 385.52 363.12 384.09 369.50
  Q 383.76 370.97 383.75 380.02
  Q 383.74 421.97 383.76 463.93
  Q 383.76 469.80 384.66 472.35"
/>
</g>
<path fill="#ffffff" d="
  M 288.81 0.00
  L 302.56 0.00
  C 461.40 4.68 586.80 130.89 591.00 289.31
  L 591.00 301.81
  C 586.61 461.01 461.11 585.95 302.44 591.00
  L 288.69 591.00
  C 129.12 586.43 5.14 460.53 0.00 301.94
  L 0.00 289.19
  Q 3.73 177.89 76.79 96.79
  C 130.50 37.18 207.58 2.27 288.81 0.00
  Z
  M 218.76 202.69
  C 218.76 207.98 222.53 215.48 228.56 215.49
  Q 295.72 215.52 362.88 215.49
  C 370.23 215.48 375.01 208.73 375.01 201.84
  Q 374.98 138.17 375.01 74.52
  Q 375.01 69.44 373.71 66.74
  C 370.33 59.78 365.18 59.28 357.32 59.21
  Q 295.64 58.72 233.98 59.29
  C 224.94 59.37 218.77 62.18 218.77 72.25
  Q 218.76 137.47 218.76 202.69
  Z
  M 158.77 299.93
  A 0.77 0.76 -86.6 0 1 159.53 299.25
  L 284.24 299.25
  A 0.49 0.49 0.0 0 1 284.73 299.74
  L 284.80 331.59
  A 1.52 1.51 -0.2 0 0 286.33 333.10
  L 308.42 332.92
  A 0.59 0.58 -0.5 0 0 309.00 332.34
  L 309.01 300.04
  A 0.84 0.83 90.0 0 1 309.84 299.20
  L 434.05 299.27
  A 0.53 0.52 90.0 0 1 434.57 299.80
  L 434.21 332.46
  A 0.50 0.50 0.0 0 0 434.71 332.97
  L 456.76 333.06
  A 1.00 1.00 0.0 0 0 457.76 332.06
  Q 457.67 311.84 457.89 291.11
  C 457.95 285.27 458.12 280.90 453.73 277.82
  C 448.21 273.94 443.33 275.04 437.02 275.03
  Q 373.42 274.91 309.69 275.09
  A 0.67 0.66 0.0 0 1 309.02 274.43
  L 308.99 241.49
  A 0.50 0.49 0.0 0 0 308.49 241.00
  L 285.38 241.00
  A 0.62 0.61 90.0 0 0 284.77 241.62
  L 284.71 274.00
  A 0.71 0.71 0.0 0 1 284.18 274.69
  Q 283.22 274.95 281.25 274.96
  Q 216.68 275.13 152.12 274.86
  Q 145.50 274.83 142.68 276.03
  C 133.55 279.92 135.26 289.69 135.25 297.72
  Q 135.24 315.06 135.26 332.28
  A 0.72 0.72 0.0 0 0 135.98 333.00
  L 157.99 333.00
  A 0.54 0.53 -88.9 0 0 158.52 332.48
  Q 159.11 318.21 158.64 304.00
  Q 158.57 301.75 158.77 299.93
  Z
  M 83.96 467.75
  C 83.88 473.78 90.85 481.58 96.50 481.64
  Q 151.18 482.23 194.87 481.73
  C 205.84 481.61 208.75 475.96 208.75 465.43
  Q 208.75 418.98 208.76 372.54
  C 208.76 362.84 203.75 358.46 194.19 358.47
  Q 147.21 358.55 100.22 358.46
  C 93.19 358.45 88.05 361.25 85.25 367.61
  Q 84.00 370.46 84.06 375.62
  Q 84.55 421.68 83.96 467.75
  Z
  M 249.24 481.77
  C 280.98 481.54 312.69 482.21 344.45 481.70
  C 353.58 481.55 359.03 476.79 359.02 467.40
  Q 358.99 419.03 359.00 370.67
  C 359.00 363.03 351.86 358.49 344.90 358.49
  Q 297.49 358.52 250.08 358.48
  Q 244.75 358.47 242.11 359.70
  C 236.75 362.19 234.73 366.61 234.73 372.65
  Q 234.77 419.51 234.74 466.37
  C 234.73 476.13 239.00 481.84 249.24 481.77
  Z
  M 384.66 472.35
  C 386.12 476.48 390.78 481.52 395.50 481.59
  Q 443.48 482.33 491.44 481.74
  C 499.89 481.63 507.02 480.60 507.01 470.77
  Q 506.99 421.38 507.00 372.00
  C 507.00 361.39 502.81 358.50 492.26 358.50
  Q 444.98 358.49 397.71 358.51
  C 390.95 358.52 385.52 363.12 384.09 369.50
  Q 383.76 370.97 383.75 380.02
  Q 383.74 421.97 383.76 463.93
  Q 383.76 469.80 384.66 472.35
  Z"
/>
<path fill="#9f8d44" d="
  M 228.56 215.49
  C 222.53 215.48 218.76 207.98 218.76 202.69
  Q 218.76 137.47 218.77 72.25
  C 218.77 62.18 224.94 59.37 233.98 59.29
  Q 295.64 58.72 357.32 59.21
  C 365.18 59.28 370.33 59.78 373.71 66.74
  Q 375.01 69.44 375.01 74.52
  Q 374.98 138.17 375.01 201.84
  C 375.01 208.73 370.23 215.48 362.88 215.49
  Q 295.72 215.52 228.56 215.49
  Z"
/>
<path fill="#9f8d44" d="
  M 158.77 299.93
  Q 158.57 301.75 158.64 304.00
  Q 159.11 318.21 158.52 332.48
  A 0.54 0.53 -88.9 0 1 157.99 333.00
  L 135.98 333.00
  A 0.72 0.72 0.0 0 1 135.26 332.28
  Q 135.24 315.06 135.25 297.72
  C 135.26 289.69 133.55 279.92 142.68 276.03
  Q 145.50 274.83 152.12 274.86
  Q 216.68 275.13 281.25 274.96
  Q 283.22 274.95 284.18 274.69
  A 0.71 0.71 0.0 0 0 284.71 274.00
  L 284.77 241.62
  A 0.62 0.61 90.0 0 1 285.38 241.00
  L 308.49 241.00
  A 0.50 0.49 0.0 0 1 308.99 241.49
  L 309.02 274.43
  A 0.67 0.66 0.0 0 0 309.69 275.09
  Q 373.42 274.91 437.02 275.03
  C 443.33 275.04 448.21 273.94 453.73 277.82
  C 458.12 280.90 457.95 285.27 457.89 291.11
  Q 457.67 311.84 457.76 332.06
  A 1.00 1.00 0.0 0 1 456.76 333.06
  L 434.71 332.97
  A 0.50 0.50 0.0 0 1 434.21 332.46
  L 434.57 299.80
  A 0.53 0.52 90.0 0 0 434.05 299.27
  L 309.84 299.20
  A 0.84 0.83 90.0 0 0 309.01 300.04
  L 309.00 332.34
  A 0.59 0.58 -0.5 0 1 308.42 332.92
  L 286.33 333.10
  A 1.52 1.51 -0.2 0 1 284.80 331.59
  L 284.73 299.74
  A 0.49 0.49 0.0 0 0 284.24 299.25
  L 159.53 299.25
  A 0.77 0.76 -86.6 0 0 158.77 299.93
  Z"
/>
<path fill="#9f8d44" d="
  M 96.50 481.64
  C 90.85 481.58 83.88 473.78 83.96 467.75
  Q 84.55 421.68 84.06 375.62
  Q 84.00 370.46 85.25 367.61
  C 88.05 361.25 93.19 358.45 100.22 358.46
  Q 147.21 358.55 194.19 358.47
  C 203.75 358.46 208.76 362.84 208.76 372.54
  Q 208.75 418.98 208.75 465.43
  C 208.75 475.96 205.84 481.61 194.87 481.73
  Q 151.18 482.23 96.50 481.64
  Z"
/>
<path fill="#9f8d44" d="
  M 344.45 481.70
  C 312.69 482.21 280.98 481.54 249.24 481.77
  C 239.00 481.84 234.73 476.13 234.74 466.37
  Q 234.77 419.51 234.73 372.65
  C 234.73 366.61 236.75 362.19 242.11 359.70
  Q 244.75 358.47 250.08 358.48
  Q 297.49 358.52 344.90 358.49
  C 351.86 358.49 359.00 363.03 359.00 370.67
  Q 358.99 419.03 359.02 467.40
  C 359.03 476.79 353.58 481.55 344.45 481.70
  Z"
/>
<path fill="#9f8d44" d="
  M 395.50 481.59
  C 390.78 481.52 386.12 476.48 384.66 472.35
  Q 383.76 469.80 383.76 463.93
  Q 383.74 421.97 383.75 380.02
  Q 383.76 370.97 384.09 369.50
  C 385.52 363.12 390.95 358.52 397.71 358.51
  Q 444.98 358.49 492.26 358.50
  C 502.81 358.50 507.00 361.39 507.00 372.00
  Q 506.99 421.38 507.01 470.77
  C 507.02 480.60 499.89 481.63 491.44 481.74
  Q 443.48 482.33 395.50 481.59
  Z"
/>
</svg>
