<?xml version="1.0" encoding="UTF-8" standalone="no"?>
<!DOCTYPE svg PUBLIC "-//W3C//DTD SVG 1.1//EN" "http://www.w3.org/Graphics/SVG/1.1/DTD/svg11.dtd">
<svg xmlns="http://www.w3.org/2000/svg" version="1.1" viewBox="0 0 591 591">
<g stroke-width="2.00" fill="none" stroke-linecap="butt">
<path stroke="#cfc6a2" vector-effect="non-scaling-stroke" d="
  M 222.40 142.42
  C 208.83 185.57 235.98 230.60 279.80 240.53
  C 323.02 250.32 364.95 219.04 371.58 176.42
  C 377.35 139.31 354.25 103.02 318.92 91.62
  C 277.92 78.38 235.15 101.88 222.40 142.42"
/>
<path stroke="#cfc6a2" vector-effect="non-scaling-stroke" d="
  M 213.73 237.26
  C 232.53 188.80 178.35 141.72 132.93 167.17
  C 100.77 185.18 92.59 227.83 117.31 255.83
  C 146.76 289.20 198.01 277.80 213.73 237.26"
/>
<path stroke="#cfc6a2" vector-effect="non-scaling-stroke" d="
  M 488.50 217.78
  A 57.35 57.35 0.0 0 0 431.15 160.43
  A 57.35 57.35 0.0 0 0 373.80 217.78
  A 57.35 57.35 0.0 0 0 431.15 275.13
  A 57.35 57.35 0.0 0 0 488.50 217.78"
/>
<path stroke="#cfc6a2" vector-effect="non-scaling-stroke" d="
  M 397.37 310.16
  C 391.77 283.36 369.33 262.40 341.97 259.44
  Q 338.79 259.10 321.99 259.03
  Q 294.65 258.91 267.32 259.05
  C 252.26 259.13 241.53 259.09 230.29 264.50
  Q 200.53 278.84 193.74 310.92
  Q 192.48 316.85 192.49 326.20
  Q 192.51 387.96 192.50 449.73
  C 192.49 459.28 195.69 465.99 206.32 466.00
  Q 294.59 466.00 382.88 466.00
  C 394.35 466.00 398.72 461.56 398.73 449.98
  Q 398.78 390.02 398.73 330.06
  Q 398.72 316.65 397.37 310.16"
/>
<path stroke="#cfc6a2" vector-effect="non-scaling-stroke" d="
  M 73.99 428.05
  C 74.42 445.00 85.07 459.83 101.49 464.61
  Q 106.27 466.00 117.15 466.01
  Q 142.35 466.03 167.57 465.95
  A 0.41 0.41 0.0 0 0 167.97 465.46
  Q 166.28 457.30 166.27 454.44
  Q 166.21 391.91 166.27 329.38
  C 166.29 315.71 167.32 305.40 171.14 293.55
  A 0.94 0.93 8.4 0 0 170.23 292.33
  C 155.74 292.55 138.17 291.15 125.17 293.81
  C 96.45 299.67 74.61 325.34 73.75 354.75
  Q 72.90 384.16 73.99 428.05"
/>
<path stroke="#cfc6a2" vector-effect="non-scaling-stroke" d="
  M 516.98 348.26
  C 513.01 322.38 494.37 300.68 468.83 294.26
  Q 462.74 292.73 452.02 292.58
  Q 436.25 292.37 420.43 292.49
  A 0.42 0.42 0.0 0 0 420.03 293.04
  Q 425.33 309.70 425.32 327.25
  Q 425.31 388.35 425.01 449.43
  Q 424.97 457.68 423.16 465.59
  A 0.34 0.33 6.7 0 0 423.49 466.00
  Q 450.24 465.99 476.78 466.01
  C 500.35 466.03 516.37 450.77 517.38 427.23
  C 518.09 410.87 517.76 393.51 517.66 366.25
  Q 517.60 352.31 516.98 348.26"
/>
</g>
<path fill="#ffffff" d="
  M 288.81 0.00
  L 302.56 0.00
  C 461.40 4.68 586.80 130.89 591.00 289.31
  L 591.00 301.81
  C 586.62 460.80 461.13 586.12 302.44 591.00
  L 288.69 591.00
  C 129.72 586.43 4.56 460.49 0.00 301.94
  L 0.00 289.19
  Q 3.73 177.89 76.79 96.79
  C 130.50 37.18 207.58 2.27 288.81 0.00
  Z
  M 222.40 142.42
  C 208.83 185.57 235.98 230.60 279.80 240.53
  C 323.02 250.32 364.95 219.04 371.58 176.42
  C 377.35 139.31 354.25 103.02 318.92 91.62
  C 277.92 78.38 235.15 101.88 222.40 142.42
  Z
  M 213.73 237.26
  C 232.53 188.80 178.35 141.72 132.93 167.17
  C 100.77 185.18 92.59 227.83 117.31 255.83
  C 146.76 289.20 198.01 277.80 213.73 237.26
  Z
  M 488.50 217.78
  A 57.35 57.35 0.0 0 0 431.15 160.43
  A 57.35 57.35 0.0 0 0 373.80 217.78
  A 57.35 57.35 0.0 0 0 431.15 275.13
  A 57.35 57.35 0.0 0 0 488.50 217.78
  Z
  M 397.37 310.16
  C 391.77 283.36 369.33 262.40 341.97 259.44
  Q 338.79 259.10 321.99 259.03
  Q 294.65 258.91 267.32 259.05
  C 252.26 259.13 241.53 259.09 230.29 264.50
  Q 200.53 278.84 193.74 310.92
  Q 192.48 316.85 192.49 326.20
  Q 192.51 387.96 192.50 449.73
  C 192.49 459.28 195.69 465.99 206.32 466.00
  Q 294.59 466.00 382.88 466.00
  C 394.35 466.00 398.72 461.56 398.73 449.98
  Q 398.78 390.02 398.73 330.06
  Q 398.72 316.65 397.37 310.16
  Z
  M 73.99 428.05
  C 74.42 445.00 85.07 459.83 101.49 464.61
  Q 106.27 466.00 117.15 466.01
  Q 142.35 466.03 167.57 465.95
  A 0.41 0.41 0.0 0 0 167.97 465.46
  Q 166.28 457.30 166.27 454.44
  Q 166.21 391.91 166.27 329.38
  C 166.29 315.71 167.32 305.40 171.14 293.55
  A 0.94 0.93 8.4 0 0 170.23 292.33
  C 155.74 292.55 138.17 291.15 125.17 293.81
  C 96.45 299.67 74.61 325.34 73.75 354.75
  Q 72.90 384.16 73.99 428.05
  Z
  M 516.98 348.26
  C 513.01 322.38 494.37 300.68 468.83 294.26
  Q 462.74 292.73 452.02 292.58
  Q 436.25 292.37 420.43 292.49
  A 0.42 0.42 0.0 0 0 420.03 293.04
  Q 425.33 309.70 425.32 327.25
  Q 425.31 388.35 425.01 449.43
  Q 424.97 457.68 423.16 465.59
  A 0.34 0.33 6.7 0 0 423.49 466.00
  Q 450.24 465.99 476.78 466.01
  C 500.35 466.03 516.37 450.77 517.38 427.23
  C 518.09 410.87 517.76 393.51 517.66 366.25
  Q 517.60 352.31 516.98 348.26
  Z"
/>
<path fill="#9f8d44" d="
  M 279.80 240.53
  C 235.98 230.60 208.83 185.57 222.40 142.42
  C 235.15 101.88 277.92 78.38 318.92 91.62
  C 354.25 103.02 377.35 139.31 371.58 176.42
  C 364.95 219.04 323.02 250.32 279.80 240.53
  Z"
/>
<path fill="#9f8d44" d="
  M 132.93 167.17
  C 178.35 141.72 232.53 188.80 213.73 237.26
  C 198.01 277.80 146.76 289.20 117.31 255.83
  C 92.59 227.83 100.77 185.18 132.93 167.17
  Z"
/>
<circle fill="#9f8d44" cx="431.15" cy="217.78" r="57.35"/>
<path fill="#9f8d44" d="
  M 341.97 259.44
  C 369.33 262.40 391.77 283.36 397.37 310.16
  Q 398.72 316.65 398.73 330.06
  Q 398.78 390.02 398.73 449.98
  C 398.72 461.56 394.35 466.00 382.88 466.00
  Q 294.59 466.00 206.32 466.00
  C 195.69 465.99 192.49 459.28 192.50 449.73
  Q 192.51 387.96 192.49 326.20
  Q 192.48 316.85 193.74 310.92
  Q 200.53 278.84 230.29 264.50
  C 241.53 259.09 252.26 259.13 267.32 259.05
  Q 294.65 258.91 321.99 259.03
  Q 338.79 259.10 341.97 259.44
  Z"
/>
<path fill="#9f8d44" d="
  M 101.49 464.61
  C 85.07 459.83 74.42 445.00 73.99 428.05
  Q 72.90 384.16 73.75 354.75
  C 74.61 325.34 96.45 299.67 125.17 293.81
  C 138.17 291.15 155.74 292.55 170.23 292.33
  A 0.94 0.93 8.4 0 1 171.14 293.55
  C 167.32 305.40 166.29 315.71 166.27 329.38
  Q 166.21 391.91 166.27 454.44
  Q 166.28 457.30 167.97 465.46
  A 0.41 0.41 0.0 0 1 167.57 465.95
  Q 142.35 466.03 117.15 466.01
  Q 106.27 466.00 101.49 464.61
  Z"
/>
<path fill="#9f8d44" d="
  M 468.83 294.26
  C 494.37 300.68 513.01 322.38 516.98 348.26
  Q 517.60 352.31 517.66 366.25
  C 517.76 393.51 518.09 410.87 517.38 427.23
  C 516.37 450.77 500.35 466.03 476.78 466.01
  Q 450.24 465.99 423.49 466.00
  A 0.34 0.33 6.7 0 1 423.16 465.59
  Q 424.97 457.68 425.01 449.43
  Q 425.31 388.35 425.32 327.25
  Q 425.33 309.70 420.03 293.04
  A 0.42 0.42 0.0 0 1 420.43 292.49
  Q 436.25 292.37 452.02 292.58
  Q 462.74 292.73 468.83 294.26
  Z"
/>
</svg>
