<?xml version="1.0" encoding="UTF-8" standalone="no"?>
<!DOCTYPE svg PUBLIC "-//W3C//DTD SVG 1.1//EN" "http://www.w3.org/Graphics/SVG/1.1/DTD/svg11.dtd">
<svg xmlns="http://www.w3.org/2000/svg" version="1.1" viewBox="0 0 591 591">
<g stroke-width="2.00" fill="none" stroke-linecap="butt">
<path stroke="#cfc6a2" vector-effect="non-scaling-stroke" d="
  M 205.72 147.44
  L 179.49 147.09
  A 0.49 0.48 0.6 0 0 178.99 147.57
  L 179.02 170.04
  A 1.60 1.59 0.6 0 0 180.59 171.63
  L 190.32 171.80
  A 1.49 1.49 0.0 0 1 191.78 173.31
  L 191.55 191.90
  A 0.60 0.59 0.5 0 0 192.15 192.50
  L 399.74 192.50
  A 0.55 0.55 0.0 0 0 400.29 191.94
  L 399.94 172.79
  A 1.02 1.02 0.0 0 1 400.96 171.75
  L 412.13 171.75
  A 0.63 0.62 90.0 0 0 412.75 171.12
  L 412.75 148.54
  A 1.43 1.43 0.0 0 0 411.30 147.11
  L 386.20 147.44
  A 1.49 1.49 0.0 0 1 384.72 146.20
  C 378.03 106.97 348.67 77.66 309.46 70.83
  A 1.75 1.74 -84.4 0 1 308.02 69.07
  L 308.43 49.77
  A 0.52 0.52 0.0 0 0 307.90 49.24
  L 284.00 49.35
  A 0.70 0.70 0.0 0 0 283.30 50.06
  L 283.61 69.01
  A 1.53 1.53 0.0 0 1 282.42 70.54
  Q 276.93 71.80 271.37 73.37
  C 240.44 82.11 216.31 107.01 208.70 138.32
  Q 207.64 142.70 206.33 146.99
  A 0.64 0.64 0.0 0 1 205.72 147.44"
/>
<path stroke="#cfc6a2" vector-effect="non-scaling-stroke" d="
  M 183.44 243.65
  Q 183.56 277.70 183.58 311.75
  Q 183.58 313.19 185.54 313.49
  C 191.37 314.38 193.16 313.13 198.70 309.99
  Q 247.00 282.57 295.34 254.89
  A 0.87 0.86 -45.3 0 1 296.20 254.88
  Q 343.92 282.05 391.65 309.24
  C 397.33 312.48 400.96 314.69 406.61 313.70
  A 2.01 2.01 0.0 0 0 408.27 311.72
  L 408.17 243.74
  A 0.67 0.67 0.0 0 1 408.82 243.07
  L 420.35 242.76
  A 0.67 0.67 0.0 0 0 421.00 242.09
  L 421.00 219.73
  A 1.73 1.72 0.2 0 0 419.28 218.01
  C 336.60 217.90 254.54 217.69 172.10 218.06
  A 1.35 1.35 0.0 0 0 170.76 219.43
  L 171.08 241.90
  A 0.90 0.90 0.0 0 0 171.96 242.79
  L 182.90 243.10
  A 0.55 0.55 0.0 0 1 183.44 243.65"
/>
<path stroke="#cfc6a2" vector-effect="non-scaling-stroke" d="
  M 245.50 312.54
  A 0.60 0.60 0.0 0 0 245.80 313.67
  L 345.90 313.67
  A 0.60 0.60 0.0 0 0 346.20 312.54
  L 296.15 284.17
  A 0.60 0.60 0.0 0 0 295.55 284.17
  L 245.50 312.54"
/>
<path stroke="#cfc6a2" vector-effect="non-scaling-stroke" d="
  M 182.65 339.29
  C 149.73 338.36 116.31 338.89 82.88 339.07
  A 0.62 0.61 1.0 0 0 82.26 339.66
  C 81.83 350.89 82.12 365.92 82.08 373.49
  Q 81.85 424.39 82.11 475.54
  A 0.51 0.51 0.0 0 0 82.62 476.05
  L 182.31 475.67
  A 0.73 0.73 0.0 0 0 183.04 474.94
  L 183.04 339.70
  A 0.41 0.40 -89.3 0 0 182.65 339.29"
/>
<path stroke="#cfc6a2" vector-effect="non-scaling-stroke" d="
  M 508.99 339.97
  A 0.98 0.98 0.0 0 0 508.01 338.99
  L 409.67 338.99
  A 0.98 0.98 0.0 0 0 408.69 339.97
  L 408.69 474.85
  A 0.98 0.98 0.0 0 0 409.67 475.83
  L 508.01 475.83
  A 0.98 0.98 0.0 0 0 508.99 474.85
  L 508.99 339.97"
/>
<path stroke="#cfc6a2" vector-effect="non-scaling-stroke" d="
  M 233.0970 340.0785
  A 1.07 1.07 0.0 0 0 232.0251 339.0104
  L 209.5051 339.0497
  A 1.07 1.07 0.0 0 0 208.4370 340.1216
  L 208.5630 412.3415
  A 1.07 1.07 0.0 0 0 209.6349 413.4096
  L 232.1549 413.3703
  A 1.07 1.07 0.0 0 0 233.2230 412.2984
  L 233.0970 340.0785"
/>
<path stroke="#cfc6a2" vector-effect="non-scaling-stroke" d="
  M 283.01 339.84
  A 0.81 0.81 0.0 0 0 282.20 339.03
  L 259.06 339.03
  A 0.81 0.81 0.0 0 0 258.25 339.84
  L 258.25 412.62
  A 0.81 0.81 0.0 0 0 259.06 413.43
  L 282.20 413.43
  A 0.81 0.81 0.0 0 0 283.01 412.62
  L 283.01 339.84"
/>
<path stroke="#cfc6a2" vector-effect="non-scaling-stroke" d="
  M 333.52 340.29
  A 1.23 1.23 0.0 0 0 332.29 339.06
  L 309.79 339.06
  A 1.23 1.23 0.0 0 0 308.56 340.29
  L 308.56 412.23
  A 1.23 1.23 0.0 0 0 309.79 413.46
  L 332.29 413.46
  A 1.23 1.23 0.0 0 0 333.52 412.23
  L 333.52 340.29"
/>
<path stroke="#cfc6a2" vector-effect="non-scaling-stroke" d="
  M 383.25 340.00
  A 0.96 0.96 0.0 0 0 382.29 339.04
  L 359.45 339.04
  A 0.96 0.96 0.0 0 0 358.49 340.00
  L 358.49 412.40
  A 0.96 0.96 0.0 0 0 359.45 413.36
  L 382.29 413.36
  A 0.96 0.96 0.0 0 0 383.25 412.40
  L 383.25 340.00"
/>
<path stroke="#cfc6a2" vector-effect="non-scaling-stroke" d="
  M 383.28 439.26
  A 0.26 0.26 0.0 0 0 383.02 439.00
  L 208.76 439.00
  A 0.26 0.26 0.0 0 0 208.50 439.26
  L 208.50 475.48
  A 0.26 0.26 0.0 0 0 208.76 475.74
  L 383.02 475.74
  A 0.26 0.26 0.0 0 0 383.28 475.48
  L 383.28 439.26"
/>
</g>
<path fill="#ffffff" d="
  M 288.81 0.00
  L 302.56 0.00
  C 461.40 4.68 586.80 130.89 591.00 289.31
  L 591.00 301.81
  C 586.62 460.80 461.13 586.12 302.44 591.00
  L 288.69 591.00
  C 129.12 586.43 5.14 460.53 0.00 301.94
  L 0.00 289.19
  Q 3.73 177.89 76.79 96.79
  C 130.50 37.18 207.58 2.27 288.81 0.00
  Z
  M 205.72 147.44
  L 179.49 147.09
  A 0.49 0.48 0.6 0 0 178.99 147.57
  L 179.02 170.04
  A 1.60 1.59 0.6 0 0 180.59 171.63
  L 190.32 171.80
  A 1.49 1.49 0.0 0 1 191.78 173.31
  L 191.55 191.90
  A 0.60 0.59 0.5 0 0 192.15 192.50
  L 399.74 192.50
  A 0.55 0.55 0.0 0 0 400.29 191.94
  L 399.94 172.79
  A 1.02 1.02 0.0 0 1 400.96 171.75
  L 412.13 171.75
  A 0.63 0.62 90.0 0 0 412.75 171.12
  L 412.75 148.54
  A 1.43 1.43 0.0 0 0 411.30 147.11
  L 386.20 147.44
  A 1.49 1.49 0.0 0 1 384.72 146.20
  C 378.03 106.97 348.67 77.66 309.46 70.83
  A 1.75 1.74 -84.4 0 1 308.02 69.07
  L 308.43 49.77
  A 0.52 0.52 0.0 0 0 307.90 49.24
  L 284.00 49.35
  A 0.70 0.70 0.0 0 0 283.30 50.06
  L 283.61 69.01
  A 1.53 1.53 0.0 0 1 282.42 70.54
  Q 276.93 71.80 271.37 73.37
  C 240.44 82.11 216.31 107.01 208.70 138.32
  Q 207.64 142.70 206.33 146.99
  A 0.64 0.64 0.0 0 1 205.72 147.44
  Z
  M 183.44 243.65
  Q 183.56 277.70 183.58 311.75
  Q 183.58 313.19 185.54 313.49
  C 191.37 314.38 193.16 313.13 198.70 309.99
  Q 247.00 282.57 295.34 254.89
  A 0.87 0.86 -45.3 0 1 296.20 254.88
  Q 343.92 282.05 391.65 309.24
  C 397.33 312.48 400.96 314.69 406.61 313.70
  A 2.01 2.01 0.0 0 0 408.27 311.72
  L 408.17 243.74
  A 0.67 0.67 0.0 0 1 408.82 243.07
  L 420.35 242.76
  A 0.67 0.67 0.0 0 0 421.00 242.09
  L 421.00 219.73
  A 1.73 1.72 0.2 0 0 419.28 218.01
  C 336.60 217.90 254.54 217.69 172.10 218.06
  A 1.35 1.35 0.0 0 0 170.76 219.43
  L 171.08 241.90
  A 0.90 0.90 0.0 0 0 171.96 242.79
  L 182.90 243.10
  A 0.55 0.55 0.0 0 1 183.44 243.65
  Z
  M 245.50 312.54
  A 0.60 0.60 0.0 0 0 245.80 313.67
  L 345.90 313.67
  A 0.60 0.60 0.0 0 0 346.20 312.54
  L 296.15 284.17
  A 0.60 0.60 0.0 0 0 295.55 284.17
  L 245.50 312.54
  Z
  M 182.65 339.29
  C 149.73 338.36 116.31 338.89 82.88 339.07
  A 0.62 0.61 1.0 0 0 82.26 339.66
  C 81.83 350.89 82.12 365.92 82.08 373.49
  Q 81.85 424.39 82.11 475.54
  A 0.51 0.51 0.0 0 0 82.62 476.05
  L 182.31 475.67
  A 0.73 0.73 0.0 0 0 183.04 474.94
  L 183.04 339.70
  A 0.41 0.40 -89.3 0 0 182.65 339.29
  Z
  M 508.99 339.97
  A 0.98 0.98 0.0 0 0 508.01 338.99
  L 409.67 338.99
  A 0.98 0.98 0.0 0 0 408.69 339.97
  L 408.69 474.85
  A 0.98 0.98 0.0 0 0 409.67 475.83
  L 508.01 475.83
  A 0.98 0.98 0.0 0 0 508.99 474.85
  L 508.99 339.97
  Z
  M 233.0970 340.0785
  A 1.07 1.07 0.0 0 0 232.0251 339.0104
  L 209.5051 339.0497
  A 1.07 1.07 0.0 0 0 208.4370 340.1216
  L 208.5630 412.3415
  A 1.07 1.07 0.0 0 0 209.6349 413.4096
  L 232.1549 413.3703
  A 1.07 1.07 0.0 0 0 233.2230 412.2984
  L 233.0970 340.0785
  Z
  M 283.01 339.84
  A 0.81 0.81 0.0 0 0 282.20 339.03
  L 259.06 339.03
  A 0.81 0.81 0.0 0 0 258.25 339.84
  L 258.25 412.62
  A 0.81 0.81 0.0 0 0 259.06 413.43
  L 282.20 413.43
  A 0.81 0.81 0.0 0 0 283.01 412.62
  L 283.01 339.84
  Z
  M 333.52 340.29
  A 1.23 1.23 0.0 0 0 332.29 339.06
  L 309.79 339.06
  A 1.23 1.23 0.0 0 0 308.56 340.29
  L 308.56 412.23
  A 1.23 1.23 0.0 0 0 309.79 413.46
  L 332.29 413.46
  A 1.23 1.23 0.0 0 0 333.52 412.23
  L 333.52 340.29
  Z
  M 383.25 340.00
  A 0.96 0.96 0.0 0 0 382.29 339.04
  L 359.45 339.04
  A 0.96 0.96 0.0 0 0 358.49 340.00
  L 358.49 412.40
  A 0.96 0.96 0.0 0 0 359.45 413.36
  L 382.29 413.36
  A 0.96 0.96 0.0 0 0 383.25 412.40
  L 383.25 340.00
  Z
  M 383.28 439.26
  A 0.26 0.26 0.0 0 0 383.02 439.00
  L 208.76 439.00
  A 0.26 0.26 0.0 0 0 208.50 439.26
  L 208.50 475.48
  A 0.26 0.26 0.0 0 0 208.76 475.74
  L 383.02 475.74
  A 0.26 0.26 0.0 0 0 383.28 475.48
  L 383.28 439.26
  Z"
/>
<path fill="#9f8d44" d="
  M 206.33 146.99
  Q 207.64 142.70 208.70 138.32
  C 216.31 107.01 240.44 82.11 271.37 73.37
  Q 276.93 71.80 282.42 70.54
  A 1.53 1.53 0.0 0 0 283.61 69.01
  L 283.30 50.06
  A 0.70 0.70 0.0 0 1 284.00 49.35
  L 307.90 49.24
  A 0.52 0.52 0.0 0 1 308.43 49.77
  L 308.02 69.07
  A 1.75 1.74 -84.4 0 0 309.46 70.83
  C 348.67 77.66 378.03 106.97 384.72 146.20
  A 1.49 1.49 0.0 0 0 386.20 147.44
  L 411.30 147.11
  A 1.43 1.43 0.0 0 1 412.75 148.54
  L 412.75 171.12
  A 0.63 0.62 -90.0 0 1 412.13 171.75
  L 400.96 171.75
  A 1.02 1.02 0.0 0 0 399.94 172.79
  L 400.29 191.94
  A 0.55 0.55 0.0 0 1 399.74 192.50
  L 192.15 192.50
  A 0.60 0.59 0.5 0 1 191.55 191.90
  L 191.78 173.31
  A 1.49 1.49 0.0 0 0 190.32 171.80
  L 180.59 171.63
  A 1.60 1.59 0.6 0 1 179.02 170.04
  L 178.99 147.57
  A 0.49 0.48 0.6 0 1 179.49 147.09
  L 205.72 147.44
  A 0.64 0.64 0.0 0 0 206.33 146.99
  Z"
/>
<path fill="#9f8d44" d="
  M 182.90 243.10
  L 171.96 242.79
  A 0.90 0.90 0.0 0 1 171.08 241.90
  L 170.76 219.43
  A 1.35 1.35 0.0 0 1 172.10 218.06
  C 254.54 217.69 336.60 217.90 419.28 218.01
  A 1.73 1.72 0.2 0 1 421.00 219.73
  L 421.00 242.09
  A 0.67 0.67 0.0 0 1 420.35 242.76
  L 408.82 243.07
  A 0.67 0.67 0.0 0 0 408.17 243.74
  L 408.27 311.72
  A 2.01 2.01 0.0 0 1 406.61 313.70
  C 400.96 314.69 397.33 312.48 391.65 309.24
  Q 343.92 282.05 296.20 254.88
  A 0.87 0.86 -45.3 0 0 295.34 254.89
  Q 247.00 282.57 198.70 309.99
  C 193.16 313.13 191.37 314.38 185.54 313.49
  Q 183.58 313.19 183.58 311.75
  Q 183.56 277.70 183.44 243.65
  A 0.55 0.55 0.0 0 0 182.90 243.10
  Z"
/>
<path fill="#9f8d44" d="
  M 245.50 312.54
  L 295.55 284.17
  A 0.60 0.60 0.0 0 1 296.15 284.17
  L 346.20 312.54
  A 0.60 0.60 0.0 0 1 345.90 313.67
  L 245.80 313.67
  A 0.60 0.60 0.0 0 1 245.50 312.54
  Z"
/>
<path fill="#9f8d44" d="
  M 82.88 339.07
  C 116.31 338.89 149.73 338.36 182.65 339.29
  A 0.41 0.40 -89.3 0 1 183.04 339.70
  L 183.04 474.94
  A 0.73 0.73 0.0 0 1 182.31 475.67
  L 82.62 476.05
  A 0.51 0.51 0.0 0 1 82.11 475.54
  Q 81.85 424.39 82.08 373.49
  C 82.12 365.92 81.83 350.89 82.26 339.66
  A 0.62 0.61 1.0 0 1 82.88 339.07
  Z"
/>
<rect fill="#9f8d44" x="408.69" y="338.99" width="100.30" height="136.84" rx="0.98"/>
<rect fill="#9f8d44" x="-12.33" y="-37.18" transform="translate(220.83,376.21) rotate(-0.1)" width="24.66" height="74.36" rx="1.07"/>
<rect fill="#9f8d44" x="258.25" y="339.03" width="24.76" height="74.40" rx="0.81"/>
<rect fill="#9f8d44" x="308.56" y="339.06" width="24.96" height="74.40" rx="1.23"/>
<rect fill="#9f8d44" x="358.49" y="339.04" width="24.76" height="74.32" rx="0.96"/>
<rect fill="#9f8d44" x="208.50" y="439.00" width="174.78" height="36.74" rx="0.26"/>
</svg>
