<?xml version="1.0" encoding="UTF-8" standalone="no"?>
<!DOCTYPE svg PUBLIC "-//W3C//DTD SVG 1.1//EN" "http://www.w3.org/Graphics/SVG/1.1/DTD/svg11.dtd">
<svg xmlns="http://www.w3.org/2000/svg" version="1.1" viewBox="0 0 591 591">
<g stroke-width="2.00" fill="none" stroke-linecap="butt">
<path stroke="#cfc6a2" vector-effect="non-scaling-stroke" d="
  M 509.59 219.59
  A 1.43 1.42 10.7 0 1 508.85 218.51
  Q 506.50 201.09 510.29 184.07
  C 511.25 179.78 518.68 169.06 522.98 167.72
  C 526.34 166.67 529.72 165.90 532.57 163.89
  C 536.65 161.03 540.11 154.93 532.99 152.78
  Q 484.10 138.06 435.14 123.52
  C 416.91 118.11 398.88 111.46 380.37 106.31
  C 376.91 105.35 370.06 102.05 365.75 102.54
  C 341.32 105.33 304.89 111.45 267.08 116.61
  C 231.38 121.49 199.21 125.72 160.00 131.77
  Q 146.64 133.84 106.27 139.03
  Q 96.27 140.31 91.53 142.33
  C 65.30 153.49 65.90 188.50 70.93 211.70
  C 73.20 222.19 77.56 230.33 84.14 238.42
  A 1.39 1.39 0.0 0 1 83.34 240.65
  Q 73.76 242.59 63.94 246.19
  C 56.96 248.76 60.62 254.50 65.00 256.65
  C 69.97 259.08 76.29 261.34 79.91 265.17
  C 85.82 271.41 88.95 282.18 89.18 290.64
  C 89.36 297.22 90.25 308.98 88.02 312.39
  A 1.39 1.37 7.4 0 1 87.27 312.96
  C 77.04 316.17 64.25 320.07 53.87 325.95
  C 52.07 326.97 51.45 328.31 52.22 330.25
  A 1.05 1.04 -6.3 0 0 53.04 330.90
  L 66.24 332.91
  A 0.83 0.83 0.0 0 1 66.69 334.33
  Q 58.94 341.78 56.17 352.16
  C 53.90 360.65 51.38 370.99 52.76 379.75
  C 55.24 395.55 56.59 411.57 68.21 423.31
  Q 73.95 429.10 80.23 431.07
  Q 124.21 444.92 168.03 459.29
  C 171.76 460.51 175.28 462.57 178.75 463.67
  Q 217.96 476.03 256.97 488.99
  C 261.59 490.53 276.19 485.75 281.25 484.29
  C 284.96 483.22 288.51 483.00 292.29 481.68
  Q 297.99 479.69 305.00 477.99
  C 341.40 469.19 378.23 461.16 414.38 451.45
  C 444.33 443.42 474.61 436.55 504.76 429.29
  Q 519.01 425.85 527.47 424.32
  A 1.13 1.09 -79.3 0 0 528.22 423.79
  Q 529.99 420.75 527.72 418.81
  Q 525.02 416.51 516.13 413.22
  Q 505.80 409.40 495.48 406.37
  A 2.19 2.18 3.7 0 1 493.94 404.63
  C 492.30 394.73 491.79 382.48 495.15 372.92
  C 499.51 360.50 501.59 356.00 514.99 351.02
  Q 521.46 348.61 521.59 342.52
  A 1.28 1.26 -65.6 0 0 521.27 341.65
  C 518.14 338.15 512.89 337.89 509.12 336.22
  Q 507.01 335.29 508.98 334.09
  C 529.04 321.87 531.71 285.96 528.25 265.25
  C 527.04 258.01 523.89 253.04 519.82 246.25
  C 517.68 242.68 520.91 242.64 523.17 242.10
  Q 531.53 240.09 540.00 238.68
  A 0.84 0.84 0.0 0 0 540.68 238.05
  Q 541.47 234.52 540.38 231.08
  A 1.04 1.04 0.0 0 0 539.83 230.46
  Q 525.97 223.99 511.18 220.39
  C 510.56 220.24 510.09 219.86 509.59 219.59"
/>
<path stroke="#cfc6a2" vector-effect="non-scaling-stroke" d="
  M 255.62 210.50
  Q 217.37 198.45 179.25 186.00
  C 175.19 184.67 171.58 182.64 168.42 181.62
  Q 135.45 170.95 102.50 160.25
  C 94.52 157.67 87.42 164.57 85.06 171.39
  Q 83.99 174.50 83.99 182.69
  C 84.00 191.46 83.20 202.50 85.10 209.93
  C 86.54 215.56 92.31 227.19 98.82 228.66
  Q 106.28 230.35 113.63 232.46
  Q 140.35 240.12 167.16 247.49
  C 171.42 248.66 175.34 250.62 179.72 251.83
  Q 227.21 265.02 274.81 278.13
  A 0.68 0.68 0.0 0 0 275.65 277.62
  C 276.12 275.55 275.96 273.18 276.02 271.45
  Q 276.89 244.91 277.13 219.08
  A 1.87 1.86 10.3 0 0 275.89 217.30
  Q 265.73 213.69 255.62 210.50"
/>
<path stroke="#cfc6a2" vector-effect="non-scaling-stroke" d="
  M 287.36 218.93
  C 286.79 222.55 287.02 226.96 286.80 229.85
  Q 285.03 253.76 284.66 277.71
  A 0.85 0.84 -6.0 0 0 285.69 278.54
  C 289.57 277.68 293.54 275.83 296.80 274.91
  C 309.32 271.37 325.80 267.64 334.60 265.45
  Q 374.03 255.64 413.50 245.98
  C 415.89 245.39 419.08 243.89 421.89 243.19
  Q 460.80 233.51 499.91 224.00
  A 1.65 1.65 0.0 0 0 501.12 222.01
  C 497.50 207.00 497.92 186.46 506.33 172.91
  A 0.48 0.48 0.0 0 0 505.82 172.19
  Q 469.47 179.81 432.77 187.23
  C 421.11 189.59 407.37 193.10 394.57 195.64
  C 362.94 201.92 331.33 208.60 304.82 213.84
  Q 295.60 215.67 287.91 218.28
  A 0.82 0.80 -5.5 0 0 287.36 218.93"
/>
<path stroke="#cfc6a2" vector-effect="non-scaling-stroke" d="
  M 511.82 265.25
  C 509.89 257.33 504.00 250.97 495.10 253.72
  C 467.45 262.27 439.81 270.87 412.57 280.67
  C 384.92 290.63 363.10 296.86 325.19 309.06
  Q 322.75 309.84 320.33 310.44
  A 0.59 0.59 0.0 0 0 319.87 311.05
  C 320.90 330.66 321.73 350.26 322.66 369.87
  A 1.75 1.74 78.0 0 0 325.04 371.42
  Q 331.75 368.79 338.25 366.99
  Q 364.78 359.66 391.35 352.44
  C 405.31 348.64 419.86 343.59 432.82 339.98
  Q 464.09 331.27 495.43 322.70
  Q 500.33 321.37 502.91 319.35
  C 509.74 314.04 509.35 307.16 512.64 300.19
  C 515.69 293.74 516.88 271.15 512.28 266.10
  Q 511.94 265.73 511.82 265.25"
/>
<path stroke="#cfc6a2" vector-effect="non-scaling-stroke" d="
  M 194.73 341.79
  C 232.00 350.75 254.53 356.56 281.80 363.12
  Q 288.32 364.68 293.58 366.31
  C 299.50 368.15 306.05 370.97 312.25 371.24
  A 0.58 0.57 5.6 0 0 312.84 370.76
  Q 313.04 369.32 312.80 366.48
  Q 310.79 343.12 310.67 311.63
  A 0.61 0.61 0.0 0 0 310.17 311.04
  C 300.04 309.18 288.73 306.21 280.09 304.45
  Q 230.54 294.34 180.99 284.28
  C 174.99 283.06 167.14 280.82 160.29 279.45
  Q 131.12 273.58 101.98 267.58
  Q 98.08 266.78 94.36 265.52
  A 1.01 1.01 0.0 0 0 93.03 266.45
  Q 92.92 271.18 95.88 274.70
  A 2.10 2.09 -70.4 0 1 96.33 275.66
  C 98.61 288.65 98.72 300.87 97.45 314.00
  Q 97.32 315.38 97.66 316.71
  A 0.83 0.83 0.0 0 0 98.27 317.32
  C 124.03 323.52 149.90 329.52 175.41 336.69
  Q 186.50 339.81 194.73 341.79"
/>
<path stroke="#cfc6a2" vector-effect="non-scaling-stroke" d="
  M 258.45 464.67
  A 0.89 0.89 0.0 0 0 259.64 463.85
  Q 260.48 436.19 262.73 407.73
  C 263.01 404.11 260.61 403.44 257.70 402.52
  Q 217.95 389.89 178.31 376.95
  C 174.65 375.75 171.08 373.73 167.73 372.63
  Q 126.83 359.22 85.85 346.07
  C 81.11 344.55 74.39 348.78 72.39 353.14
  C 65.49 368.08 66.86 385.70 71.75 400.93
  C 73.46 406.23 78.55 413.49 84.00 414.98
  Q 127.12 426.75 170.11 439.00
  C 172.14 439.58 174.32 440.62 176.57 441.25
  Q 211.88 451.23 247.22 461.10
  Q 252.00 462.43 258.45 464.67"
/>
<path stroke="#cfc6a2" vector-effect="non-scaling-stroke" d="
  M 325.16 395.86
  C 321.30 397.20 318.61 394.62 314.85 395.18
  Q 304.03 396.79 293.52 399.79
  C 286.93 401.67 279.95 402.19 273.26 404.09
  A 2.41 2.40 84.8 0 0 271.53 406.17
  C 269.65 425.08 269.97 444.87 269.02 464.26
  A 0.39 0.39 0.0 0 0 269.49 464.66
  C 282.84 461.69 297.34 457.13 308.70 454.33
  Q 359.47 441.83 410.21 429.26
  C 414.19 428.28 418.69 426.55 422.18 425.66
  Q 453.32 417.77 484.42 410.31
  A 1.17 1.16 82.6 0 0 485.31 409.15
  C 484.88 392.23 483.37 376.82 489.55 360.66
  A 1.22 1.21 -85.5 0 0 488.17 359.04
  C 464.97 363.82 441.61 368.38 418.43 373.57
  Q 388.74 380.22 358.87 386.01
  C 346.99 388.31 336.29 391.99 325.16 395.86"
/>
</g>
<path fill="#ffffff" d="
  M 288.81 0.00
  L 302.56 0.00
  C 461.40 4.68 586.80 130.90 591.00 289.31
  L 591.00 301.81
  C 586.62 460.80 461.13 586.12 302.44 591.00
  L 288.69 591.00
  C 129.28 586.43 4.96 460.49 0.00 301.94
  L 0.00 289.19
  Q 3.73 177.90 76.79 96.80
  C 130.51 37.17 207.58 2.27 288.81 0.00
  Z
  M 509.59 219.59
  A 1.43 1.42 10.7 0 1 508.85 218.51
  Q 506.50 201.09 510.29 184.07
  C 511.25 179.78 518.68 169.06 522.98 167.72
  C 526.34 166.67 529.72 165.90 532.57 163.89
  C 536.65 161.03 540.11 154.93 532.99 152.78
  Q 484.10 138.06 435.14 123.52
  C 416.91 118.11 398.88 111.46 380.37 106.31
  C 376.91 105.35 370.06 102.05 365.75 102.54
  C 341.32 105.33 304.89 111.45 267.08 116.61
  C 231.38 121.49 199.21 125.72 160.00 131.77
  Q 146.64 133.84 106.27 139.03
  Q 96.27 140.31 91.53 142.33
  C 65.30 153.49 65.90 188.50 70.93 211.70
  C 73.20 222.19 77.56 230.33 84.14 238.42
  A 1.39 1.39 0.0 0 1 83.34 240.65
  Q 73.76 242.59 63.94 246.19
  C 56.96 248.76 60.62 254.50 65.00 256.65
  C 69.97 259.08 76.29 261.34 79.91 265.17
  C 85.82 271.41 88.95 282.18 89.18 290.64
  C 89.36 297.22 90.25 308.98 88.02 312.39
  A 1.39 1.37 7.4 0 1 87.27 312.96
  C 77.04 316.17 64.25 320.07 53.87 325.95
  C 52.07 326.97 51.45 328.31 52.22 330.25
  A 1.05 1.04 -6.3 0 0 53.04 330.90
  L 66.24 332.91
  A 0.83 0.83 0.0 0 1 66.69 334.33
  Q 58.94 341.78 56.17 352.16
  C 53.90 360.65 51.38 370.99 52.76 379.75
  C 55.24 395.55 56.59 411.57 68.21 423.31
  Q 73.95 429.10 80.23 431.07
  Q 124.21 444.92 168.03 459.29
  C 171.76 460.51 175.28 462.57 178.75 463.67
  Q 217.96 476.03 256.97 488.99
  C 261.59 490.53 276.19 485.75 281.25 484.29
  C 284.96 483.22 288.51 483.00 292.29 481.68
  Q 297.99 479.69 305.00 477.99
  C 341.40 469.19 378.23 461.16 414.38 451.45
  C 444.33 443.42 474.61 436.55 504.76 429.29
  Q 519.01 425.85 527.47 424.32
  A 1.13 1.09 -79.3 0 0 528.22 423.79
  Q 529.99 420.75 527.72 418.81
  Q 525.02 416.51 516.13 413.22
  Q 505.80 409.40 495.48 406.37
  A 2.19 2.18 3.7 0 1 493.94 404.63
  C 492.30 394.73 491.79 382.48 495.15 372.92
  C 499.51 360.50 501.59 356.00 514.99 351.02
  Q 521.46 348.61 521.59 342.52
  A 1.28 1.26 -65.6 0 0 521.27 341.65
  C 518.14 338.15 512.89 337.89 509.12 336.22
  Q 507.01 335.29 508.98 334.09
  C 529.04 321.87 531.71 285.96 528.25 265.25
  C 527.04 258.01 523.89 253.04 519.82 246.25
  C 517.68 242.68 520.91 242.64 523.17 242.10
  Q 531.53 240.09 540.00 238.68
  A 0.84 0.84 0.0 0 0 540.68 238.05
  Q 541.47 234.52 540.38 231.08
  A 1.04 1.04 0.0 0 0 539.83 230.46
  Q 525.97 223.99 511.18 220.39
  C 510.56 220.24 510.09 219.86 509.59 219.59
  Z"
/>
<path fill="#9f8d44" d="
  M 509.59 219.59
  C 510.09 219.86 510.56 220.24 511.18 220.39
  Q 525.97 223.99 539.83 230.46
  A 1.04 1.04 0.0 0 1 540.38 231.08
  Q 541.47 234.52 540.68 238.05
  A 0.84 0.84 0.0 0 1 540.00 238.68
  Q 531.53 240.09 523.17 242.10
  C 520.91 242.64 517.68 242.68 519.82 246.25
  C 523.89 253.04 527.04 258.01 528.25 265.25
  C 531.71 285.96 529.04 321.87 508.98 334.09
  Q 507.01 335.29 509.12 336.22
  C 512.89 337.89 518.14 338.15 521.27 341.65
  A 1.28 1.26 -65.6 0 1 521.59 342.52
  Q 521.46 348.61 514.99 351.02
  C 501.59 356.00 499.51 360.50 495.15 372.92
  C 491.79 382.48 492.30 394.73 493.94 404.63
  A 2.19 2.18 3.7 0 0 495.48 406.37
  Q 505.80 409.40 516.13 413.22
  Q 525.02 416.51 527.72 418.81
  Q 529.99 420.75 528.22 423.79
  A 1.13 1.09 -79.3 0 1 527.47 424.32
  Q 519.01 425.85 504.76 429.29
  C 474.61 436.55 444.33 443.42 414.38 451.45
  C 378.23 461.16 341.40 469.19 305.00 477.99
  Q 297.99 479.69 292.29 481.68
  C 288.51 483.00 284.96 483.22 281.25 484.29
  C 276.19 485.75 261.59 490.53 256.97 488.99
  Q 217.96 476.03 178.75 463.67
  C 175.28 462.57 171.76 460.51 168.03 459.29
  Q 124.21 444.92 80.23 431.07
  Q 73.95 429.10 68.21 423.31
  C 56.59 411.57 55.24 395.55 52.76 379.75
  C 51.38 370.99 53.90 360.65 56.17 352.16
  Q 58.94 341.78 66.69 334.33
  A 0.83 0.83 0.0 0 0 66.24 332.91
  L 53.04 330.90
  A 1.05 1.04 -6.3 0 1 52.22 330.25
  C 51.45 328.31 52.07 326.97 53.87 325.95
  C 64.25 320.07 77.04 316.17 87.27 312.96
  A 1.39 1.37 7.4 0 0 88.02 312.39
  C 90.25 308.98 89.36 297.22 89.18 290.64
  C 88.95 282.18 85.82 271.41 79.91 265.17
  C 76.29 261.34 69.97 259.08 65.00 256.65
  C 60.62 254.50 56.96 248.76 63.94 246.19
  Q 73.76 242.59 83.34 240.65
  A 1.39 1.39 0.0 0 0 84.14 238.42
  C 77.56 230.33 73.20 222.19 70.93 211.70
  C 65.90 188.50 65.30 153.49 91.53 142.33
  Q 96.27 140.31 106.27 139.03
  Q 146.64 133.84 160.00 131.77
  C 199.21 125.72 231.38 121.49 267.08 116.61
  C 304.89 111.45 341.32 105.33 365.75 102.54
  C 370.06 102.05 376.91 105.35 380.37 106.31
  C 398.88 111.46 416.91 118.11 435.14 123.52
  Q 484.10 138.06 532.99 152.78
  C 540.11 154.93 536.65 161.03 532.57 163.89
  C 529.72 165.90 526.34 166.67 522.98 167.72
  C 518.68 169.06 511.25 179.78 510.29 184.07
  Q 506.50 201.09 508.85 218.51
  A 1.43 1.42 10.7 0 0 509.59 219.59
  Z
  M 255.62 210.50
  Q 217.37 198.45 179.25 186.00
  C 175.19 184.67 171.58 182.64 168.42 181.62
  Q 135.45 170.95 102.50 160.25
  C 94.52 157.67 87.42 164.57 85.06 171.39
  Q 83.99 174.50 83.99 182.69
  C 84.00 191.46 83.20 202.50 85.10 209.93
  C 86.54 215.56 92.31 227.19 98.82 228.66
  Q 106.28 230.35 113.63 232.46
  Q 140.35 240.12 167.16 247.49
  C 171.42 248.66 175.34 250.62 179.72 251.83
  Q 227.21 265.02 274.81 278.13
  A 0.68 0.68 0.0 0 0 275.65 277.62
  C 276.12 275.55 275.96 273.18 276.02 271.45
  Q 276.89 244.91 277.13 219.08
  A 1.87 1.86 10.3 0 0 275.89 217.30
  Q 265.73 213.69 255.62 210.50
  Z
  M 287.36 218.93
  C 286.79 222.55 287.02 226.96 286.80 229.85
  Q 285.03 253.76 284.66 277.71
  A 0.85 0.84 -6.0 0 0 285.69 278.54
  C 289.57 277.68 293.54 275.83 296.80 274.91
  C 309.32 271.37 325.80 267.64 334.60 265.45
  Q 374.03 255.64 413.50 245.98
  C 415.89 245.39 419.08 243.89 421.89 243.19
  Q 460.80 233.51 499.91 224.00
  A 1.65 1.65 0.0 0 0 501.12 222.01
  C 497.50 207.00 497.92 186.46 506.33 172.91
  A 0.48 0.48 0.0 0 0 505.82 172.19
  Q 469.47 179.81 432.77 187.23
  C 421.11 189.59 407.37 193.10 394.57 195.64
  C 362.94 201.92 331.33 208.60 304.82 213.84
  Q 295.60 215.67 287.91 218.28
  A 0.82 0.80 -5.5 0 0 287.36 218.93
  Z
  M 511.82 265.25
  C 509.89 257.33 504.00 250.97 495.10 253.72
  C 467.45 262.27 439.81 270.87 412.57 280.67
  C 384.92 290.63 363.10 296.86 325.19 309.06
  Q 322.75 309.84 320.33 310.44
  A 0.59 0.59 0.0 0 0 319.87 311.05
  C 320.90 330.66 321.73 350.26 322.66 369.87
  A 1.75 1.74 78.0 0 0 325.04 371.42
  Q 331.75 368.79 338.25 366.99
  Q 364.78 359.66 391.35 352.44
  C 405.31 348.64 419.86 343.59 432.82 339.98
  Q 464.09 331.27 495.43 322.70
  Q 500.33 321.37 502.91 319.35
  C 509.74 314.04 509.35 307.16 512.64 300.19
  C 515.69 293.74 516.88 271.15 512.28 266.10
  Q 511.94 265.73 511.82 265.25
  Z
  M 194.73 341.79
  C 232.00 350.75 254.53 356.56 281.80 363.12
  Q 288.32 364.68 293.58 366.31
  C 299.50 368.15 306.05 370.97 312.25 371.24
  A 0.58 0.57 5.6 0 0 312.84 370.76
  Q 313.04 369.32 312.80 366.48
  Q 310.79 343.12 310.67 311.63
  A 0.61 0.61 0.0 0 0 310.17 311.04
  C 300.04 309.18 288.73 306.21 280.09 304.45
  Q 230.54 294.34 180.99 284.28
  C 174.99 283.06 167.14 280.82 160.29 279.45
  Q 131.12 273.58 101.98 267.58
  Q 98.08 266.78 94.36 265.52
  A 1.01 1.01 0.0 0 0 93.03 266.45
  Q 92.92 271.18 95.88 274.70
  A 2.10 2.09 -70.4 0 1 96.33 275.66
  C 98.61 288.65 98.72 300.87 97.45 314.00
  Q 97.32 315.38 97.66 316.71
  A 0.83 0.83 0.0 0 0 98.27 317.32
  C 124.03 323.52 149.90 329.52 175.41 336.69
  Q 186.50 339.81 194.73 341.79
  Z
  M 258.45 464.67
  A 0.89 0.89 0.0 0 0 259.64 463.85
  Q 260.48 436.19 262.73 407.73
  C 263.01 404.11 260.61 403.44 257.70 402.52
  Q 217.95 389.89 178.31 376.95
  C 174.65 375.75 171.08 373.73 167.73 372.63
  Q 126.83 359.22 85.85 346.07
  C 81.11 344.55 74.39 348.78 72.39 353.14
  C 65.49 368.08 66.86 385.70 71.75 400.93
  C 73.46 406.23 78.55 413.49 84.00 414.98
  Q 127.12 426.75 170.11 439.00
  C 172.14 439.58 174.32 440.62 176.57 441.25
  Q 211.88 451.23 247.22 461.10
  Q 252.00 462.43 258.45 464.67
  Z
  M 325.16 395.86
  C 321.30 397.20 318.61 394.62 314.85 395.18
  Q 304.03 396.79 293.52 399.79
  C 286.93 401.67 279.95 402.19 273.26 404.09
  A 2.41 2.40 84.8 0 0 271.53 406.17
  C 269.65 425.08 269.97 444.87 269.02 464.26
  A 0.39 0.39 0.0 0 0 269.49 464.66
  C 282.84 461.69 297.34 457.13 308.70 454.33
  Q 359.47 441.83 410.21 429.26
  C 414.19 428.28 418.69 426.55 422.18 425.66
  Q 453.32 417.77 484.42 410.31
  A 1.17 1.16 82.6 0 0 485.31 409.15
  C 484.88 392.23 483.37 376.82 489.55 360.66
  A 1.22 1.21 -85.5 0 0 488.17 359.04
  C 464.97 363.82 441.61 368.38 418.43 373.57
  Q 388.74 380.22 358.87 386.01
  C 346.99 388.31 336.29 391.99 325.16 395.86
  Z"
/>
<path fill="#ffffff" d="
  M 255.62 210.50
  Q 265.73 213.69 275.89 217.30
  A 1.87 1.86 10.3 0 1 277.13 219.08
  Q 276.89 244.91 276.02 271.45
  C 275.96 273.18 276.12 275.55 275.65 277.62
  A 0.68 0.68 0.0 0 1 274.81 278.13
  Q 227.21 265.02 179.72 251.83
  C 175.34 250.62 171.42 248.66 167.16 247.49
  Q 140.35 240.12 113.63 232.46
  Q 106.28 230.35 98.82 228.66
  C 92.31 227.19 86.54 215.56 85.10 209.93
  C 83.20 202.50 84.00 191.46 83.99 182.69
  Q 83.99 174.50 85.06 171.39
  C 87.42 164.57 94.52 157.67 102.50 160.25
  Q 135.45 170.95 168.42 181.62
  C 171.58 182.64 175.19 184.67 179.25 186.00
  Q 217.37 198.45 255.62 210.50
  Z"
/>
<path fill="#ffffff" d="
  M 287.91 218.28
  Q 295.60 215.67 304.82 213.84
  C 331.33 208.60 362.94 201.92 394.57 195.64
  C 407.37 193.10 421.11 189.59 432.77 187.23
  Q 469.47 179.81 505.82 172.19
  A 0.48 0.48 0.0 0 1 506.33 172.91
  C 497.92 186.46 497.50 207.00 501.12 222.01
  A 1.65 1.65 0.0 0 1 499.91 224.00
  Q 460.80 233.51 421.89 243.19
  C 419.08 243.89 415.89 245.39 413.50 245.98
  Q 374.03 255.64 334.60 265.45
  C 325.80 267.64 309.32 271.37 296.80 274.91
  C 293.54 275.83 289.57 277.68 285.69 278.54
  A 0.85 0.84 -6.0 0 1 284.66 277.71
  Q 285.03 253.76 286.80 229.85
  C 287.02 226.96 286.79 222.55 287.36 218.93
  A 0.82 0.80 -5.5 0 1 287.91 218.28
  Z"
/>
<path fill="#ffffff" d="
  M 495.10 253.72
  C 504.00 250.97 509.89 257.33 511.82 265.25
  Q 511.94 265.73 512.28 266.10
  C 516.88 271.15 515.69 293.74 512.64 300.19
  C 509.35 307.16 509.74 314.04 502.91 319.35
  Q 500.33 321.37 495.43 322.70
  Q 464.09 331.27 432.82 339.98
  C 419.86 343.59 405.31 348.64 391.35 352.44
  Q 364.78 359.66 338.25 366.99
  Q 331.75 368.79 325.04 371.42
  A 1.75 1.74 78.0 0 1 322.66 369.87
  C 321.73 350.26 320.90 330.66 319.87 311.05
  A 0.59 0.59 0.0 0 1 320.33 310.44
  Q 322.75 309.84 325.19 309.06
  C 363.10 296.86 384.92 290.63 412.57 280.67
  C 439.81 270.87 467.45 262.27 495.10 253.72
  Z"
/>
<path fill="#ffffff" d="
  M 281.80 363.12
  C 254.53 356.56 232.00 350.75 194.73 341.79
  Q 186.50 339.81 175.41 336.69
  C 149.90 329.52 124.03 323.52 98.27 317.32
  A 0.83 0.83 0.0 0 1 97.66 316.71
  Q 97.32 315.38 97.45 314.00
  C 98.72 300.87 98.61 288.65 96.33 275.66
  A 2.10 2.09 -70.4 0 0 95.88 274.70
  Q 92.92 271.18 93.03 266.45
  A 1.01 1.01 0.0 0 1 94.36 265.52
  Q 98.08 266.78 101.98 267.58
  Q 131.12 273.58 160.29 279.45
  C 167.14 280.82 174.99 283.06 180.99 284.28
  Q 230.54 294.34 280.09 304.45
  C 288.73 306.21 300.04 309.18 310.17 311.04
  A 0.61 0.61 0.0 0 1 310.67 311.63
  Q 310.79 343.12 312.80 366.48
  Q 313.04 369.32 312.84 370.76
  A 0.58 0.57 5.6 0 1 312.25 371.24
  C 306.05 370.97 299.50 368.15 293.58 366.31
  Q 288.32 364.68 281.80 363.12
  Z"
/>
<path fill="#ffffff" d="
  M 258.45 464.67
  Q 252.00 462.43 247.22 461.10
  Q 211.88 451.23 176.57 441.25
  C 174.32 440.62 172.14 439.58 170.11 439.00
  Q 127.12 426.75 84.00 414.98
  C 78.55 413.49 73.46 406.23 71.75 400.93
  C 66.86 385.70 65.49 368.08 72.39 353.14
  C 74.39 348.78 81.11 344.55 85.85 346.07
  Q 126.83 359.22 167.73 372.63
  C 171.08 373.73 174.65 375.75 178.31 376.95
  Q 217.95 389.89 257.70 402.52
  C 260.61 403.44 263.01 404.11 262.73 407.73
  Q 260.48 436.19 259.64 463.85
  A 0.89 0.89 0.0 0 1 258.45 464.67
  Z"
/>
<path fill="#ffffff" d="
  M 314.85 395.18
  C 318.61 394.62 321.30 397.20 325.16 395.86
  C 336.29 391.99 346.99 388.31 358.87 386.01
  Q 388.74 380.22 418.43 373.57
  C 441.61 368.38 464.97 363.82 488.17 359.04
  A 1.22 1.21 -85.5 0 1 489.55 360.66
  C 483.37 376.82 484.88 392.23 485.31 409.15
  A 1.17 1.16 82.6 0 1 484.42 410.31
  Q 453.32 417.77 422.18 425.66
  C 418.69 426.55 414.19 428.28 410.21 429.26
  Q 359.47 441.83 308.70 454.33
  C 297.34 457.13 282.84 461.69 269.49 464.66
  A 0.39 0.39 0.0 0 1 269.02 464.26
  C 269.97 444.87 269.65 425.08 271.53 406.17
  A 2.41 2.40 84.8 0 1 273.26 404.09
  C 279.95 402.19 286.93 401.67 293.52 399.79
  Q 304.03 396.79 314.85 395.18
  Z"
/>
</svg>
