<?xml version="1.0" encoding="UTF-8" standalone="no"?>
<!DOCTYPE svg PUBLIC "-//W3C//DTD SVG 1.1//EN" "http://www.w3.org/Graphics/SVG/1.1/DTD/svg11.dtd">
<svg xmlns="http://www.w3.org/2000/svg" version="1.1" viewBox="0 0 1448 1448">
<rect fill="#ffffff" x="-22.52" y="-54.35" transform="translate(890.14,166.52) rotate(18.3)" width="45.04" height="108.70" rx="21.67"/>
<path fill="#ffffff" d="
  M 1052.79 187.19
  C 1060.23 195.66 1057.90 206.62 1052.52 215.55
  Q 1039.00 237.97 1024.78 259.95
  Q 1021.37 265.23 1014.16 272.66
  C 1011.44 275.45 1010.53 275.46 1006.40 276.14
  C 993.46 278.28 984.79 273.71 979.69 262.00
  C 976.57 254.86 979.13 247.55 983.19 241.18
  Q 998.70 216.82 1014.64 192.73
  C 1019.22 185.81 1023.40 180.66 1031.30 180.30
  C 1040.70 179.88 1046.48 179.99 1052.79 187.19
  Z"
/>
<path fill="#ffffff" d="
  M 1174.25 1009.92
  Q 1172.58 1010.08 1173.62 1011.39
  Q 1178.43 1017.42 1183.28 1022.97
  Q 1222.81 1068.20 1262.24 1113.52
  C 1301.80 1159.00 1310.21 1220.92 1277.75 1272.75
  C 1243.01 1328.22 1172.20 1351.26 1112.63 1320.72
  C 1091.45 1309.87 1075.39 1293.93 1060.34 1275.95
  Q 1050.35 1264.01 1047.69 1260.95
  Q 986.04 1189.89 924.61 1118.63
  C 918.98 1112.09 913.17 1106.05 907.29 1099.93
  Q 905.50 1098.07 902.90 1099.27
  C 851.90 1122.82 796.31 1137.02 740.00 1136.77
  C 716.99 1136.67 693.35 1137.18 670.51 1134.19
  C 577.64 1122.02 484.28 1083.69 417.18 1017.08
  C 412.43 1012.38 404.53 1003.72 397.84 997.44
  A 1.67 1.67 0.0 0 0 395.95 997.16
  C 392.38 998.95 389.31 1001.05 385.23 1001.39
  C 379.72 1001.84 374.17 1002.20 368.62 1003.20
  C 280.20 1019.09 185.78 1004.72 104.33 968.10
  Q 94.06 963.48 86.58 958.92
  Q 83.26 956.89 83.13 952.68
  C 82.42 929.50 83.62 907.14 90.17 884.98
  C 104.52 836.41 134.30 794.07 176.58 765.84
  Q 187.76 758.38 196.99 753.01
  C 200.29 751.09 205.80 751.09 206.71 746.66
  Q 206.80 746.19 206.47 745.85
  Q 205.06 744.40 203.48 743.28
  Q 163.93 715.33 145.44 670.53
  C 141.44 660.84 140.00 650.35 137.61 639.57
  Q 136.48 634.52 136.15 630.71
  C 128.24 541.31 191.85 456.12 283.85 450.22
  Q 293.41 449.61 303.00 449.87
  Q 311.91 450.11 323.98 453.55
  Q 330.29 455.34 338.72 454.14
  Q 339.21 454.07 339.44 453.64
  C 342.48 447.83 345.55 442.19 349.28 436.72
  C 367.12 410.55 384.34 387.63 406.72 365.73
  C 469.65 304.15 547.99 262.06 634.55 245.24
  Q 684.46 235.54 730.00 236.26
  Q 770.88 236.90 818.23 247.04
  C 939.50 272.99 1040.74 346.52 1104.76 452.32
  C 1105.97 454.32 1107.27 454.82 1109.50 454.50
  Q 1123.96 452.48 1129.34 451.78
  C 1207.76 441.57 1275.22 487.95 1300.23 561.00
  C 1315.59 605.88 1310.45 655.11 1285.67 695.49
  C 1279.98 704.76 1275.60 711.49 1268.87 718.87
  Q 1255.88 733.10 1240.07 744.10
  Q 1238.75 745.02 1237.92 745.95
  A 1.62 1.61 34.3 0 0 1238.40 748.46
  C 1299.56 779.62 1341.31 828.93 1357.10 896.42
  C 1361.32 914.49 1361.47 933.03 1360.76 951.50
  C 1360.50 958.37 1354.17 961.80 1348.30 964.53
  C 1303.65 985.33 1254.16 999.80 1204.31 1005.48
  C 1194.38 1006.62 1184.29 1008.91 1174.25 1009.92
  Z
  M 328.86 777.01
  C 359.37 908.42 452.14 1017.47 578.32 1065.93
  C 733.77 1125.63 910.33 1083.04 1021.51 958.76
  Q 1105.30 865.11 1122.32 739.26
  C 1123.50 730.57 1122.74 721.53 1124.34 713.10
  C 1126.64 700.97 1129.10 689.66 1125.30 677.05
  Q 1123.48 671.00 1123.49 669.00
  Q 1123.61 652.35 1120.70 636.01
  C 1118.90 625.85 1120.69 615.82 1115.31 606.17
  Q 1115.05 605.71 1115.14 605.19
  Q 1116.56 597.26 1111.69 590.96
  Q 1111.39 590.58 1111.42 590.09
  Q 1111.82 583.43 1110.67 579.78
  C 1106.56 566.75 1102.61 552.96 1098.01 540.89
  C 1074.56 479.30 1039.73 422.66 989.29 379.87
  C 918.70 319.98 829.81 284.87 736.82 283.92
  C 716.36 283.72 695.21 282.78 674.84 285.15
  Q 561.36 298.36 470.77 367.08
  Q 467.28 369.73 461.22 375.06
  C 454.08 381.33 445.39 387.45 439.50 393.24
  C 429.89 402.68 419.33 416.17 413.08 423.57
  C 373.15 470.85 345.61 529.76 331.66 590.47
  C 326.61 612.45 324.84 625.96 322.14 644.02
  C 320.82 652.88 321.46 663.45 320.01 671.26
  Q 316.83 688.28 318.25 703.50
  Q 320.49 727.49 325.13 757.37
  Q 326.82 768.23 328.86 777.01
  Z
  M 256.19 721.05
  Q 264.29 724.48 273.06 725.75
  Q 274.05 725.90 274.03 724.90
  Q 273.35 695.95 274.21 666.94
  C 274.58 654.75 276.20 642.54 277.64 630.32
  Q 285.51 563.81 313.53 503.09
  C 314.24 501.56 314.22 499.40 312.70 498.57
  Q 299.71 491.44 285.44 496.11
  C 278.69 498.32 272.25 497.27 265.39 498.97
  C 260.17 500.27 254.66 503.21 249.35 505.29
  Q 244.07 507.35 240.52 509.46
  C 217.64 523.08 200.03 541.82 189.73 566.53
  C 186.39 574.55 183.16 583.68 182.16 592.25
  C 181.33 599.30 178.75 606.04 179.22 613.01
  C 181.50 646.58 195.20 677.94 220.30 700.15
  C 230.56 709.23 243.40 715.64 256.19 721.05
  Z
  M 1172.57 724.83
  Q 1173.45 725.42 1174.48 725.14
  Q 1185.76 721.98 1196.83 716.86
  C 1239.34 697.22 1264.78 653.12 1262.28 606.58
  C 1261.88 599.06 1262.11 591.39 1259.98 584.10
  Q 1256.63 572.67 1255.47 569.50
  C 1243.55 536.91 1216.05 512.67 1183.95 500.62
  Q 1179.49 498.95 1176.25 498.49
  C 1164.64 496.87 1152.96 493.51 1141.70 494.47
  C 1137.87 494.80 1128.70 498.11 1131.23 503.72
  C 1157.64 562.32 1169.37 624.49 1170.53 688.57
  Q 1170.83 705.00 1170.84 721.44
  Q 1170.84 723.65 1172.57 724.83
  Z
  M 133.24 931.61
  C 186.30 953.88 241.01 962.46 298.19 965.11
  Q 305.38 965.45 311.92 964.64
  C 322.22 963.36 332.47 962.48 342.80 961.52
  C 349.93 960.87 356.41 959.13 363.23 957.32
  A 1.00 1.00 0.0 0 0 363.75 955.73
  C 355.54 945.47 348.92 935.32 341.37 923.25
  C 314.07 879.56 293.82 831.59 284.31 780.99
  Q 283.72 777.85 279.59 775.32
  Q 279.20 775.08 278.73 775.10
  C 270.09 775.40 262.97 777.34 255.07 779.15
  Q 247.06 780.98 241.14 783.12
  C 190.89 801.25 152.90 839.31 135.70 890.23
  Q 131.14 903.72 127.07 924.19
  C 126.02 929.48 129.46 930.02 133.24 931.61
  Z
  M 1132.71 964.37
  C 1138.41 966.68 1142.37 966.30 1149.56 965.73
  C 1206.04 961.31 1260.32 953.21 1313.31 931.18
  C 1316.60 929.81 1318.19 928.53 1317.46 924.80
  Q 1314.46 909.51 1310.40 896.29
  C 1290.52 831.54 1236.47 781.66 1167.75 775.33
  Q 1161.86 774.79 1160.73 779.99
  Q 1145.22 851.28 1109.59 912.38
  Q 1105.33 919.69 1101.05 927.03
  Q 1100.78 927.50 1100.91 928.02
  Q 1101.30 929.56 1102.73 931.02
  Q 1118.12 946.66 1131.84 963.73
  Q 1132.19 964.16 1132.71 964.37
  Z
  M 1092.15 1244.40
  C 1111.23 1267.48 1132.71 1287.77 1164.75 1288.23
  Q 1176.52 1288.40 1188.22 1287.04
  C 1195.60 1286.19 1204.80 1280.43 1211.32 1276.82
  C 1229.99 1266.45 1246.11 1244.71 1250.14 1223.55
  C 1251.45 1216.67 1253.64 1209.10 1253.13 1202.25
  Q 1252.37 1191.90 1248.97 1179.75
  C 1245.36 1166.84 1241.06 1159.01 1231.98 1148.03
  Q 1206.04 1116.67 1178.82 1086.43
  Q 1174.22 1081.32 1167.25 1072.59
  C 1159.35 1062.68 1148.81 1051.75 1142.18 1043.98
  Q 1115.97 1013.25 1089.48 982.77
  Q 1082.05 974.22 1074.04 965.84
  A 0.78 0.77 -48.3 0 0 1072.86 965.91
  C 1039.82 1009.35 996.17 1047.96 949.61 1074.36
  A 1.85 1.84 -33.8 0 0 949.06 1077.10
  C 961.56 1093.20 975.31 1108.36 988.59 1124.00
  Q 1019.73 1160.65 1051.43 1196.82
  C 1054.31 1200.10 1058.41 1204.06 1061.59 1207.97
  C 1071.59 1220.25 1080.77 1230.65 1092.15 1244.40
  Z"
/>
<path fill="#ffffff" d="
  M 1111.78 362.89
  C 1094.19 371.60 1071.16 349.94 1082.54 331.30
  Q 1084.34 328.35 1090.20 322.45
  C 1103.62 308.94 1120.53 297.58 1133.46 283.70
  C 1137.18 279.70 1143.40 278.15 1148.41 276.18
  Q 1148.85 276.01 1149.30 276.11
  C 1157.43 277.99 1169.30 283.84 1170.62 292.26
  C 1171.43 297.48 1172.52 306.90 1168.77 311.18
  C 1154.56 327.37 1137.58 340.29 1123.63 353.33
  Q 1115.23 361.18 1111.78 362.89
  Z"
/>
<path fill="#ffffff" d="
  M 644.24 1020.39
  C 530.02 993.13 439.09 911.80 399.28 801.23
  Q 394.53 788.06 391.90 776.42
  C 391.04 772.59 389.21 768.46 388.57 764.94
  C 386.48 753.38 384.64 742.50 383.73 730.75
  C 383.19 723.86 380.58 717.32 380.50 710.49
  C 379.96 667.70 383.49 628.60 396.03 588.00
  Q 423.37 499.47 489.10 434.33
  Q 497.70 425.81 520.25 408.49
  Q 545.43 389.15 579.12 373.95
  Q 669.92 333.00 767.25 345.79
  C 941.21 368.66 1058.43 513.53 1063.79 685.25
  Q 1064.07 694.44 1063.39 705.24
  Q 1061.82 730.17 1059.53 744.01
  C 1046.26 823.95 1006.75 894.87 945.15 947.00
  C 887.57 995.73 814.09 1026.67 738.32 1029.55
  Q 711.72 1030.57 693.00 1029.00
  Q 673.46 1027.37 644.24 1020.39
  Z
  M 506.77 892.34
  C 508.34 893.99 510.72 896.82 513.03 898.83
  Q 513.41 899.16 513.79 898.84
  C 516.64 896.45 514.15 892.24 514.74 890.00
  C 522.08 862.40 534.43 838.61 550.59 815.54
  C 560.77 800.99 573.99 788.41 587.52 777.08
  C 599.77 766.80 613.63 758.24 627.74 750.74
  Q 630.53 749.25 632.88 747.02
  A 0.95 0.95 0.0 0 0 632.71 745.51
  Q 626.84 742.01 621.58 737.69
  C 557.95 685.35 542.27 593.13 587.67 523.46
  C 595.64 511.23 604.73 499.08 616.22 489.84
  C 656.24 457.69 700.36 443.34 751.28 452.83
  C 815.47 464.78 867.50 515.22 879.50 578.74
  C 888.35 625.58 878.08 674.30 848.52 711.26
  Q 838.82 723.40 825.45 735.69
  C 821.86 739.00 817.46 741.44 813.37 744.37
  C 810.85 746.18 811.62 747.87 813.98 749.15
  Q 827.08 756.24 831.99 759.29
  Q 902.62 803.13 927.44 882.26
  C 929.04 887.35 929.74 892.13 930.22 897.33
  A 1.06 1.06 0.0 0 0 932.01 898.00
  C 975.13 855.93 1006.02 797.58 1014.44 737.74
  Q 1017.44 716.43 1019.48 695.00
  C 1020.31 686.30 1018.13 673.76 1017.46 666.86
  C 1016.71 659.14 1016.01 650.93 1014.95 643.74
  C 996.71 520.03 904.28 417.62 780.64 393.27
  Q 776.96 392.55 772.31 391.98
  Q 753.80 389.69 735.25 387.71
  C 723.34 386.44 711.99 386.47 700.19 388.68
  C 687.86 391.00 675.94 390.69 662.50 393.46
  C 610.63 404.12 566.19 427.35 526.21 461.96
  C 507.48 478.17 491.97 498.18 478.16 518.64
  C 443.90 569.37 427.67 626.81 425.20 687.76
  Q 424.92 694.72 425.26 698.75
  C 426.28 710.65 427.73 728.84 430.23 742.53
  Q 446.00 828.81 506.77 892.34
  Z
  M 694.20 497.93
  C 657.43 508.48 625.58 535.63 613.02 572.00
  C 588.87 641.97 632.41 716.08 706.07 727.38
  Q 715.87 728.88 726.00 728.37
  C 771.38 726.07 810.68 700.43 828.56 658.05
  C 833.73 645.78 835.33 635.91 836.32 622.27
  C 837.20 610.23 835.68 598.50 834.85 586.73
  Q 834.53 582.23 833.21 578.46
  C 822.56 548.04 806.30 523.37 776.92 508.86
  C 768.10 504.51 757.32 499.19 747.51 498.08
  Q 738.19 497.02 728.94 495.40
  C 720.24 493.86 713.34 494.60 705.29 496.96
  C 701.63 498.03 697.50 496.98 694.20 497.93
  Z
  M 882.98 892.29
  C 865.78 834.36 819.15 791.53 759.99 778.91
  C 708.93 768.01 649.26 779.48 610.40 816.00
  C 599.05 826.67 587.85 838.45 579.84 851.58
  C 567.01 872.57 559.65 895.23 554.84 919.52
  C 554.00 923.73 552.38 931.73 556.66 934.59
  Q 636.52 987.89 731.98 985.27
  Q 738.66 985.08 756.24 983.42
  C 802.65 979.02 848.28 961.17 886.89 935.27
  C 888.44 934.23 890.26 933.37 890.41 931.32
  Q 890.73 927.21 890.16 920.89
  Q 889.86 917.57 888.40 913.34
  C 886.02 906.43 884.65 897.90 882.98 892.29
  Z"
/>
</svg>
