<?xml version="1.0" encoding="UTF-8" standalone="no"?>
<!DOCTYPE svg PUBLIC "-//W3C//DTD SVG 1.1//EN" "http://www.w3.org/Graphics/SVG/1.1/DTD/svg11.dtd">
<svg xmlns="http://www.w3.org/2000/svg" version="1.1" viewBox="0 0 832 832">
<path fill="#ff453b" d="
  M 225.37 664.04
  C 216.22 654.88 207.22 646.03 199.11 635.89
  C 190.55 625.18 182.53 611.85 174.64 599.65
  Q 135.33 538.84 122.20 467.85
  C 119.36 452.45 118.52 435.53 116.78 419.44
  C 116.53 417.04 116.26 413.87 116.26 411.27
  Q 116.25 299.31 116.25 187.34
  C 116.25 174.78 112.13 156.63 127.78 151.40
  C 151.45 143.49 175.59 136.97 199.31 129.07
  C 212.51 124.68 238.44 117.13 258.50 110.64
  C 285.28 101.97 312.32 94.18 339.07 85.45
  Q 375.32 73.62 411.91 62.90
  C 414.30 62.20 418.68 61.76 421.07 62.48
  C 465.89 75.94 506.35 88.96 540.13 99.35
  C 593.99 115.92 647.47 133.74 701.54 149.63
  C 702.89 150.03 704.21 150.91 705.51 151.19
  Q 715.39 153.33 715.40 163.94
  Q 715.58 287.07 715.48 410.21
  Q 715.48 410.60 715.35 410.96
  Q 715.21 411.37 715.22 412.00
  C 715.53 430.30 715.18 450.05 711.77 468.34
  Q 698.60 538.88 659.75 599.49
  C 654.32 607.96 648.10 616.54 642.17 625.91
  Q 637.36 633.49 634.17 637.17
  C 613.88 660.56 594.43 677.76 570.24 697.18
  C 553.89 710.31 536.25 720.73 517.26 730.49
  Q 516.20 731.03 515.42 731.17
  Q 514.94 731.25 514.53 731.52
  Q 509.51 734.91 503.79 736.78
  C 497.60 738.81 492.53 742.01 486.99 744.97
  C 482.94 747.13 473.09 749.52 466.38 752.02
  C 462.97 753.29 459.10 754.14 456.23 755.01
  Q 445.52 758.28 431.01 761.77
  C 422.03 763.93 415.23 764.27 405.79 762.27
  C 394.55 759.88 383.80 756.13 372.67 753.69
  C 367.78 752.62 364.23 750.48 357.50 748.50
  Q 346.51 745.26 336.78 739.31
  C 333.15 737.09 329.80 737.08 326.35 735.26
  C 304.43 723.71 281.63 712.43 261.64 695.51
  C 249.40 685.14 237.34 676.02 225.37 664.04
  Z
  M 262.68 659.49
  C 285.04 680.71 312.75 696.02 339.63 709.70
  C 361.01 720.59 384.23 728.04 407.61 733.29
  C 412.61 734.41 416.14 736.95 422.05 734.64
  Q 424.04 733.86 426.15 733.52
  C 428.80 733.09 430.80 731.56 433.44 731.37
  Q 435.99 731.20 436.75 730.99
  Q 466.03 723.05 484.01 715.01
  Q 489.28 712.65 514.19 699.37
  Q 515.04 698.92 517.48 698.02
  C 519.95 697.10 522.63 694.80 524.06 693.94
  Q 543.08 682.46 560.82 669.09
  C 564.54 666.28 567.67 662.51 571.25 659.25
  C 583.03 648.51 595.15 637.44 605.46 625.61
  Q 621.27 607.48 634.75 587.52
  Q 637.80 583.00 640.13 578.10
  C 647.21 563.23 654.56 549.49 658.45 541.19
  C 666.53 523.93 673.22 504.05 677.99 484.82
  C 682.90 465.01 686.04 448.35 686.50 428.21
  C 686.59 423.99 687.87 419.53 687.96 415.75
  C 689.80 336.11 688.75 256.24 688.75 176.53
  A 0.69 0.69 0.0 0 0 688.26 175.87
  Q 667.78 169.39 647.23 163.17
  C 644.33 162.30 641.18 160.84 638.50 160.00
  Q 608.36 150.48 578.05 141.49
  Q 565.99 137.92 558.95 135.01
  C 555.81 133.71 552.92 133.22 550.48 132.46
  C 509.46 119.81 468.20 106.24 426.77 94.18
  Q 423.66 93.27 416.96 90.39
  A 0.97 0.97 0.0 0 0 416.07 90.45
  Q 409.65 94.18 407.20 94.71
  C 406.15 94.94 404.74 94.57 403.39 95.11
  C 397.90 97.32 391.66 98.69 386.59 100.47
  C 372.57 105.39 357.82 109.34 343.58 113.70
  C 341.63 114.30 339.47 115.49 337.33 116.14
  C 290.99 130.26 244.75 144.71 198.48 159.08
  C 194.54 160.31 189.91 162.28 186.75 163.26
  Q 167.81 169.14 146.79 175.44
  A 2.15 2.15 0.0 0 0 145.26 177.50
  Q 145.24 279.68 145.26 382.95
  C 145.26 403.14 146.62 423.27 148.42 443.38
  C 149.73 458.12 153.35 475.04 156.48 487.51
  C 162.38 510.97 171.84 535.09 184.71 559.79
  C 188.28 566.65 192.42 577.04 197.58 584.94
  Q 212.62 607.96 231.86 629.40
  C 240.03 638.52 251.91 649.28 262.68 659.49
  Z"
/>
<path fill="#ff453b" d="
  M 304.67 631.83
  C 293.07 622.94 277.07 609.45 266.84 596.16
  Q 258.82 585.75 258.77 585.68
  Q 225.29 544.54 208.15 494.32
  C 205.56 486.71 203.22 477.40 200.91 468.85
  Q 199.43 463.39 198.60 458.52
  Q 193.24 426.88 193.26 400.94
  Q 193.33 312.29 193.13 223.64
  C 193.11 212.26 200.22 208.64 210.03 205.91
  C 214.71 204.61 219.23 203.10 223.97 201.95
  C 225.89 201.49 227.69 200.40 229.46 199.91
  Q 249.36 194.38 268.86 187.61
  C 272.97 186.19 279.40 184.90 284.46 182.39
  C 285.71 181.77 287.30 182.00 288.58 181.57
  C 300.56 177.57 313.85 173.88 324.75 170.33
  Q 365.82 156.93 396.00 148.01
  C 404.62 145.47 414.56 140.75 422.75 143.25
  C 441.44 148.98 460.13 154.57 478.76 160.59
  C 505.60 169.25 532.69 177.15 559.49 185.90
  Q 590.71 196.08 622.31 205.06
  C 631.72 207.73 641.00 211.79 641.00 222.64
  C 641.00 284.78 641.37 346.95 640.63 409.09
  C 640.44 424.60 638.11 440.10 636.23 455.50
  Q 635.56 461.08 628.86 484.26
  Q 620.05 514.77 605.70 540.68
  C 603.78 544.14 600.55 546.55 596.47 547.08
  C 583.32 548.79 574.16 537.96 580.71 525.53
  C 596.47 495.61 607.39 462.70 609.72 429.28
  C 610.34 420.26 610.97 411.32 610.98 402.15
  Q 611.03 317.24 610.99 232.61
  A 1.42 1.42 0.0 0 0 609.85 231.22
  C 601.93 229.61 592.86 226.36 586.74 224.54
  Q 578.44 222.08 565.80 217.72
  Q 549.17 211.99 493.83 195.68
  Q 492.39 195.26 489.98 193.75
  C 486.89 191.83 483.65 192.23 480.83 191.19
  C 478.70 190.40 476.73 189.47 474.58 188.85
  Q 445.80 180.48 417.22 171.42
  A 1.39 1.37 42.1 0 0 416.28 171.46
  Q 412.51 172.97 402.50 176.02
  Q 384.50 181.49 366.49 186.98
  Q 356.95 189.88 352.83 191.45
  C 351.07 192.12 348.04 191.81 347.05 192.31
  Q 340.61 195.58 333.68 197.66
  C 309.41 204.96 285.06 212.13 261.06 220.28
  Q 242.54 226.57 223.97 231.48
  A 1.31 1.30 82.5 0 0 223.01 232.74
  Q 222.98 316.66 223.01 400.50
  Q 223.02 422.71 226.22 448.03
  C 226.71 451.86 228.05 456.36 229.02 461.00
  Q 234.36 486.57 246.38 511.98
  C 250.78 521.28 257.70 533.36 263.40 544.07
  Q 267.72 552.20 271.87 557.97
  Q 287.93 580.31 306.23 596.28
  C 316.07 604.88 329.58 614.03 342.87 625.01
  C 346.17 627.74 351.43 629.89 354.04 631.34
  Q 377.46 644.41 405.51 653.21
  C 408.21 654.06 410.55 654.31 412.95 655.34
  C 419.92 658.35 420.92 653.33 426.45 654.18
  A 1.61 1.57 -53.1 0 0 427.41 654.03
  Q 433.29 651.08 439.73 649.92
  Q 440.49 649.79 441.00 649.27
  Q 441.34 648.92 441.81 648.76
  Q 462.28 641.55 481.00 630.61
  Q 481.12 630.54 486.07 628.15
  C 489.84 626.34 491.18 623.26 494.48 621.25
  C 499.10 618.44 507.45 611.31 513.00 611.81
  Q 525.25 612.91 527.54 624.96
  C 529.84 637.10 502.06 649.72 493.62 655.89
  Q 489.70 658.77 488.28 659.51
  Q 461.87 673.34 433.32 681.92
  C 431.13 682.58 428.34 682.90 425.90 683.77
  C 423.09 684.78 417.91 686.48 415.15 685.85
  Q 410.66 684.82 406.49 682.90
  A 1.79 1.73 -35.8 0 0 405.52 682.76
  C 402.46 683.14 400.79 681.86 398.39 681.09
  Q 374.87 673.54 367.18 669.81
  C 358.43 665.58 351.87 662.55 344.31 658.66
  C 342.36 657.65 340.74 655.92 338.89 654.78
  Q 317.31 641.52 304.67 631.83
  Z"
/>
<path fill="#ff453b" d="
  M 294.15 424.50
  C 286.46 416.88 280.67 410.27 290.42 400.48
  Q 315.17 375.61 340.95 351.04
  A 3.85 3.84 23.3 0 1 343.59 349.99
  L 349.76 350.00
  A 1.56 1.55 -27.4 0 1 350.65 350.28
  Q 356.06 353.96 360.75 358.50
  Q 376.06 373.32 392.03 388.90
  A 0.61 0.61 0.0 0 0 392.87 388.90
  Q 402.03 380.09 410.93 371.04
  C 414.52 367.39 418.09 362.11 421.29 359.04
  Q 449.56 331.90 477.59 304.51
  C 482.63 299.58 489.32 297.29 495.06 302.94
  Q 519.70 327.18 544.55 351.21
  C 550.31 356.78 549.60 365.79 543.99 371.49
  Q 536.60 379.03 495.48 418.67
  C 492.18 421.86 490.35 425.89 487.12 429.07
  C 465.57 450.23 443.36 470.84 422.09 492.26
  C 415.71 498.68 410.33 506.58 402.80 512.84
  C 397.57 517.20 388.71 518.55 383.36 513.39
  Q 363.52 494.24 344.00 474.77
  C 341.17 471.94 338.63 467.94 335.67 465.08
  Q 314.76 444.94 294.15 424.50
  Z
  M 347.44 438.06
  Q 369.83 459.83 392.13 481.67
  A 0.52 0.52 0.0 0 0 392.85 481.69
  C 405.25 470.62 416.24 457.52 427.46 446.57
  Q 456.46 418.27 485.40 389.90
  Q 488.47 386.90 490.70 384.14
  C 497.31 376.00 505.13 368.82 512.88 361.72
  A 0.47 0.47 0.0 0 0 512.89 361.03
  Q 503.55 352.03 494.29 342.95
  C 491.98 340.69 490.58 337.66 488.36 335.11
  A 0.46 0.46 0.0 0 0 487.68 335.09
  Q 481.84 341.16 472.03 350.53
  Q 451.78 369.87 420.74 400.35
  C 413.73 407.23 406.66 419.42 397.46 422.98
  C 393.35 424.58 386.88 423.69 383.27 420.23
  Q 364.94 402.69 347.00 384.63
  A 1.43 1.43 0.0 0 0 344.85 384.77
  C 341.47 389.24 338.34 393.63 334.15 397.58
  Q 327.76 403.60 321.50 409.88
  A 0.51 0.50 -45.4 0 0 321.50 410.59
  Q 327.01 416.02 332.46 421.34
  C 337.55 426.31 342.09 432.87 347.44 438.06
  Z"
/>
<path fill="#ff453b" d="
  M 553.74 597.55
  C 540.04 594.90 541.63 568.54 561.31 570.70
  C 566.53 571.28 569.55 575.59 571.25 580.24
  Q 573.64 586.80 568.58 593.43
  C 564.60 598.65 559.84 598.72 553.74 597.55
  Z"
/>
</svg>
