<?xml version="1.0" encoding="UTF-8" standalone="no"?>
<!DOCTYPE svg PUBLIC "-//W3C//DTD SVG 1.1//EN" "http://www.w3.org/Graphics/SVG/1.1/DTD/svg11.dtd">
<svg xmlns="http://www.w3.org/2000/svg" version="1.1" viewBox="0 0 832 832">
<path fill="#ff453b" d="
  M 533.59 725.03
  C 527.99 728.81 521.05 730.14 514.72 732.25
  C 511.16 733.44 505.92 734.31 501.64 737.00
  A 1.70 1.66 29.1 0 1 500.72 737.25
  C 499.44 737.23 498.41 737.19 497.13 737.50
  C 475.87 742.65 453.68 746.49 431.75 746.50
  C 410.78 746.51 389.31 747.45 368.63 743.58
  C 361.30 742.21 353.75 741.59 346.55 739.46
  C 340.82 737.76 335.98 737.87 331.35 736.04
  C 321.60 732.18 311.25 729.33 301.30 725.97
  C 298.31 724.96 295.54 723.25 292.74 722.30
  Q 281.38 718.43 274.07 714.42
  C 251.99 702.32 235.49 692.53 217.44 679.32
  C 207.54 672.07 198.85 662.45 189.69 654.13
  C 182.94 647.99 177.02 641.30 170.74 634.76
  C 160.98 624.59 153.57 614.92 145.80 601.97
  C 139.06 590.73 131.28 578.65 125.71 568.22
  Q 105.07 529.56 95.67 486.57
  C 95.53 485.92 94.71 484.99 94.57 484.09
  C 92.03 467.31 88.39 449.77 88.11 432.82
  C 87.86 418.02 87.10 402.39 89.26 387.74
  C 90.22 381.20 90.83 373.85 91.72 368.11
  Q 103.00 295.94 143.98 235.66
  C 146.36 232.15 151.45 223.99 151.46 219.80
  Q 151.62 153.72 151.37 88.92
  A 1.83 1.83 0.0 0 1 153.21 87.08
  L 216.18 87.31
  A 0.44 0.44 0.0 0 1 216.61 87.75
  L 216.45 128.67
  A 0.60 0.59 -0.5 0 0 217.06 129.26
  Q 234.87 128.72 252.37 129.15
  Q 255.81 129.24 258.49 128.21
  Q 263.91 126.12 268.61 122.72
  Q 271.62 120.54 274.23 119.41
  C 282.27 115.96 290.34 112.47 298.51 109.04
  C 305.92 105.94 318.45 102.90 331.55 97.78
  C 334.53 96.62 337.81 96.61 340.45 95.96
  C 372.75 87.97 402.51 86.45 435.45 87.49
  C 475.85 88.76 515.31 99.55 552.09 115.65
  Q 560.33 119.25 569.93 124.66
  C 587.41 134.50 603.20 143.57 618.47 155.67
  C 627.85 163.11 637.69 172.87 647.06 181.69
  C 661.43 195.20 675.49 210.11 685.81 226.99
  C 692.97 238.72 701.11 250.95 707.25 262.14
  C 716.31 278.68 723.63 294.78 729.05 311.26
  C 733.44 324.59 740.01 345.02 742.12 361.97
  Q 743.76 375.15 743.86 389.69
  C 744.05 418.69 744.54 442.40 743.02 464.76
  Q 742.55 471.79 741.23 478.14
  C 738.54 491.02 735.49 504.62 730.81 516.94
  C 728.52 522.96 728.45 528.47 724.25 533.27
  A 1.31 1.31 0.0 0 0 724.25 535.00
  C 726.21 537.23 727.93 539.15 729.36 541.81
  C 736.00 554.21 742.61 568.15 743.31 582.26
  Q 744.48 605.99 743.85 629.75
  C 743.24 652.89 730.05 676.67 715.22 695.80
  A 0.46 0.45 -49.1 0 1 714.55 695.85
  C 712.22 693.69 710.25 691.65 707.44 689.85
  Q 703.13 687.08 699.42 683.30
  Q 697.65 681.50 699.20 679.52
  Q 714.49 659.94 720.73 635.66
  C 724.04 622.77 723.50 608.14 722.82 594.75
  Q 722.47 587.83 720.77 581.56
  C 715.89 563.53 708.01 547.70 695.68 533.31
  C 691.15 528.01 683.62 519.65 676.95 514.79
  Q 658.01 500.99 634.96 495.37
  C 624.89 492.91 609.29 489.61 595.28 492.89
  C 592.86 493.45 590.25 492.81 588.05 493.63
  C 584.22 495.06 580.24 494.93 576.74 496.08
  C 570.98 497.97 566.09 499.50 560.47 502.51
  C 556.63 504.57 552.57 506.32 549.07 508.48
  C 538.15 515.22 528.25 522.92 519.64 532.62
  C 514.17 538.79 507.73 546.18 505.74 553.67
  Q 504.71 557.53 503.53 560.07
  Q 482.97 604.15 500.32 649.74
  C 501.73 653.44 504.84 657.85 505.70 662.80
  C 506.68 668.44 511.66 674.66 515.23 679.02
  Q 538.37 707.24 572.76 719.73
  C 581.15 722.78 593.10 724.31 605.91 724.46
  C 631.63 724.76 655.14 717.52 676.26 702.71
  Q 679.75 700.26 682.88 697.31
  A 0.42 0.42 0.0 0 1 683.47 697.32
  L 696.37 711.02
  Q 698.31 713.08 696.12 714.89
  C 692.81 717.62 689.18 719.62 685.95 722.47
  Q 679.25 728.39 672.42 731.42
  C 663.32 735.46 657.91 738.30 645.60 741.92
  C 624.97 747.97 601.78 748.49 580.31 744.53
  C 568.47 742.34 556.75 737.36 545.45 732.03
  Q 539.22 729.10 534.38 725.07
  A 0.65 0.65 0.0 0 0 533.59 725.03
  Z
  M 179.56 109.47
  C 178.47 109.44 176.95 109.12 175.57 109.26
  A 0.64 0.63 1.1 0 0 175.00 109.80
  C 174.64 112.28 175.00 115.37 175.00 117.06
  Q 175.00 228.76 175.00 341.70
  A 1.09 1.09 0.0 0 0 176.15 342.79
  Q 181.48 342.48 187.32 342.50
  C 188.95 342.51 191.71 343.00 194.03 342.61
  A 0.73 0.73 0.0 0 0 194.62 342.02
  C 194.98 339.96 194.50 337.23 194.50 335.83
  Q 194.50 226.13 194.50 116.44
  C 194.50 114.54 194.90 112.47 194.51 109.93
  A 0.86 0.85 83.5 0 0 193.60 109.20
  Q 186.75 109.65 179.56 109.47
  Z
  M 300.76 171.74
  Q 301.25 174.72 301.25 177.75
  Q 301.24 196.22 301.26 214.54
  A 0.45 0.44 0.7 0 0 301.70 214.98
  C 313.32 215.08 324.92 214.73 336.51 214.85
  Q 339.22 214.87 342.05 214.50
  A 1.07 1.06 -3.6 0 1 343.25 215.55
  L 343.25 256.22
  A 0.59 0.59 0.0 0 0 343.84 256.81
  L 385.52 256.72
  A 0.49 0.49 0.0 0 1 386.01 257.21
  L 386.00 363.69
  A 0.31 0.31 0.0 0 1 385.69 364.00
  L 152.47 364.00
  A 0.64 0.63 -4.2 0 1 151.84 363.46
  Q 151.19 359.32 151.32 355.16
  C 152.13 329.77 151.51 304.09 151.50 278.67
  C 151.50 275.00 152.14 269.54 151.71 264.92
  A 0.46 0.45 81.5 0 0 151.17 264.51
  Q 150.89 264.56 150.79 264.80
  Q 147.97 271.71 139.06 290.31
  Q 123.67 322.47 116.74 359.40
  C 113.57 376.27 111.42 389.32 112.52 405.02
  A 0.51 0.51 0.0 0 0 113.03 405.50
  L 405.50 405.50
  A 0.76 0.75 0.0 0 0 406.26 404.75
  L 406.25 110.50
  A 0.48 0.48 0.0 0 0 405.78 110.02
  C 388.61 109.72 371.37 112.61 354.51 115.64
  C 346.24 117.12 338.23 120.02 329.99 121.52
  C 327.07 122.05 323.74 124.88 319.70 125.54
  C 315.87 126.17 311.86 128.31 309.31 129.25
  C 297.72 133.53 286.80 138.66 275.59 143.79
  C 270.45 146.14 265.98 149.94 261.11 152.93
  Q 258.97 154.25 258.97 156.77
  L 259.02 170.61
  A 0.64 0.64 0.0 0 0 259.66 171.25
  L 300.18 171.25
  A 0.59 0.58 -4.6 0 1 300.76 171.74
  Z
  M 428.45 188.32
  C 428.44 190.68 427.86 194.59 428.30 197.81
  Q 428.37 198.30 428.75 197.97
  Q 442.03 186.00 445.34 181.59
  Q 449.36 176.22 456.76 169.00
  Q 480.87 145.48 505.18 122.28
  Q 505.68 121.80 505.01 121.61
  C 501.40 120.58 498.85 119.98 494.17 118.62
  C 491.42 117.82 488.68 117.86 486.10 117.07
  Q 480.08 115.24 475.07 114.43
  C 461.52 112.25 444.54 109.52 429.14 110.08
  A 0.68 0.68 0.0 0 0 428.48 110.76
  Q 428.56 149.42 428.45 188.32
  Z
  M 549.76 268.73
  C 558.80 259.97 567.49 249.43 575.57 241.49
  C 592.40 224.94 610.18 208.88 626.21 191.59
  A 0.44 0.44 0.0 0 0 626.16 190.95
  C 619.00 185.26 612.24 178.87 605.08 173.64
  Q 598.10 168.53 591.20 163.34
  A 0.57 0.57 0.0 0 0 590.46 163.39
  L 571.20 182.05
  Q 568.84 184.33 567.13 181.54
  Q 562.91 174.67 556.88 169.31
  Q 554.84 167.50 556.79 165.58
  Q 558.96 163.46 561.30 161.07
  C 564.18 158.12 566.38 154.09 569.47 150.82
  A 0.42 0.42 0.0 0 0 569.40 150.18
  C 557.61 142.26 542.69 135.54 528.66 130.52
  A 1.33 1.33 0.0 0 0 527.26 130.84
  Q 519.81 138.44 512.04 145.95
  C 508.08 149.77 504.51 154.79 500.99 158.24
  Q 475.77 183.02 450.50 207.75
  C 447.59 210.61 445.28 214.45 442.33 217.29
  Q 435.56 223.79 429.55 229.91
  A 3.63 3.62 -22.7 0 0 428.50 232.46
  L 428.41 293.48
  Q 428.41 294.02 428.82 293.67
  Q 438.13 285.76 445.65 276.90
  Q 451.22 270.34 454.73 266.91
  Q 477.40 244.69 500.13 222.53
  C 503.76 218.99 507.00 213.68 509.91 210.89
  Q 525.51 195.99 540.72 180.56
  A 0.56 0.56 0.0 0 1 541.51 180.55
  L 556.56 195.17
  Q 557.96 196.53 556.57 197.89
  Q 534.02 220.01 511.66 241.74
  C 507.77 245.53 504.22 250.46 500.45 254.19
  Q 492.24 262.33 451.77 301.84
  Q 449.35 304.21 446.69 307.58
  C 441.59 314.05 435.07 319.59 429.27 325.47
  A 2.70 2.70 0.0 0 0 428.49 327.37
  L 428.43 389.76
  Q 428.43 390.38 428.89 389.97
  Q 436.85 382.81 444.22 375.11
  C 446.69 372.53 448.32 369.48 450.92 366.97
  Q 476.21 342.58 501.11 317.79
  C 504.45 314.45 507.38 309.82 510.68 306.68
  C 523.86 294.18 536.72 281.36 549.76 268.73
  Z
  M 237.00 152.60
  A 0.63 0.63 0.0 0 0 236.37 151.97
  L 217.13 151.97
  A 0.63 0.63 0.0 0 0 216.50 152.60
  L 216.50 341.92
  A 0.63 0.63 0.0 0 0 217.13 342.55
  L 236.37 342.55
  A 0.63 0.63 0.0 0 0 237.00 341.92
  L 237.00 152.60
  Z
  M 278.75 194.62
  A 0.68 0.68 0.0 0 0 278.07 193.94
  L 259.69 193.94
  A 0.68 0.68 0.0 0 0 259.01 194.62
  L 259.01 341.90
  A 0.68 0.68 0.0 0 0 259.69 342.58
  L 278.07 342.58
  A 0.68 0.68 0.0 0 0 278.75 341.90
  L 278.75 194.62
  Z
  M 510.04 403.08
  C 519.32 394.58 527.13 386.29 537.29 377.00
  A 0.50 0.50 0.0 0 1 537.99 377.03
  Q 544.51 384.30 551.80 390.87
  Q 553.24 392.16 551.85 393.51
  L 540.73 404.25
  Q 539.38 405.57 541.27 405.56
  L 603.26 405.47
  A 1.22 1.21 -65.9 0 0 604.08 405.15
  Q 614.25 395.92 623.49 385.79
  C 640.65 366.99 659.59 349.62 677.68 331.70
  Q 680.93 328.48 686.00 322.52
  C 691.37 316.19 697.73 311.29 702.56 305.44
  A 0.73 0.72 -40.6 0 0 702.63 304.62
  Q 700.26 300.51 698.35 296.17
  Q 693.13 284.33 686.92 272.96
  C 685.20 269.82 684.44 266.90 683.57 263.65
  A 1.04 1.04 0.0 0 0 681.84 263.18
  Q 656.83 287.66 632.48 311.39
  C 627.43 316.31 622.23 323.02 616.43 328.68
  Q 591.67 352.80 566.94 377.09
  A 0.48 0.48 0.0 0 1 566.21 377.01
  Q 560.90 369.07 553.42 363.05
  A 1.53 1.53 0.0 0 1 553.40 360.69
  C 560.18 354.98 565.44 347.56 571.31 341.84
  Q 610.04 304.12 619.72 294.47
  C 623.63 290.58 627.66 285.12 631.89 280.96
  Q 650.86 262.28 669.97 243.66
  A 0.90 0.89 -40.4 0 0 670.07 242.48
  Q 656.68 224.37 641.64 207.61
  A 0.51 0.51 0.0 0 0 640.92 207.57
  C 632.17 215.59 624.05 225.65 616.54 233.08
  Q 593.04 256.31 574.82 273.83
  C 566.74 281.59 559.50 290.54 551.89 297.89
  Q 532.54 316.58 513.44 335.53
  C 506.66 342.25 498.94 351.35 491.16 358.84
  C 476.50 372.95 462.05 387.27 447.41 401.40
  Q 445.64 403.11 446.75 405.17
  A 0.87 0.85 -13.7 0 0 447.51 405.62
  Q 475.38 405.39 503.26 405.54
  C 507.97 405.56 506.68 406.17 510.04 403.08
  Z
  M 322.23 237.17
  A 0.37 0.37 0.0 0 0 321.86 236.80
  L 301.62 236.80
  A 0.37 0.37 0.0 0 0 301.25 237.17
  L 301.25 342.13
  A 0.37 0.37 0.0 0 0 301.62 342.50
  L 321.86 342.50
  A 0.37 0.37 0.0 0 0 322.23 342.13
  L 322.23 237.17
  Z
  M 363.8438 280.3280
  A 0.56 0.56 0.0 0 0 363.2847 279.7670
  L 343.8648 279.7331
  A 0.56 0.56 0.0 0 0 343.3038 280.2921
  L 343.1962 341.9120
  A 0.56 0.56 0.0 0 0 343.7553 342.4730
  L 363.1752 342.5069
  A 0.56 0.56 0.0 0 0 363.7362 341.9479
  L 363.8438 280.3280
  Z
  M 709.29 329.63
  C 707.20 331.63 705.44 334.02 703.74 335.62
  C 689.73 348.84 682.99 357.32 670.12 370.12
  Q 652.73 387.43 635.00 404.40
  A 0.67 0.65 -17.4 0 0 634.82 404.73
  L 634.77 404.98
  A 0.48 0.47 -83.6 0 0 635.23 405.56
  L 722.04 405.47
  A 0.57 0.57 0.0 0 0 722.61 404.93
  C 723.64 383.60 719.47 365.16 714.78 343.26
  C 713.71 338.27 712.10 334.04 709.93 329.74
  A 0.41 0.41 0.0 0 0 709.29 329.63
  Z
  M 262.73 682.24
  C 282.75 694.93 305.16 704.01 327.27 711.20
  Q 350.24 718.67 374.69 721.68
  C 387.68 723.28 395.29 724.40 405.75 723.80
  A 0.53 0.52 88.3 0 0 406.24 723.27
  L 406.27 429.01
  A 0.51 0.51 0.0 0 0 405.76 428.50
  L 112.72 428.50
  A 0.56 0.56 0.0 0 0 112.16 429.05
  C 111.43 450.89 115.00 469.83 120.31 491.26
  C 123.57 504.41 127.83 517.57 132.82 529.43
  C 137.17 539.80 143.51 552.52 148.82 565.11
  Q 150.77 569.74 153.75 574.52
  Q 175.40 609.23 203.81 636.69
  C 207.18 639.94 208.99 643.74 212.85 646.73
  Q 219.14 651.62 225.20 656.80
  C 235.13 665.29 250.37 674.41 262.73 682.24
  Z
  M 429.21 723.81
  C 443.59 724.15 457.29 722.06 474.60 719.59
  C 480.37 718.77 484.86 716.51 489.85 716.03
  C 496.85 715.36 504.54 712.08 511.32 709.95
  A 0.57 0.56 -28.9 0 0 511.59 709.04
  C 506.41 702.98 502.54 696.96 497.19 690.06
  Q 485.24 674.62 478.26 655.25
  C 477.30 652.58 475.71 650.19 474.97 647.11
  C 467.77 617.38 467.55 585.90 479.76 557.45
  Q 482.24 551.67 486.11 543.91
  C 490.84 534.44 496.81 527.24 502.70 519.26
  C 519.62 496.34 548.67 480.13 576.02 473.33
  C 608.10 465.36 643.32 470.74 672.44 485.74
  C 685.28 492.36 696.85 502.89 707.21 513.11
  A 0.65 0.65 0.0 0 0 708.28 512.87
  Q 709.50 509.50 710.32 506.04
  C 711.66 500.38 713.98 495.28 715.14 489.58
  C 717.55 477.77 720.16 465.79 721.75 453.85
  C 722.99 444.58 722.51 437.48 722.99 429.24
  A 0.70 0.69 1.9 0 0 722.29 428.50
  L 429.03 428.50
  A 0.57 0.56 4.8 0 0 428.47 428.97
  C 428.05 431.54 428.50 434.94 428.50 436.72
  Q 428.49 580.08 428.50 723.09
  A 0.73 0.72 0.8 0 0 429.21 723.81
  Z"
/>
<path fill="#ff453b" d="
  M 268.21 476.91
  C 274.10 482.77 278.41 489.86 279.19 498.24
  C 280.54 512.70 274.44 520.08 265.65 530.20
  A 1.42 1.41 -74.8 0 1 264.82 530.68
  C 258.31 531.88 252.55 536.37 245.23 534.73
  C 233.55 532.11 223.74 526.91 218.55 515.95
  C 215.36 509.21 214.81 497.23 217.67 490.15
  C 222.08 479.20 233.07 470.81 244.97 469.90
  C 253.70 469.23 261.80 470.53 268.21 476.91
  Z
  M 237.28 503.18
  C 239.87 509.50 246.66 515.32 253.66 510.35
  C 263.52 503.34 257.87 494.18 248.71 491.29
  A 1.52 1.52 0.0 0 0 247.75 491.29
  Q 239.54 493.91 237.22 502.22
  A 1.44 1.44 0.0 0 0 237.28 503.18
  Z"
/>
<path fill="#ff453b" d="
  M 219.67 599.51
  C 233.62 584.71 248.98 570.63 263.63 556.49
  C 266.37 553.83 268.63 550.16 271.14 547.64
  Q 286.10 532.68 318.94 500.86
  Q 322.68 497.25 328.70 490.34
  Q 336.21 481.73 345.12 474.10
  Q 346.55 472.87 347.91 474.18
  L 361.79 487.63
  A 0.50 0.50 0.0 0 1 361.79 488.35
  Q 346.22 503.57 330.91 518.94
  C 328.21 521.65 326.10 524.86 323.43 527.49
  Q 298.71 551.95 273.83 576.23
  C 270.19 579.78 267.19 584.54 263.48 588.23
  Q 249.86 601.79 235.46 615.57
  A 1.69 1.69 0.0 0 1 233.10 615.55
  L 219.73 602.38
  Q 218.29 600.97 219.67 599.51
  Z"
/>
<path fill="#ff453b" d="
  M 597.28 682.84
  C 592.76 680.43 587.38 678.26 583.64 675.87
  C 571.38 668.05 563.90 655.35 564.92 640.37
  A 0.48 0.47 1.3 0 1 565.39 639.93
  L 585.63 639.83
  A 1.20 1.20 0.0 0 1 586.83 640.96
  Q 586.92 642.41 587.08 644.10
  C 587.65 650.06 594.99 656.75 599.86 659.39
  C 608.29 663.96 624.87 659.27 626.02 648.74
  Q 626.49 644.42 627.75 640.23
  A 1.37 1.34 -49.4 0 0 627.69 639.30
  Q 626.46 636.52 626.15 633.58
  C 625.21 624.42 615.08 618.94 606.46 619.00
  C 603.64 619.02 600.93 619.20 598.21 618.54
  C 585.03 615.33 573.37 605.91 567.63 593.24
  C 563.79 584.75 563.27 569.12 567.25 560.49
  C 573.86 546.19 581.90 540.83 596.19 535.34
  A 1.76 1.75 79.6 0 0 597.32 533.70
  L 597.30 512.59
  A 0.61 0.60 -0.0 0 1 597.91 511.99
  L 617.27 512.03
  Q 619.33 512.03 619.30 514.08
  L 619.08 533.61
  A 0.81 0.79 14.6 0 0 619.50 534.31
  Q 629.31 539.58 632.90 542.35
  C 642.04 549.39 652.17 563.61 650.08 575.91
  A 1.36 1.35 5.5 0 1 648.72 577.03
  Q 640.96 576.85 632.78 577.18
  C 625.77 577.46 626.42 571.94 625.96 567.01
  C 625.44 561.42 619.46 559.10 615.14 557.04
  C 612.01 555.55 605.46 555.43 602.26 556.65
  Q 592.24 560.44 587.99 570.20
  C 583.50 580.52 591.67 594.14 602.37 596.16
  Q 608.24 597.28 614.16 597.90
  Q 618.65 598.37 621.69 599.64
  Q 642.31 608.28 649.20 629.61
  C 650.96 635.05 651.01 646.12 649.16 651.60
  C 643.75 667.66 633.57 674.74 619.47 682.77
  A 0.77 0.77 0.0 0 0 619.08 683.44
  L 619.31 703.44
  A 1.25 1.25 0.0 0 1 618.06 704.71
  L 597.96 704.76
  A 0.64 0.64 0.0 0 1 597.32 704.15
  Q 596.96 693.82 597.66 683.52
  A 0.72 0.72 0.0 0 0 597.28 682.84
  Z"
/>
<path fill="#ff453b" d="
  M 323.75 618.09
  C 309.33 612.81 299.86 601.21 301.01 585.27
  C 301.99 571.83 309.57 562.16 322.07 557.19
  Q 325.32 555.90 328.61 554.75
  C 333.29 553.11 335.75 554.94 340.06 555.94
  Q 355.40 559.50 362.12 573.92
  C 370.63 592.19 360.51 611.35 342.15 618.00
  C 337.86 619.56 328.14 619.70 323.75 618.09
  Z
  M 332.2757 596.8655
  A 9.88 9.26 93.1 0 0 342.0564 587.5008
  A 9.88 9.26 93.1 0 0 333.3443 577.1345
  A 9.88 9.26 93.1 0 0 323.5636 586.4992
  A 9.88 9.26 93.1 0 0 332.2757 596.8655
  Z"
/>
<rect fill="#ff453b" x="-11.31" y="-10.97" transform="translate(522.45,608.14) rotate(-0.1)" width="22.62" height="21.94" rx="1.45"/>
<rect fill="#ff453b" x="-10.53" y="-10.90" transform="translate(692.55,608.16) rotate(-0.4)" width="21.06" height="21.80" rx="0.96"/>
</svg>
