<?xml version="1.0" encoding="UTF-8" standalone="no"?>
<!DOCTYPE svg PUBLIC "-//W3C//DTD SVG 1.1//EN" "http://www.w3.org/Graphics/SVG/1.1/DTD/svg11.dtd">
<svg xmlns="http://www.w3.org/2000/svg" version="1.1" viewBox="0 0 1448 1448">
<path fill="#ffffff" d="
  M 883.02 1162.22
  C 904.62 1197.69 940.49 1227.73 979.13 1245.46
  C 992.60 1251.65 1005.66 1255.23 1020.27 1258.19
  C 1032.21 1260.61 1043.68 1260.47 1055.43 1260.61
  Q 1119.88 1261.42 1172.94 1225.69
  Q 1177.86 1222.38 1188.80 1213.91
  Q 1189.32 1213.50 1189.78 1213.99
  L 1212.95 1238.59
  A 2.59 2.57 35.3 0 1 1213.44 1241.40
  C 1211.79 1245.14 1203.44 1250.14 1200.00 1252.62
  C 1194.60 1256.52 1188.55 1262.27 1182.56 1265.80
  C 1148.84 1285.68 1108.80 1298.82 1068.75 1299.58
  C 1041.19 1300.10 1016.20 1299.05 989.76 1290.49
  C 968.99 1283.77 947.49 1274.99 929.91 1262.10
  A 1.03 1.02 49.7 0 0 928.86 1262.01
  C 913.56 1269.61 896.99 1274.06 880.77 1279.19
  Q 870.62 1282.41 861.50 1284.50
  Q 824.34 1293.05 786.44 1297.40
  Q 770.49 1299.24 754.44 1299.35
  C 721.71 1299.58 700.47 1300.04 677.57 1298.41
  C 649.76 1296.43 616.90 1290.12 586.56 1283.22
  C 569.43 1279.32 552.50 1272.81 535.80 1267.27
  C 524.09 1263.38 512.10 1258.09 500.16 1253.59
  C 491.36 1250.28 483.48 1246.60 475.26 1242.80
  C 470.27 1240.48 465.73 1236.63 461.41 1234.31
  C 426.76 1215.70 391.81 1195.36 363.68 1169.83
  Q 355.88 1162.74 329.02 1136.99
  C 303.47 1112.49 276.06 1085.48 257.99 1054.83
  C 247.54 1037.10 236.43 1019.71 226.26 1001.83
  C 192.35 942.23 168.91 875.94 159.33 807.86
  C 156.51 787.88 153.77 768.02 153.42 747.81
  Q 152.90 718.41 153.87 689.03
  C 154.22 678.39 156.19 667.62 157.71 655.49
  Q 174.77 519.05 254.03 405.25
  C 259.10 397.97 263.79 386.79 263.78 377.24
  Q 263.72 276.70 263.76 176.19
  C 263.76 170.65 262.93 160.43 263.75 152.42
  A 0.75 0.75 0.0 0 1 264.50 151.75
  Q 316.41 151.75 368.25 151.78
  Q 372.38 151.78 376.51 152.10
  Q 377.08 152.15 377.07 152.72
  Q 376.82 187.26 376.69 221.74
  C 376.68 224.23 378.04 224.94 380.38 224.91
  Q 406.85 224.60 433.30 224.77
  Q 441.23 224.82 445.13 224.03
  C 457.24 221.58 464.95 213.49 475.66 208.61
  C 530.74 183.52 590.77 163.51 651.20 155.95
  C 710.51 148.53 771.18 149.44 830.01 160.71
  Q 858.58 166.18 865.75 167.75
  C 873.50 169.45 882.66 173.11 889.86 175.26
  C 904.11 179.53 918.52 183.75 932.30 189.36
  Q 956.50 199.22 980.22 210.17
  C 982.13 211.05 983.51 212.98 985.35 213.92
  C 1025.65 234.42 1063.11 258.17 1096.24 288.57
  C 1124.54 314.53 1151.46 340.60 1175.70 369.05
  C 1182.92 377.52 1189.07 387.92 1195.17 398.08
  C 1206.08 416.29 1218.34 433.69 1228.61 452.29
  Q 1270.15 527.55 1287.97 610.76
  Q 1295.35 645.26 1294.97 681.74
  C 1294.64 713.02 1294.60 744.34 1294.60 775.62
  C 1294.59 804.32 1290.90 832.47 1283.46 860.17
  Q 1275.67 889.20 1266.02 917.67
  Q 1263.96 923.75 1260.35 928.66
  A 1.82 1.82 0.0 0 0 1260.44 930.93
  C 1262.73 933.56 1264.97 936.00 1266.70 939.05
  C 1281.77 965.65 1293.62 992.52 1294.48 1024.06
  C 1295.22 1051.45 1295.59 1078.58 1293.65 1105.94
  C 1291.46 1136.95 1274.62 1168.38 1257.12 1193.42
  Q 1250.80 1202.47 1244.52 1211.57
  Q 1244.21 1212.02 1243.82 1211.64
  C 1239.61 1207.62 1235.92 1203.96 1230.91 1200.36
  Q 1225.08 1196.18 1218.17 1190.09
  C 1214.06 1186.47 1215.73 1183.94 1218.62 1180.17
  C 1242.64 1148.83 1258.28 1108.60 1258.95 1069.44
  Q 1259.23 1052.95 1257.40 1027.31
  Q 1257.20 1024.48 1255.14 1015.77
  Q 1243.76 967.60 1211.89 929.85
  C 1199.55 915.24 1185.82 900.20 1169.15 889.46
  Q 1137.04 868.75 1098.92 861.10
  C 1084.00 858.10 1070.22 854.88 1056.03 855.12
  Q 1049.49 855.23 1036.60 857.39
  C 1028.02 858.82 1018.49 860.03 1010.85 861.84
  C 960.64 873.70 915.14 908.18 886.36 949.84
  C 882.47 955.47 880.84 962.09 878.53 968.46
  Q 877.12 972.38 874.02 979.78
  C 852.59 1031.00 851.44 1085.26 873.25 1136.50
  C 874.95 1140.48 878.83 1144.99 879.22 1149.26
  Q 879.94 1157.16 883.02 1162.22
  Z
  M 338.50 191.30
  A 0.89 0.89 0.0 0 0 337.61 190.41
  L 305.39 190.41
  A 0.89 0.89 0.0 0 0 304.50 191.30
  L 304.50 595.36
  A 0.89 0.89 0.0 0 0 305.39 596.25
  L 337.61 596.25
  A 0.89 0.89 0.0 0 0 338.50 595.36
  L 338.50 191.30
  Z
  M 451.72 297.91
  Q 486.06 298.18 520.13 297.95
  C 521.47 297.94 523.08 297.64 523.50 299.23
  C 524.23 302.02 524.24 306.92 524.14 310.60
  Q 523.35 341.30 523.98 372.09
  A 2.29 2.28 -0.8 0 0 526.29 374.33
  Q 560.25 374.01 594.25 373.97
  C 597.72 373.97 597.19 376.34 597.20 378.78
  Q 597.33 412.29 597.57 445.86
  A 0.94 0.93 86.2 0 0 598.62 446.78
  C 600.40 446.57 602.25 447.02 603.79 447.00
  Q 634.91 446.58 666.03 446.79
  C 669.06 446.82 671.74 446.46 671.74 450.06
  Q 671.76 541.59 671.75 633.03
  A 0.48 0.47 0.0 0 1 671.27 633.50
  L 264.54 633.50
  A 0.78 0.78 0.0 0 1 263.76 632.72
  Q 263.74 557.34 263.76 481.82
  C 263.77 476.02 264.45 469.21 264.45 462.79
  A 1.56 0.97 9.5 0 0 263.23 461.72
  C 261.51 461.32 238.82 513.75 236.55 518.92
  Q 210.61 577.89 200.30 641.38
  C 196.91 662.20 194.68 682.67 195.19 703.75
  A 2.05 2.05 0.0 0 0 197.24 705.75
  L 705.41 705.75
  A 1.59 1.59 0.0 0 0 707.00 704.16
  L 707.00 192.25
  Q 707.00 191.76 706.51 191.73
  Q 692.63 190.89 684.93 191.61
  Q 628.31 196.93 573.53 212.14
  C 566.71 214.03 560.93 217.75 553.67 219.41
  Q 548.61 220.57 545.56 221.80
  C 515.65 233.89 484.17 245.26 457.76 264.24
  C 453.36 267.40 450.71 268.87 450.70 273.99
  Q 450.70 285.50 450.79 296.98
  A 0.93 0.93 0.0 0 0 451.72 297.91
  Z
  M 745.59 191.92
  C 745.28 198.77 745.74 207.66 745.74 212.39
  C 745.77 256.14 745.56 299.85 745.23 343.59
  A 0.82 0.81 72.0 0 0 746.53 344.26
  Q 746.91 343.98 747.60 343.34
  Q 758.71 332.91 769.60 322.26
  C 776.31 315.70 781.02 307.72 787.81 301.08
  Q 832.61 257.20 878.36 213.80
  A 1.31 1.22 45.9 0 0 878.33 211.99
  Q 877.87 211.52 876.76 211.21
  Q 826.69 197.37 775.01 192.17
  Q 760.39 190.69 745.92 191.58
  A 0.35 0.35 0.0 0 0 745.59 191.92
  Z
  M 805.81 450.31
  Q 838.75 418.25 871.57 386.07
  C 878.95 378.83 884.53 370.20 892.01 362.87
  Q 916.88 338.49 941.48 314.22
  A 0.76 0.76 0.0 0 1 942.54 314.22
  L 969.44 340.46
  A 2.07 2.06 -47.8 0 1 969.57 343.27
  Q 968.74 344.25 967.36 345.60
  Q 933.84 378.27 900.44 411.06
  C 884.48 426.73 869.81 443.59 853.82 459.20
  Q 822.47 489.81 791.16 520.46
  Q 784.93 526.57 778.74 533.88
  C 767.88 546.71 757.58 556.40 746.32 567.18
  Q 745.95 567.53 745.88 568.04
  C 745.20 572.39 745.71 577.43 745.72 580.80
  Q 745.87 628.37 745.59 676.20
  Q 745.57 680.10 748.37 677.38
  Q 758.23 667.80 768.99 657.18
  C 775.70 650.55 781.46 641.77 787.85 635.61
  Q 826.54 598.28 864.72 560.43
  C 876.81 548.45 887.66 535.29 899.79 523.39
  C 923.57 500.05 947.50 476.90 970.99 453.27
  C 979.48 444.74 988.15 433.50 996.80 425.06
  Q 1034.88 387.88 1073.11 350.86
  C 1075.83 348.23 1089.36 335.38 1089.22 332.45
  Q 1089.20 331.92 1088.80 331.57
  Q 1059.74 306.24 1028.26 283.98
  A 0.39 0.39 0.0 0 0 1027.76 284.02
  Q 1010.75 300.75 993.53 317.26
  C 991.25 319.45 989.09 318.76 987.43 316.22
  Q 980.07 304.93 970.31 295.66
  C 967.91 293.38 965.98 290.56 968.93 287.93
  Q 981.79 276.46 990.77 261.65
  A 0.68 0.68 0.0 0 0 990.54 260.72
  Q 963.11 244.29 933.27 232.27
  Q 925.09 228.97 918.52 227.54
  Q 918.01 227.43 917.63 227.79
  Q 904.79 240.53 891.93 253.23
  C 884.76 260.31 877.81 269.34 871.10 276.10
  Q 844.95 302.43 795.23 350.48
  Q 786.17 359.23 778.94 367.34
  C 767.98 379.64 759.52 388.22 749.29 398.32
  C 746.89 400.69 745.81 402.53 745.80 405.75
  Q 745.74 458.47 745.74 510.69
  A 0.62 0.62 0.0 0 0 746.78 511.15
  Q 763.08 496.42 777.41 480.01
  C 787.14 468.87 797.32 458.58 805.81 450.31
  Z
  M 412.50 266.68
  A 2.17 2.17 0.0 0 0 410.33 264.51
  L 378.93 264.51
  A 2.17 2.17 0.0 0 0 376.76 266.68
  L 376.76 593.84
  A 2.17 2.17 0.0 0 0 378.93 596.01
  L 410.33 596.01
  A 2.17 2.17 0.0 0 0 412.50 593.84
  L 412.50 266.68
  Z
  M 485.01 339.08
  A 1.58 1.58 0.0 0 0 483.43 337.50
  L 452.33 337.50
  A 1.58 1.58 0.0 0 0 450.75 339.08
  L 450.75 594.66
  A 1.58 1.58 0.0 0 0 452.33 596.24
  L 483.43 596.24
  A 1.58 1.58 0.0 0 0 485.01 594.66
  L 485.01 339.08
  Z
  M 960.09 679.92
  Q 962.86 682.43 959.84 685.33
  Q 949.19 695.56 938.57 705.71
  A 0.56 0.56 0.0 0 0 938.99 706.67
  C 974.28 704.61 1012.29 705.19 1044.81 705.75
  C 1047.45 705.79 1050.82 705.81 1052.54 704.29
  Q 1070.47 688.43 1090.96 665.07
  Q 1098.20 656.82 1104.65 650.52
  Q 1139.22 616.79 1173.83 583.08
  C 1184.97 572.23 1195.72 558.77 1207.13 547.48
  Q 1214.89 539.81 1222.60 531.99
  Q 1222.99 531.59 1222.80 531.06
  C 1221.25 526.64 1218.04 521.21 1216.75 518.40
  Q 1206.57 496.21 1195.38 474.50
  Q 1193.28 470.44 1192.27 467.16
  C 1191.71 465.32 1190.51 457.75 1187.63 457.74
  Q 1187.13 457.74 1186.79 458.11
  Q 1186.25 458.70 1185.71 459.22
  Q 1147.39 496.52 1109.06 533.81
  C 1096.89 545.65 1080.74 564.12 1065.63 579.01
  Q 1026.06 618.01 986.02 656.56
  A 0.37 0.36 -38.6 0 1 985.46 656.50
  Q 976.80 643.18 964.52 633.08
  C 962.77 631.64 961.50 629.43 963.42 627.67
  C 977.57 614.70 989.61 599.49 1003.44 586.04
  Q 1041.10 549.45 1078.41 512.51
  C 1085.90 505.10 1091.76 496.45 1099.36 489.07
  Q 1132.96 456.43 1166.53 423.64
  A 0.84 0.83 -40.5 0 0 1166.62 422.55
  Q 1154.92 406.79 1142.52 391.54
  C 1135.76 383.23 1125.21 371.29 1116.93 360.77
  Q 1116.59 360.34 1116.18 360.71
  Q 1107.64 368.49 1103.95 372.45
  C 1070.85 407.94 1049.90 428.88 1012.07 465.57
  C 996.61 480.56 977.26 501.18 958.13 520.27
  Q 926.29 552.05 894.10 583.50
  C 885.68 591.74 876.69 602.63 869.74 609.49
  Q 824.64 654.01 779.17 698.16
  C 777.26 700.02 775.55 703.23 777.82 705.40
  Q 778.19 705.75 778.71 705.75
  L 882.87 705.75
  A 1.76 1.73 -66.6 0 0 884.08 705.26
  L 934.84 656.08
  A 1.03 1.03 0.0 0 1 936.32 656.13
  Q 947.93 668.95 960.09 679.92
  Z
  M 560.74 414.16
  A 1.91 1.91 0.0 0 0 558.83 412.25
  L 525.91 412.25
  A 1.91 1.91 0.0 0 0 524.00 414.16
  L 524.00 594.08
  A 1.91 1.91 0.0 0 0 525.91 595.99
  L 558.83 595.99
  A 1.91 1.91 0.0 0 0 560.74 594.08
  L 560.74 414.16
  Z
  M 633.3462 488.0828
  A 1.26 1.26 0.0 0 0 632.0906 486.8184
  L 598.8108 486.7022
  A 1.26 1.26 0.0 0 0 597.5464 487.9578
  L 597.1738 594.6772
  A 1.26 1.26 0.0 0 0 598.4294 595.9416
  L 631.7092 596.0578
  A 1.26 1.26 0.0 0 0 632.9736 594.8022
  L 633.3462 488.0828
  Z
  M 1105.50 706.16
  L 1255.94 705.65
  Q 1257.54 705.64 1257.60 704.14
  C 1258.96 671.68 1253.13 639.70 1246.62 607.72
  Q 1242.97 589.76 1235.51 573.31
  A 0.67 0.67 0.0 0 0 1234.40 573.13
  C 1215.89 593.34 1196.29 612.55 1177.58 632.58
  C 1160.72 650.63 1131.72 677.07 1105.26 703.75
  Q 1104.14 704.88 1104.82 705.81
  A 0.84 0.84 0.0 0 0 1105.50 706.16
  Z
  M 748.94 1260.06
  C 775.60 1260.22 803.04 1256.16 830.50 1251.51
  Q 834.92 1250.76 848.29 1246.94
  C 850.45 1246.32 852.89 1246.62 855.25 1246.00
  Q 872.82 1241.33 889.83 1235.25
  A 0.87 0.87 0.0 0 0 890.23 1233.90
  Q 877.97 1218.02 866.04 1201.97
  C 834.07 1158.95 818.68 1112.74 817.55 1059.30
  C 817.22 1043.56 819.71 1024.95 822.37 1010.67
  C 826.07 990.78 834.07 970.98 843.25 952.42
  C 851.81 935.12 862.68 919.72 874.19 904.48
  C 906.92 861.17 956.93 834.53 1009.43 822.39
  C 1032.22 817.11 1056.93 817.10 1080.29 818.86
  C 1114.81 821.46 1149.62 833.43 1179.57 850.49
  Q 1186.73 854.57 1193.90 860.38
  Q 1213.57 876.32 1231.74 893.88
  A 0.33 0.33 0.0 0 0 1232.28 893.75
  C 1242.74 861.97 1250.00 829.60 1254.80 796.62
  Q 1258.27 772.79 1257.69 748.05
  C 1257.64 746.03 1256.62 745.17 1254.59 745.17
  Q 1001.58 745.46 748.56 745.76
  Q 745.75 745.76 745.75 748.31
  Q 745.75 996.17 745.75 1244.04
  C 745.75 1247.60 745.21 1253.17 745.92 1257.95
  C 746.26 1260.22 746.95 1260.05 748.94 1260.06
  Z
  M 368.69 1123.56
  C 396.79 1147.81 425.39 1167.72 455.94 1186.85
  C 491.57 1209.17 530.81 1225.22 570.69 1238.18
  C 607.27 1250.07 645.85 1256.04 684.08 1259.28
  C 691.38 1259.90 698.76 1259.99 706.14 1260.08
  Q 707.00 1260.08 707.00 1259.23
  L 707.00 746.94
  Q 707.00 746.33 706.42 746.18
  Q 703.89 745.53 701.25 745.53
  Q 473.78 745.48 246.31 745.52
  C 231.87 745.52 213.43 746.25 199.00 745.43
  C 196.05 745.26 194.99 745.88 195.02 748.99
  Q 195.29 777.58 196.48 787.75
  Q 198.58 805.69 206.98 844.76
  C 214.65 880.45 227.84 916.40 244.38 950.96
  Q 252.82 968.60 260.46 986.60
  C 261.75 989.63 263.32 992.86 264.75 995.23
  C 287.06 1032.19 313.17 1065.50 343.21 1096.43
  Q 354.89 1108.45 365.95 1121.05
  Q 366.49 1121.67 368.69 1123.56
  Z"
/>
<path fill="#ffffff" d="
  M 428.78 930.76
  C 403.01 926.94 379.98 910.21 376.35 883.31
  C 374.23 867.63 376.76 849.78 387.82 838.08
  C 403.92 821.07 421.13 815.31 444.18 818.60
  C 451.84 819.70 457.91 822.56 464.04 827.66
  C 484.97 845.06 492.97 874.43 479.70 899.24
  C 475.21 907.64 464.95 923.21 456.77 924.66
  Q 453.92 925.17 451.95 926.03
  C 444.64 929.22 436.97 931.97 428.78 930.76
  Z
  M 446.3218 883.9934
  A 14.50 14.50 0.0 0 0 446.1071 863.4884
  L 442.0775 859.5423
  A 14.50 14.50 0.0 0 0 421.5725 859.7571
  L 418.0182 863.3866
  A 14.50 14.50 0.0 0 0 418.2329 883.8916
  L 422.2625 887.8377
  A 14.50 14.50 0.0 0 0 442.7675 887.6229
  L 446.3218 883.9934
  Z"
/>
<path fill="#ffffff" d="
  M 405.99 1071.27
  C 398.15 1063.99 390.33 1056.49 382.91 1048.76
  C 379.70 1045.41 381.93 1043.76 384.39 1041.28
  Q 418.43 1006.91 449.02 978.02
  Q 458.48 969.09 466.35 959.82
  Q 472.56 952.50 476.81 948.29
  C 504.09 921.24 531.89 894.74 559.18 867.71
  C 565.19 861.76 571.06 853.60 576.05 848.56
  Q 593.34 831.10 600.39 824.87
  Q 602.67 822.86 605.37 825.38
  Q 617.19 836.43 629.20 848.22
  A 1.57 1.56 -44.6 0 1 629.18 850.47
  Q 611.11 867.61 593.15 885.26
  C 579.00 899.18 566.31 914.44 552.21 928.43
  Q 514.92 965.40 477.34 1002.09
  C 470.66 1008.61 464.80 1017.01 458.62 1023.31
  Q 436.45 1045.90 409.88 1071.13
  Q 407.88 1073.03 405.99 1071.27
  Z"
/>
<path fill="#ffffff" d="
  M 1098.01 1004.24
  C 1093.60 1003.99 1090.65 1000.99 1090.41 996.62
  C 1089.87 986.76 1088.65 979.96 1079.95 974.25
  C 1066.30 965.29 1050.06 964.33 1036.92 974.92
  C 1026.47 983.34 1019.85 993.62 1021.64 1007.64
  C 1023.55 1022.52 1034.48 1034.90 1049.51 1037.71
  Q 1057.81 1039.26 1066.21 1040.17
  Q 1074.54 1041.07 1078.15 1042.24
  C 1106.70 1051.51 1129.43 1078.93 1131.87 1108.42
  C 1135.04 1146.72 1110.63 1170.28 1079.75 1187.46
  Q 1079.02 1187.86 1077.83 1189.07
  Q 1077.48 1189.42 1077.48 1189.91
  L 1077.83 1224.95
  Q 1077.85 1226.50 1076.30 1226.50
  L 1040.75 1226.50
  A 1.47 1.47 0.0 0 1 1039.28 1225.01
  L 1039.85 1188.83
  Q 1039.86 1188.34 1039.41 1188.13
  Q 1022.65 1180.31 1018.53 1177.97
  Q 994.68 1164.40 985.55 1138.04
  C 982.83 1130.19 982.44 1122.75 983.29 1114.65
  Q 983.36 1114.03 983.98 1114.02
  L 1020.18 1113.45
  A 0.64 0.63 86.5 0 1 1020.82 1114.02
  C 1021.31 1118.81 1021.76 1123.40 1024.03 1127.70
  C 1035.36 1149.19 1058.02 1157.09 1079.33 1144.15
  Q 1088.03 1138.87 1089.51 1128.52
  C 1090.17 1123.91 1091.92 1119.07 1091.73 1114.40
  Q 1091.40 1106.16 1089.19 1099.00
  C 1085.44 1086.85 1076.37 1083.19 1065.58 1078.90
  Q 1062.06 1077.50 1058.77 1077.62
  Q 1032.79 1078.56 1012.56 1062.68
  C 988.44 1043.75 979.24 1019.17 983.36 988.83
  C 984.35 981.49 986.96 975.53 990.68 968.69
  C 1001.08 949.59 1015.98 939.20 1036.41 932.20
  C 1038.05 931.64 1039.82 929.82 1039.81 928.25
  Q 1039.63 910.75 1039.44 893.18
  A 2.01 2.01 0.0 0 1 1041.52 891.15
  Q 1056.91 891.72 1072.30 891.24
  C 1076.18 891.12 1077.60 892.04 1077.67 896.00
  Q 1077.94 912.62 1077.46 929.23
  Q 1077.44 929.75 1077.92 929.98
  C 1103.34 942.07 1123.16 959.95 1130.55 987.19
  Q 1132.68 995.05 1130.99 1002.87
  A 1.58 1.57 4.1 0 1 1129.55 1004.11
  Q 1113.49 1005.15 1098.01 1004.24
  Z"
/>
<path fill="#ffffff" d="
  M 574.78 1077.60
  C 544.92 1075.44 521.59 1047.61 523.72 1018.37
  C 525.77 990.32 547.29 971.89 573.01 965.12
  C 581.24 962.96 589.70 967.01 597.41 969.48
  C 638.01 982.50 647.99 1034.35 616.72 1062.72
  Q 598.43 1079.31 574.78 1077.60
  Z
  M 578.0825 1038.7361
  A 17.16 16.18 93.6 0 0 595.3081 1022.6260
  A 17.16 16.18 93.6 0 0 580.2375 1004.4839
  A 17.16 16.18 93.6 0 0 563.0119 1020.5940
  A 17.16 16.18 93.6 0 0 578.0825 1038.7361
  Z"
/>
<rect fill="#ffffff" x="-19.62" y="-19.06" transform="translate(909.36,1058.44) rotate(-0.1)" width="39.24" height="38.12" rx="1.34"/>
<rect fill="#ffffff" x="-18.34" y="-18.97" transform="translate(1205.34,1058.47) rotate(-0.2)" width="36.68" height="37.94" rx="2.03"/>
</svg>
