<?xml version="1.0" encoding="UTF-8" standalone="no"?>
<!DOCTYPE svg PUBLIC "-//W3C//DTD SVG 1.1//EN" "http://www.w3.org/Graphics/SVG/1.1/DTD/svg11.dtd">
<svg xmlns="http://www.w3.org/2000/svg" version="1.1" viewBox="0 0 832 832">
<rect fill="#ff453b" x="-12.90" y="-31.24" transform="translate(511.49,95.73) rotate(17.8)" width="25.80" height="62.48" rx="12.42"/>
<path fill="#ff453b" d="
  M 585.69 107.44
  C 587.59 104.97 588.56 103.79 591.94 103.74
  C 595.31 103.68 599.58 102.99 602.42 105.11
  C 609.36 110.31 608.81 117.34 604.63 124.24
  Q 594.84 140.37 586.39 152.88
  C 578.81 164.09 562.90 159.73 562.05 146.03
  Q 561.93 144.12 565.04 138.95
  C 571.49 128.24 578.05 117.34 585.69 107.44
  Z"
/>
<path fill="#ff453b" d="
  M 234.08 210.09
  C 282.00 159.95 353.45 134.68 421.77 135.89
  Q 426.57 135.98 433.24 136.66
  C 441.30 137.48 449.47 137.94 457.23 139.45
  Q 463.47 140.66 469.69 141.97
  C 539.90 156.72 598.49 199.02 635.24 260.41
  A 1.83 1.81 70.6 0 0 637.06 261.29
  Q 643.26 260.43 649.04 259.74
  Q 695.91 254.13 726.55 287.44
  C 755.03 318.41 761.01 365.20 737.82 401.35
  Q 735.91 404.33 733.94 407.26
  C 730.25 412.74 724.65 417.52 719.88 422.09
  C 717.34 424.51 714.09 426.05 711.22 428.33
  A 0.93 0.92 -37.0 0 0 711.04 429.60
  C 713.27 432.67 715.80 431.08 718.01 433.05
  Q 719.18 434.09 719.92 434.53
  Q 766.46 461.80 779.33 513.42
  C 782.41 525.77 783.21 537.19 781.52 549.45
  A 2.01 1.97 -11.0 0 1 780.50 550.93
  C 753.41 565.72 724.14 573.49 693.78 577.68
  C 691.24 578.04 687.69 577.77 684.63 578.66
  C 680.82 579.77 678.24 579.94 674.74 580.44
  A 0.34 0.34 0.0 0 0 674.50 580.95
  Q 675.74 583.03 677.24 584.75
  Q 701.86 612.91 726.32 641.19
  C 764.39 685.19 743.82 750.21 687.53 764.83
  C 666.63 770.26 642.97 764.23 626.59 750.91
  C 620.11 745.65 614.03 738.56 607.92 731.49
  C 584.78 704.73 561.96 677.56 538.36 651.21
  C 533.67 645.97 530.06 640.11 524.57 635.28
  C 521.55 632.62 521.52 630.36 516.49 632.72
  Q 486.38 646.92 451.51 651.50
  C 434.49 653.74 416.16 653.31 398.78 652.85
  Q 389.11 652.59 379.83 651.04
  C 334.37 643.47 293.87 627.90 257.16 599.77
  C 247.15 592.09 238.06 582.94 229.32 573.60
  A 1.86 1.86 0.0 0 0 227.13 573.21
  C 225.33 574.12 223.98 575.22 221.78 575.36
  Q 215.86 575.75 205.75 577.49
  C 190.77 580.08 170.30 580.91 153.52 579.59
  C 123.00 577.17 94.12 570.67 66.20 559.28
  Q 57.98 555.92 50.12 551.28
  Q 48.58 550.37 48.31 548.60
  Q 47.76 545.02 47.70 540.50
  C 47.23 504.55 64.19 470.85 91.15 447.41
  Q 95.58 443.57 109.05 435.21
  C 111.54 433.67 113.16 432.17 116.21 431.52
  Q 118.19 431.11 118.91 429.47
  A 0.77 0.75 -55.8 0 0 118.76 428.64
  C 116.27 426.11 112.99 424.64 110.67 422.53
  Q 102.59 415.17 99.84 411.93
  C 51.44 355.05 88.55 263.25 163.55 258.82
  C 168.67 258.52 178.02 258.01 184.27 260.01
  Q 189.11 261.55 194.31 261.14
  A 0.86 0.84 -78.4 0 0 195.02 260.66
  C 204.52 241.85 219.64 225.19 234.08 210.09
  Z
  M 184.21 414.71
  C 194.43 539.67 302.72 634.54 428.21 627.37
  C 536.62 621.17 625.04 540.58 643.47 433.99
  Q 645.07 424.72 645.61 415.34
  C 646.13 406.26 648.81 398.79 646.77 389.45
  C 645.72 384.64 645.63 377.66 645.28 374.80
  C 644.16 365.40 643.41 356.14 641.10 346.92
  Q 639.45 340.34 637.81 333.76
  Q 623.09 274.80 582.03 231.13
  C 547.79 194.72 499.02 172.14 449.73 164.91
  Q 440.45 163.55 431.06 163.46
  C 416.83 163.31 401.54 162.24 387.44 163.87
  C 341.68 169.16 298.78 187.02 263.68 216.68
  C 256.84 222.46 250.19 227.62 244.18 235.07
  Q 240.59 239.51 236.35 244.52
  C 212.40 272.77 196.38 309.75 189.23 345.71
  C 188.56 349.03 187.03 352.06 186.93 354.95
  Q 186.67 362.80 184.97 370.47
  C 183.71 376.21 184.88 382.06 183.50 388.04
  Q 182.33 393.15 182.29 395.59
  C 182.19 402.05 183.82 409.89 184.21 414.71
  Z
  M 724.82 361.49
  C 730.66 328.20 709.10 295.83 677.08 286.63
  C 673.90 285.71 670.82 286.08 667.49 285.16
  C 662.41 283.75 656.38 283.13 651.52 285.59
  Q 649.01 286.87 650.13 289.46
  C 662.98 319.22 670.71 349.03 672.25 381.50
  Q 673.06 398.57 672.59 415.73
  A 0.54 0.54 0.0 0 0 673.08 416.28
  Q 675.57 416.50 677.99 415.71
  Q 717.60 402.70 724.82 361.49
  Z
  M 124.60 400.38
  C 131.86 407.16 139.42 411.01 148.48 414.90
  C 151.18 416.07 154.05 416.32 156.99 417.08
  A 0.38 0.38 0.0 0 0 157.46 416.70
  C 155.92 370.48 161.70 329.23 180.37 288.48
  A 1.55 1.53 27.7 0 0 179.75 286.52
  C 173.16 282.63 165.39 284.66 158.21 285.75
  C 135.33 289.24 117.08 305.99 108.42 326.90
  C 107.43 329.29 106.96 332.77 105.24 335.61
  A 1.70 1.66 60.9 0 0 104.99 336.53
  C 105.04 339.25 105.23 341.03 104.19 343.75
  Q 102.17 349.03 102.89 354.69
  C 103.21 357.20 104.56 359.96 104.96 362.89
  Q 105.69 368.23 105.92 369.09
  Q 110.79 387.45 124.60 400.38
  Z
  M 73.75 534.09
  C 103.89 547.40 134.02 552.57 168.42 554.45
  Q 174.10 554.76 180.54 554.05
  C 190.06 553.00 199.73 553.13 208.81 549.89
  A 0.35 0.35 0.0 0 0 208.97 549.34
  Q 205.51 545.09 202.46 540.55
  Q 173.87 498.10 162.93 448.00
  Q 162.26 444.96 159.17 445.30
  Q 133.97 448.05 112.84 463.67
  C 88.76 481.46 78.77 503.35 72.70 532.04
  A 1.83 1.82 18.0 0 0 73.75 534.09
  Z
  M 651.29 554.66
  Q 656.75 555.24 660.82 554.92
  Q 681.49 553.27 701.96 550.02
  Q 728.77 545.77 755.49 534.62
  Q 757.83 533.64 757.27 531.17
  Q 755.38 522.78 752.43 513.29
  C 741.40 477.80 712.36 452.38 675.83 445.84
  Q 672.62 445.27 670.59 445.43
  Q 667.46 445.68 666.82 448.75
  Q 659.43 483.84 642.46 515.32
  Q 637.62 524.31 632.59 533.36
  A 0.62 0.62 0.0 0 0 632.71 534.11
  Q 642.48 543.52 650.70 554.33
  A 0.87 0.84 -14.9 0 0 651.29 554.66
  Z
  M 634.71 722.81
  C 644.65 734.19 656.59 740.65 672.01 740.27
  C 676.45 740.16 682.34 740.15 687.00 738.11
  C 708.00 728.91 719.76 713.32 720.02 690.57
  C 720.11 683.02 716.10 670.22 711.94 664.55
  Q 706.32 656.90 691.41 640.35
  C 687.58 636.11 682.48 629.39 677.32 624.41
  C 673.75 620.97 671.50 616.68 667.98 613.06
  C 661.62 606.53 654.84 597.88 650.12 592.52
  Q 634.79 575.10 618.53 555.97
  Q 616.98 554.15 615.58 556.10
  C 601.11 576.26 581.14 593.35 561.18 607.76
  C 556.41 611.21 550.74 614.28 545.61 617.54
  A 1.23 1.23 0.0 0 0 545.41 619.47
  C 549.45 623.38 552.70 628.55 555.93 632.13
  C 570.28 648.03 584.12 664.42 598.10 680.63
  Q 616.34 701.77 634.71 722.81
  Z"
/>
<path fill="#ff453b" d="
  M 650.69 163.69
  C 653.24 160.46 656.29 160.55 659.60 158.76
  A 2.17 2.17 0.0 0 1 661.65 158.74
  C 664.55 160.24 667.97 161.25 669.98 163.49
  Q 674.53 168.56 672.19 177.43
  Q 671.91 178.50 671.17 179.33
  Q 663.55 187.91 654.36 195.08
  C 649.66 198.76 645.95 202.76 641.75 206.75
  C 633.83 214.28 620.38 206.45 620.11 196.70
  C 619.82 186.02 643.91 172.27 650.69 163.69
  Z"
/>
<path fill="#ff453b" d="
  M 282.69 540.56
  C 195.42 462.38 200.19 327.75 282.20 248.41
  Q 285.07 245.63 290.25 241.60
  C 293.96 238.71 297.69 235.39 301.29 232.87
  C 326.17 215.39 355.05 203.31 385.24 199.21
  C 506.76 182.68 604.30 268.96 611.19 388.93
  C 611.59 395.87 611.92 406.71 610.71 412.25
  C 609.10 419.68 609.07 427.86 607.70 434.45
  Q 594.29 498.62 545.27 542.53
  Q 539.91 547.34 525.84 557.04
  Q 484.30 585.69 434.40 590.78
  C 378.62 596.47 323.84 577.43 282.69 540.56
  Z
  M 292.15 513.80
  L 294.68 516.26
  Q 295.22 516.79 295.35 516.04
  C 295.93 512.67 296.21 509.26 297.24 506.08
  C 305.49 480.73 321.46 456.89 343.70 441.70
  Q 352.82 435.46 363.08 430.18
  A 1.26 1.26 0.0 0 0 363.28 428.07
  C 362.26 427.28 360.52 426.68 359.40 425.74
  Q 348.13 416.31 341.49 407.76
  C 319.63 379.63 317.03 338.73 333.75 307.48
  C 370.33 239.12 468.17 243.95 499.31 313.68
  C 514.19 347.00 507.85 388.02 482.61 414.48
  Q 475.27 422.16 466.65 428.49
  A 0.54 0.54 0.0 0 0 466.52 429.21
  C 467.97 431.43 470.12 431.71 471.90 432.68
  Q 518.30 458.17 533.60 508.99
  C 534.23 511.09 533.81 513.70 534.58 516.06
  A 0.33 0.33 0.0 0 0 535.11 516.21
  Q 543.59 508.66 552.78 496.05
  Q 577.04 462.77 583.26 423.93
  C 584.26 417.72 584.70 410.00 585.41 403.09
  C 586.33 394.24 585.01 387.13 584.25 378.90
  C 577.48 305.74 525.10 243.37 453.38 226.80
  C 444.16 224.67 433.54 224.05 423.53 222.83
  C 414.25 221.71 404.72 223.30 395.48 224.09
  C 365.06 226.69 334.58 239.10 310.89 258.45
  C 305.53 262.84 300.06 267.14 295.49 271.95
  Q 247.24 322.74 244.55 393.05
  C 242.84 437.62 260.96 480.95 291.27 513.22
  Q 291.45 513.41 291.68 513.50
  Q 291.95 513.60 292.15 513.80
  Z
  M 349.07 360.71
  C 351.89 384.95 371.10 409.10 395.00 415.43
  C 398.56 416.37 401.98 417.50 405.04 417.94
  Q 418.70 419.91 432.05 416.22
  C 437.64 414.67 444.12 412.47 448.91 409.43
  Q 485.53 386.24 480.02 341.41
  C 479.74 339.11 480.02 335.86 479.34 333.69
  C 471.87 309.99 458.30 295.11 434.48 287.42
  C 429.90 285.94 424.74 285.92 419.74 284.79
  C 414.45 283.59 410.73 284.13 405.85 285.46
  C 403.02 286.23 400.10 285.67 397.28 286.55
  Q 380.29 291.90 367.39 304.31
  C 363.85 307.72 361.23 312.22 358.50 316.43
  C 349.72 329.98 347.22 344.78 349.07 360.71
  Z
  M 318.98 536.32
  C 377.06 576.11 452.31 576.30 510.50 536.83
  A 2.69 2.67 -15.6 0 0 511.68 534.75
  C 512.00 529.20 510.28 524.50 509.22 519.88
  C 495.75 461.22 437.41 432.05 381.03 450.86
  C 361.01 457.53 342.53 473.14 332.15 491.00
  Q 325.03 503.25 321.36 517.06
  C 320.79 519.21 320.46 522.46 319.47 525.13
  C 318.18 528.58 318.43 531.44 318.23 534.82
  A 1.71 1.70 18.6 0 0 318.98 536.32
  Z"
/>
</svg>
