<?xml version="1.0" encoding="UTF-8" standalone="no"?>
<!DOCTYPE svg PUBLIC "-//W3C//DTD SVG 1.1//EN" "http://www.w3.org/Graphics/SVG/1.1/DTD/svg11.dtd">
<svg xmlns="http://www.w3.org/2000/svg" version="1.1" viewBox="0 0 1448 1448">
<path fill="#ffffff" d="
  M 392.19 1155.56
  C 371.69 1135.36 352.80 1116.77 338.12 1095.23
  Q 315.42 1061.90 303.30 1042.95
  Q 243.73 949.79 218.53 840.98
  C 209.52 802.06 205.78 763.25 203.26 723.92
  C 202.58 713.29 202.27 702.12 202.26 691.27
  Q 202.24 494.48 202.25 297.68
  C 202.26 282.86 205.56 271.29 219.32 264.74
  C 223.88 262.56 235.81 257.95 241.60 256.91
  C 244.16 256.45 246.58 256.17 249.06 255.41
  C 327.39 231.25 405.75 206.86 483.73 181.58
  C 517.85 170.52 552.38 160.72 586.52 149.71
  Q 667.40 123.63 716.31 109.55
  C 725.03 107.04 733.58 108.76 743.26 111.74
  C 770.17 120.01 797.19 128.01 824.02 136.54
  C 874.91 152.72 926.17 167.92 976.95 184.39
  Q 1034.51 203.06 1092.44 220.54
  Q 1101.68 223.33 1111.44 226.75
  C 1134.28 234.75 1157.63 241.23 1180.83 248.07
  C 1190.14 250.81 1202.32 255.39 1213.38 258.25
  C 1219.82 259.91 1226.00 262.61 1232.49 264.52
  C 1245.63 268.40 1244.95 283.25 1244.97 294.09
  Q 1245.62 569.22 1245.18 712.25
  Q 1245.10 737.64 1243.22 776.80
  C 1242.86 784.46 1242.25 793.14 1240.98 800.92
  Q 1220.37 927.37 1153.27 1035.26
  C 1143.14 1051.56 1130.63 1068.59 1119.58 1085.81
  C 1112.88 1096.25 1108.98 1102.13 1101.41 1110.94
  Q 1067.72 1150.10 1028.56 1183.71
  C 1015.79 1194.67 1001.49 1205.79 988.02 1216.95
  Q 979.61 1223.91 972.07 1229.00
  Q 932.09 1255.93 888.81 1277.25
  Q 884.81 1279.22 877.99 1281.60
  C 864.08 1286.44 853.40 1294.37 838.27 1299.63
  C 824.88 1304.29 811.70 1309.17 797.91 1313.00
  C 785.54 1316.43 772.18 1320.52 760.79 1323.17
  C 746.91 1326.41 731.13 1331.20 716.26 1328.46
  Q 686.95 1323.07 658.55 1314.14
  Q 656.86 1313.61 649.33 1311.82
  C 644.30 1310.62 639.32 1308.11 635.22 1306.79
  C 625.94 1303.81 615.87 1301.03 607.50 1297.50
  Q 595.61 1292.48 584.46 1285.94
  C 579.31 1282.91 572.61 1281.87 567.72 1279.49
  C 533.25 1262.72 501.09 1243.54 469.68 1222.28
  Q 467.39 1220.73 465.30 1218.93
  C 440.86 1197.79 416.63 1179.65 392.19 1155.56
  Z
  M 424.69 1116.81
  C 450.36 1141.42 468.87 1160.15 493.61 1177.86
  Q 529.40 1203.48 567.44 1223.03
  C 594.53 1236.95 612.68 1246.21 636.07 1254.68
  C 655.32 1261.66 675.63 1268.15 696.44 1272.70
  C 706.62 1274.93 719.86 1282.01 729.83 1279.52
  C 770.31 1269.41 814.32 1258.17 853.16 1238.79
  Q 884.60 1223.11 900.98 1214.01
  Q 935.67 1194.73 972.52 1167.18
  Q 976.99 1163.84 981.12 1159.87
  C 1000.53 1141.23 1020.46 1123.17 1039.62 1104.26
  Q 1046.49 1097.47 1053.12 1089.52
  C 1076.85 1061.07 1102.33 1031.22 1118.90 996.16
  C 1126.96 979.11 1134.37 964.61 1142.29 948.90
  C 1165.66 902.54 1179.69 850.64 1189.37 799.97
  C 1190.88 792.07 1192.07 783.09 1192.65 775.93
  C 1195.69 738.26 1198.75 703.48 1198.76 662.94
  Q 1198.80 485.84 1198.73 308.75
  C 1198.73 305.12 1196.21 305.16 1193.52 304.39
  C 1146.38 290.79 1108.82 277.30 1063.44 263.81
  Q 1025.95 252.66 961.44 231.66
  Q 952.15 228.63 942.37 225.66
  C 888.68 209.34 835.30 192.11 781.69 175.54
  Q 762.61 169.63 752.15 166.65
  C 741.87 163.72 734.64 161.24 726.14 157.25
  A 1.74 1.73 -46.0 0 0 724.63 157.28
  Q 718.19 160.61 711.63 163.56
  C 708.42 165.01 704.44 165.16 701.00 166.21
  Q 633.03 187.00 565.29 208.51
  C 526.13 220.95 486.80 232.70 447.71 245.36
  Q 438.27 248.41 428.62 251.31
  C 371.54 268.47 315.15 287.85 257.92 304.44
  C 254.65 305.39 252.77 306.51 252.76 310.06
  Q 252.72 485.88 252.78 661.69
  C 252.79 696.44 254.64 731.47 257.69 766.08
  Q 259.26 783.97 261.99 799.25
  Q 272.12 856.10 292.58 911.56
  C 302.35 938.03 314.76 962.04 328.68 987.07
  C 330.61 990.54 330.42 995.78 332.79 999.76
  C 358.32 1042.60 388.61 1082.22 424.69 1116.81
  Z"
/>
<path fill="#ffffff" d="
  M 491.35 1066.29
  C 478.99 1054.49 470.06 1045.83 461.41 1033.66
  Q 456.14 1026.25 452.49 1021.82
  C 408.93 968.89 372.67 904.07 355.49 838.01
  C 351.46 822.53 347.41 809.59 345.20 795.79
  Q 339.59 760.82 337.14 725.48
  C 336.15 711.16 336.32 696.13 336.25 681.44
  Q 335.55 540.84 335.97 400.25
  C 336.01 389.84 333.88 378.41 342.32 370.06
  C 349.54 362.92 362.79 359.10 372.71 356.12
  Q 405.18 346.36 437.54 336.23
  Q 573.51 293.66 709.56 251.32
  Q 722.93 247.16 735.37 249.30
  C 740.43 250.17 746.81 252.94 751.50 254.26
  Q 789.39 264.95 802.27 269.19
  Q 887.26 297.15 972.90 323.04
  C 974.79 323.62 976.79 323.17 978.49 324.09
  Q 985.27 327.71 987.99 328.54
  Q 1038.47 343.88 1088.94 359.29
  C 1105.23 364.27 1115.48 371.30 1115.48 389.65
  Q 1115.53 546.29 1115.48 702.94
  C 1115.47 730.47 1111.66 759.53 1107.86 786.07
  Q 1106.83 793.29 1104.55 803.66
  Q 1089.26 873.01 1055.85 938.07
  C 1051.76 946.03 1046.26 951.07 1037.07 952.11
  C 1028.38 953.09 1019.69 951.26 1013.64 944.65
  C 1008.47 938.98 1005.57 930.75 1007.21 923.13
  Q 1007.85 920.16 1011.18 913.78
  Q 1046.82 845.43 1059.27 769.80
  C 1060.75 760.75 1060.57 750.25 1061.35 742.07
  Q 1063.50 719.55 1063.50 701.75
  Q 1063.50 555.75 1063.34 409.75
  C 1063.33 407.28 1064.04 403.58 1060.82 402.65
  Q 1018.47 390.35 996.32 383.42
  C 991.35 381.86 985.95 379.12 980.77 377.52
  Q 921.76 359.21 862.61 341.40
  C 857.32 339.81 851.33 336.08 846.50 335.00
  C 836.67 332.80 824.38 328.41 817.75 326.44
  Q 771.61 312.74 725.70 298.29
  Q 725.21 298.14 724.72 298.31
  C 716.64 301.13 708.63 303.93 700.35 306.39
  C 629.07 327.60 558.17 350.76 487.30 372.55
  C 463.71 379.80 440.35 387.87 416.84 395.39
  Q 401.54 400.28 391.26 402.28
  Q 389.72 402.58 388.79 403.11
  Q 388.31 403.38 388.29 403.93
  C 387.95 414.35 388.35 424.65 388.23 435.06
  C 387.37 515.31 387.98 595.65 388.01 675.91
  C 388.03 712.80 388.74 750.27 395.53 786.65
  Q 407.56 851.10 437.99 909.13
  Q 448.57 929.29 464.28 957.23
  C 470.02 967.44 475.78 975.73 483.83 985.23
  C 494.93 998.32 506.07 1012.04 518.28 1023.85
  Q 540.50 1045.34 561.70 1061.05
  Q 583.41 1077.14 594.69 1086.31
  Q 597.71 1088.77 602.38 1091.31
  Q 614.56 1097.92 626.83 1104.34
  Q 669.82 1126.86 716.56 1139.96
  Q 720.51 1141.06 724.32 1142.57
  Q 724.79 1142.76 725.29 1142.63
  C 766.47 1131.79 804.32 1116.57 840.50 1095.75
  Q 843.52 1094.01 849.98 1091.28
  Q 850.44 1091.09 850.74 1090.70
  C 858.63 1080.29 883.25 1063.80 894.71 1065.05
  C 908.31 1066.53 916.92 1076.94 918.14 1090.56
  C 919.08 1101.23 903.35 1112.97 895.60 1118.25
  C 861.83 1141.25 832.23 1158.26 795.00 1172.49
  Q 766.93 1183.22 727.74 1193.73
  C 722.17 1195.22 708.69 1189.50 702.67 1188.02
  C 684.18 1183.46 666.74 1176.29 649.08 1169.65
  C 640.78 1166.53 633.19 1162.49 625.11 1158.99
  C 613.63 1154.00 603.30 1148.83 592.28 1141.60
  Q 580.50 1133.87 558.30 1119.46
  Q 523.09 1096.62 491.35 1066.29
  Z"
/>
<path fill="#ffffff" d="
  M 820.79 772.90
  C 793.10 799.59 765.67 826.54 737.90 853.16
  Q 730.76 860.01 713.92 880.34
  C 707.84 887.68 699.61 896.43 690.05 898.22
  Q 680.90 899.93 673.99 898.02
  C 670.93 897.17 668.36 894.51 665.85 892.09
  Q 638.59 865.70 611.61 839.03
  C 598.82 826.38 585.36 810.79 573.96 799.79
  Q 528.04 755.47 503.70 730.55
  C 490.55 717.08 498.16 703.66 509.12 692.86
  Q 551.34 651.26 594.22 610.22
  A 3.19 3.12 -69.5 0 1 596.03 609.37
  C 600.84 608.79 608.87 607.92 612.83 611.15
  C 637.35 631.17 659.38 654.02 681.96 676.35
  Q 683.07 677.45 684.22 676.39
  C 697.39 664.18 710.22 651.60 722.17 637.57
  Q 732.32 625.63 736.45 621.69
  Q 784.63 575.66 832.22 529.00
  C 836.68 524.63 841.43 522.79 847.21 521.27
  C 852.40 519.91 858.50 524.40 862.09 527.91
  Q 904.89 569.86 947.82 611.68
  C 963.34 626.81 950.18 643.39 938.28 654.81
  C 901.11 690.47 874.61 715.67 843.73 749.72
  Q 836.01 758.23 820.79 772.90
  Z
  M 666.95 731.29
  C 648.68 713.38 624.12 689.49 602.75 668.51
  A 1.09 1.08 -49.1 0 0 601.12 668.63
  C 588.59 685.16 574.55 698.87 559.27 713.02
  A 1.09 1.09 0.0 0 0 559.29 714.64
  Q 571.08 725.04 582.03 736.62
  C 590.42 745.49 597.25 755.37 606.10 763.95
  Q 635.68 792.63 665.26 821.31
  C 670.45 826.34 676.64 832.99 682.45 838.69
  Q 682.83 839.07 683.23 838.71
  C 707.40 817.00 729.58 791.52 749.10 772.35
  Q 796.48 725.82 844.06 679.49
  C 849.26 674.42 853.79 668.82 858.57 663.31
  C 868.81 651.50 880.46 640.78 891.83 629.91
  A 1.81 1.80 44.7 0 0 891.81 627.28
  C 877.17 613.71 862.98 600.90 851.35 584.71
  A 2.16 2.16 0.0 0 0 848.10 584.41
  Q 796.30 634.15 744.89 684.14
  C 728.75 699.83 718.92 714.41 703.88 727.53
  Q 696.70 733.79 691.70 735.58
  C 683.32 738.58 673.72 737.93 666.95 731.29
  Z"
/>
<path fill="#ffffff" d="
  M 957.10 1036.66
  C 937.35 1020.44 951.84 989.78 976.69 992.87
  C 984.37 993.82 990.36 1000.54 993.50 1007.22
  C 996.57 1013.72 996.54 1019.86 993.45 1026.24
  C 989.43 1034.54 983.53 1041.12 973.50 1040.89
  C 967.77 1040.76 961.45 1040.24 957.10 1036.66
  Z"
/>
</svg>
