<?xml version="1.0" encoding="UTF-8" standalone="no"?>
<!DOCTYPE svg PUBLIC "-//W3C//DTD SVG 1.1//EN" "http://www.w3.org/Graphics/SVG/1.1/DTD/svg11.dtd">
<svg xmlns="http://www.w3.org/2000/svg" version="1.1" viewBox="0 0 591 591">
<path fill="#ffffff" d="
  M 30.25 144.56
  C 30.25 124.44 24.53 97.18 51.03 89.52
  C 63.54 85.90 78.91 82.90 88.83 80.64
  Q 246.76 44.75 404.68 8.82
  Q 410.39 7.52 414.42 7.86
  C 437.49 9.76 444.33 29.48 443.62 49.88
  Q 443.25 60.20 443.25 60.26
  Q 443.25 320.60 443.25 580.94
  Q 443.25 583.78 440.69 583.79
  Q 368.63 584.02 296.43 584.02
  A 2.42 2.42 0.0 0 1 294.01 581.60
  Q 293.98 539.22 294.00 496.25
  C 294.01 484.05 287.15 473.68 275.51 469.95
  Q 270.97 468.49 260.85 468.50
  C 243.52 468.51 226.01 468.98 208.73 468.15
  C 190.50 467.27 177.32 481.45 177.40 499.51
  Q 177.52 527.58 177.33 555.68
  C 177.29 562.09 177.59 574.18 177.12 583.47
  Q 177.09 583.98 176.58 583.98
  Q 98.16 584.03 19.75 584.04
  C 7.80 584.04 -2.86 577.26 1.48 563.74
  C 5.34 551.71 19.85 554.16 29.34 554.87
  A 0.85 0.84 2.2 0 0 30.25 554.03
  Q 30.25 349.25 30.25 144.56
  Z
  M 176.18 189.92
  C 175.39 184.07 170.43 179.53 164.49 179.49
  Q 148.75 179.37 133.00 179.32
  C 114.46 179.25 117.26 208.00 118.47 219.26
  C 119.32 227.19 122.93 234.27 131.52 235.48
  Q 137.24 236.29 159.50 236.00
  C 170.61 235.85 175.68 231.33 176.76 220.21
  Q 178.23 205.07 176.18 189.92
  Z
  M 264.58 189.98
  C 263.60 183.71 259.16 179.70 252.75 179.55
  Q 237.24 179.18 221.72 179.49
  C 209.15 179.73 207.61 187.02 207.50 198.00
  Q 207.39 209.41 207.64 220.80
  C 207.89 232.35 214.86 235.36 225.31 235.79
  Q 236.81 236.27 248.30 236.10
  C 261.30 235.92 266.19 226.56 265.74 214.75
  C 265.43 206.49 265.85 198.17 264.58 189.98
  Z
  M 306.57 179.61
  C 301.76 179.74 296.66 184.30 296.18 188.93
  C 295.56 194.89 295.97 202.32 295.92 206.68
  C 295.86 211.15 294.99 223.73 296.77 227.24
  C 300.71 235.08 308.14 236.06 316.25 235.94
  C 329.20 235.76 353.53 240.55 353.48 219.49
  Q 353.46 208.40 353.27 197.32
  C 353.12 189.19 352.10 180.24 341.95 179.56
  Q 332.33 178.92 306.57 179.61
  Z
  M 296.76 313.38
  C 297.96 320.10 305.65 322.31 311.52 322.30
  Q 322.88 322.29 334.30 322.26
  C 351.97 322.21 353.05 315.61 353.73 299.20
  Q 354.19 287.99 353.42 281.75
  C 352.50 274.39 350.92 267.37 342.25 266.27
  Q 327.39 264.37 310.90 265.81
  C 297.62 266.96 295.23 273.20 295.44 285.58
  C 295.61 295.14 295.10 304.08 296.76 313.38
  Z
  M 118.86 309.27
  C 120.20 317.29 125.91 322.03 133.69 322.13
  Q 145.79 322.30 157.91 322.26
  Q 165.08 322.24 167.97 321.10
  C 180.54 316.13 177.44 293.28 176.80 282.07
  C 176.31 273.40 172.89 266.37 163.19 265.85
  Q 152.41 265.28 140.42 265.54
  C 132.56 265.71 126.89 265.41 122.45 270.84
  C 115.87 278.86 117.26 299.65 118.86 309.27
  Z
  M 265.2458 280.0195
  A 14.43 14.43 0.0 0 0 250.7906 265.6147
  L 221.7107 265.6654
  A 14.43 14.43 0.0 0 0 207.3059 280.1206
  L 207.3542 307.8205
  A 14.43 14.43 0.0 0 0 221.8094 322.2253
  L 250.8893 322.1746
  A 14.43 14.43 0.0 0 0 265.2941 307.7194
  L 265.2458 280.0195
  Z
  M 119.42 396.95
  C 121.24 406.22 126.97 408.68 135.75 408.54
  Q 148.33 408.34 160.95 408.50
  C 171.53 408.63 175.54 404.80 176.74 394.05
  Q 178.33 379.83 176.40 365.62
  C 175.08 355.87 169.80 352.68 160.50 351.98
  Q 147.55 350.99 134.65 352.08
  Q 128.98 352.56 126.23 354.24
  C 114.65 361.33 117.28 386.06 119.42 396.95
  Z
  M 265.07 366.87
  C 264.18 352.62 252.53 352.10 241.58 351.77
  Q 232.04 351.48 222.50 352.11
  C 212.95 352.75 207.83 358.01 207.66 368.02
  Q 207.36 385.13 207.96 395.96
  C 208.49 405.69 213.76 408.48 223.18 408.50
  Q 235.51 408.52 247.84 408.48
  Q 255.19 408.45 257.87 407.25
  C 263.73 404.63 265.22 398.06 265.41 392.00
  Q 265.82 378.88 265.07 366.87
  Z
  M 295.97 394.54
  C 296.05 401.53 299.14 408.48 307.26 408.50
  Q 321.82 408.55 336.39 408.49
  Q 343.44 408.46 345.86 407.45
  C 350.68 405.45 353.38 399.75 353.29 394.50
  Q 353.06 381.26 353.43 367.98
  C 353.71 357.89 345.99 352.08 336.49 351.98
  Q 324.04 351.84 311.55 352.10
  C 304.42 352.24 296.20 356.55 296.10 364.75
  Q 295.85 384.31 295.97 394.54
  Z"
/>
<path fill="#ffffff" d="
  M 472.36 584.05
  A 0.61 0.61 0.0 0 1 471.75 583.44
  L 471.75 111.82
  A 0.42 0.42 0.0 0 1 472.36 111.44
  Q 506.38 128.08 540.36 144.58
  C 563.63 155.88 559.76 173.50 559.75 195.41
  Q 559.75 372.76 559.75 550.12
  C 559.75 551.25 560.10 552.43 559.99 553.53
  A 1.19 1.19 0.0 0 0 561.26 554.84
  Q 569.07 554.30 575.74 554.59
  C 592.86 555.36 593.90 578.49 578.59 583.13
  Q 575.88 583.95 568.92 583.96
  Q 520.70 583.99 472.36 584.05
  Z"
/>
<rect fill="#ffffff" x="206.00" y="496.27" width="60.00" height="87.72" rx="1.85"/>
</svg>
