<?xml version="1.0" encoding="UTF-8" standalone="no"?>
<!DOCTYPE svg PUBLIC "-//W3C//DTD SVG 1.1//EN" "http://www.w3.org/Graphics/SVG/1.1/DTD/svg11.dtd">
<svg xmlns="http://www.w3.org/2000/svg" version="1.1" viewBox="0 0 591 591">
<path fill="#ffffff" d="
  M 236.33 165.56
  C 298.59 227.32 366.11 294.76 422.34 351.91
  C 426.23 355.87 434.97 352.88 439.61 351.62
  C 446.73 349.69 453.98 349.80 461.20 349.33
  C 533.59 344.67 592.42 409.85 581.63 482.13
  C 580.22 491.57 579.08 503.02 568.68 506.93
  C 560.89 509.86 555.01 506.55 549.60 501.15
  Q 528.00 479.51 506.34 457.91
  C 496.51 448.11 478.99 445.36 466.60 451.58
  C 444.87 462.49 441.41 490.18 458.59 507.42
  Q 480.24 529.13 501.93 550.81
  C 506.10 554.98 509.06 561.34 507.26 567.31
  C 504.71 575.76 499.10 578.72 489.79 580.67
  C 418.33 595.67 351.31 543.39 348.34 470.88
  C 347.94 461.11 349.62 450.51 351.15 440.46
  C 351.78 436.29 353.54 431.16 354.27 426.37
  Q 354.36 425.85 353.98 425.47
  Q 260.79 331.81 167.46 238.29
  C 164.14 234.97 149.74 240.16 145.04 240.58
  C 131.12 241.82 121.01 242.68 108.62 241.24
  C 52.18 234.73 8.87 184.67 7.86 128.38
  C 7.70 118.94 8.28 109.58 10.45 100.70
  C 12.69 91.54 14.60 85.70 24.75 83.28
  C 30.57 81.90 35.62 84.78 39.61 88.64
  Q 57.72 106.15 75.33 124.17
  C 87.40 136.52 96.56 145.00 114.39 142.32
  C 141.88 138.18 152.15 104.72 133.28 84.97
  Q 121.36 72.50 88.18 39.57
  C 83.57 34.99 81.57 28.69 84.03 22.29
  C 87.63 12.92 94.00 11.97 102.81 10.12
  C 180.09 -6.09 251.83 61.03 241.94 139.39
  C 240.89 147.71 238.85 156.98 236.13 164.71
  Q 235.96 165.20 236.33 165.56
  Z"
/>
<path fill="#ffffff" d="
  M 490.40 144.12
  L 377.42 256.69
  Q 377.11 257.00 376.80 256.69
  L 330.57 210.44
  A 0.44 0.44 0.0 0 1 330.57 209.82
  L 442.61 98.36
  A 2.15 2.14 45.5 0 0 442.63 95.35
  C 439.30 91.91 434.91 88.28 433.10 83.98
  C 428.97 74.17 434.07 67.12 442.33 62.14
  Q 482.62 37.83 523.01 13.66
  C 533.42 7.43 540.84 4.30 550.11 13.41
  Q 567.89 30.89 576.84 40.15
  C 585.83 49.46 583.62 56.54 577.40 66.93
  Q 552.59 108.36 527.72 149.73
  Q 520.33 162.04 506.95 157.74
  C 501.95 156.13 495.32 148.01 491.54 144.13
  A 0.80 0.79 45.3 0 0 490.40 144.12
  Z"
/>
<path fill="#ffffff" d="
  M 188.17 309.09
  L 282.00 402.75
  Q 282.32 403.08 282.01 403.39
  C 227.58 457.78 173.41 512.48 118.57 566.45
  Q 116.77 568.21 115.28 569.33
  C 79.58 596.04 30.04 583.11 12.56 542.16
  C 3.28 520.42 6.74 495.38 20.53 476.62
  Q 23.99 471.91 34.02 461.88
  Q 109.83 386.02 186.78 309.09
  A 0.99 0.98 44.8 0 1 188.17 309.09
  Z
  M 208.9816 409.3539
  A 16.90 16.90 0.0 0 0 208.9816 385.4536
  L 208.6564 385.1284
  A 16.90 16.90 0.0 0 0 184.7561 385.1284
  L 82.0984 487.7861
  A 16.90 16.90 0.0 0 0 82.0984 511.6864
  L 82.4236 512.0116
  A 16.90 16.90 0.0 0 0 106.3239 512.0116
  L 208.9816 409.3539
  Z"
/>
</svg>
