<?xml version="1.0" encoding="UTF-8" standalone="no"?>
<!DOCTYPE svg PUBLIC "-//W3C//DTD SVG 1.1//EN" "http://www.w3.org/Graphics/SVG/1.1/DTD/svg11.dtd">
<svg xmlns="http://www.w3.org/2000/svg" version="1.1" viewBox="0 0 591 591">
<path fill="#ffffff" d="
  M 109.76 278.27
  L 109.74 244.28
  Q 109.74 243.78 109.24 243.78
  Q 70.58 243.69 32.07 243.76
  Q 21.02 243.78 17.18 242.19
  C 8.52 238.60 7.25 231.09 7.25 221.84
  Q 7.26 210.88 7.24 199.94
  Q 7.22 190.97 8.71 187.25
  C 11.68 179.82 20.32 175.04 28.21 177.81
  C 34.35 179.97 39.10 184.74 39.61 191.58
  Q 40.31 200.90 39.84 210.25
  Q 39.81 210.75 40.31 210.75
  L 109.44 210.75
  A 0.31 0.31 0.0 0 0 109.75 210.44
  Q 109.76 171.66 109.75 132.89
  Q 109.74 123.38 111.21 119.80
  C 113.76 113.58 119.66 109.28 126.75 109.27
  Q 168.75 109.20 210.74 109.29
  Q 211.25 109.29 211.25 108.78
  L 211.26 39.94
  Q 211.26 39.48 210.80 39.49
  Q 203.32 39.53 196.03 39.48
  C 175.45 39.32 170.60 12.65 190.28 7.03
  Q 192.83 6.30 199.41 6.27
  Q 217.95 6.19 225.48 6.25
  C 239.67 6.36 244.29 15.21 244.27 27.61
  Q 244.22 68.22 244.26 108.99
  Q 244.26 109.29 244.56 109.29
  L 278.28 109.23
  Q 279.24 109.23 279.24 108.27
  Q 279.28 68.02 279.23 27.24
  Q 279.22 20.40 280.60 16.95
  C 286.00 3.41 305.10 2.97 310.66 16.74
  Q 312.01 20.06 312.01 26.93
  Q 311.99 67.66 312.00 108.47
  Q 312.00 109.24 312.77 109.24
  L 346.51 109.28
  Q 347.01 109.28 347.01 108.78
  Q 347.01 67.00 346.97 25.26
  Q 346.96 11.73 357.65 7.74
  C 365.32 4.89 379.85 6.27 389.34 6.24
  Q 399.12 6.22 402.95 7.72
  C 410.39 10.63 415.28 18.87 412.96 26.93
  C 408.63 41.96 393.30 39.49 380.69 39.51
  Q 380.00 39.51 380.00 40.20
  L 380.00 108.52
  Q 380.00 109.32 380.80 109.31
  Q 389.88 109.20 398.20 109.30
  C 403.06 109.36 406.83 112.23 410.57 115.97
  Q 443.77 149.13 476.94 182.32
  C 483.33 188.72 481.46 201.76 481.53 210.27
  Q 481.53 210.74 482.00 210.74
  L 550.81 210.77
  Q 551.43 210.77 551.44 210.15
  C 551.70 198.54 548.24 182.37 563.27 177.70
  C 571.22 175.23 579.59 179.80 582.67 187.23
  Q 584.19 190.89 584.45 199.96
  Q 585.03 220.86 584.22 227.49
  C 582.57 240.92 574.02 243.75 561.87 243.75
  Q 522.07 243.75 482.23 243.75
  A 0.74 0.73 90.0 0 0 481.50 244.49
  L 481.50 278.01
  Q 481.50 278.58 482.08 278.58
  Q 523.33 278.35 564.55 278.59
  C 572.94 278.63 579.52 281.07 582.75 288.90
  Q 585.15 294.70 582.90 300.63
  C 579.82 308.71 573.17 311.38 564.66 311.41
  Q 527.99 311.58 491.36 311.49
  C 489.30 311.48 485.18 311.12 482.11 311.32
  Q 481.50 311.35 481.50 311.96
  L 481.50 345.74
  Q 481.50 346.24 482.00 346.24
  Q 520.55 346.28 559.06 346.24
  C 570.05 346.23 578.55 346.31 582.69 356.48
  Q 584.14 360.06 584.37 367.85
  Q 584.70 379.62 584.42 391.40
  C 584.19 400.70 582.59 407.87 574.00 411.56
  Q 568.10 414.09 562.29 411.85
  C 548.22 406.42 551.56 391.36 551.48 379.74
  Q 551.48 379.25 550.99 379.25
  L 482.23 379.25
  A 0.74 0.73 -89.6 0 0 481.50 379.98
  Q 481.49 419.72 481.51 459.56
  Q 481.51 466.84 480.08 470.26
  C 477.73 475.87 471.98 480.74 465.45 480.74
  Q 424.24 480.76 380.51 480.72
  Q 380.00 480.72 380.00 481.22
  L 380.00 549.76
  A 0.80 0.80 0.0 0 0 380.82 550.56
  C 393.11 550.33 408.56 548.10 412.92 563.02
  C 415.31 571.19 410.40 579.34 402.83 582.33
  Q 399.28 583.74 391.83 583.74
  Q 381.99 583.74 372.15 583.77
  Q 361.54 583.80 357.62 582.25
  C 348.08 578.49 346.96 570.51 346.98 560.49
  Q 347.04 520.87 346.98 481.25
  Q 346.98 480.75 346.48 480.75
  L 313.50 480.75
  Q 312.00 480.75 312.00 482.25
  Q 312.00 523.29 311.99 564.26
  Q 311.99 570.32 310.71 573.41
  C 305.04 587.04 285.73 586.45 280.44 572.91
  Q 279.27 569.93 279.27 563.81
  Q 279.23 522.68 279.26 481.49
  A 0.72 0.72 0.0 0 0 278.54 480.77
  L 245.08 480.70
  Q 244.27 480.70 244.27 481.52
  Q 244.21 519.95 244.28 558.86
  C 244.30 569.83 244.00 578.15 233.71 582.23
  Q 230.03 583.69 221.91 583.73
  Q 211.84 583.77 201.74 583.76
  Q 191.80 583.75 188.01 582.15
  C 182.07 579.63 176.80 572.65 177.81 565.44
  C 180.20 548.27 197.72 550.42 210.68 550.59
  Q 211.25 550.59 211.25 550.02
  L 211.25 480.99
  A 0.42 0.42 0.0 0 0 210.82 480.57
  Q 202.22 480.91 193.55 480.69
  C 188.06 480.55 184.44 477.77 180.24 473.59
  Q 147.57 440.98 114.95 408.30
  C 108.00 401.34 109.67 389.12 109.75 380.04
  A 0.79 0.79 0.0 0 0 108.96 379.25
  L 40.75 379.25
  Q 39.62 379.25 39.67 380.38
  C 40.11 391.48 42.64 407.10 28.91 411.91
  Q 22.97 413.99 17.20 411.49
  C 8.60 407.77 7.27 400.70 7.25 391.40
  Q 7.24 379.92 7.26 368.46
  C 7.27 358.63 8.65 350.70 18.25 347.42
  Q 21.65 346.26 30.50 346.26
  Q 68.99 346.25 108.72 346.27
  A 1.03 1.03 0.0 0 0 109.75 345.24
  L 109.75 311.74
  A 0.59 0.59 0.0 0 0 109.15 311.15
  C 81.18 311.63 53.22 310.97 25.26 311.28
  C 6.92 311.49 0.00 288.01 17.09 280.13
  Q 20.21 278.69 26.64 278.63
  Q 67.99 278.27 109.35 278.68
  Q 109.76 278.68 109.76 278.27
  Z
  M 190.07 388.85
  C 196.21 394.91 202.42 401.31 208.79 407.36
  C 213.35 411.70 216.98 413.68 222.99 413.68
  Q 308.61 413.75 394.19 413.74
  C 405.73 413.74 414.27 408.30 414.27 395.50
  Q 414.25 308.53 414.27 221.56
  Q 414.27 214.64 410.73 210.78
  Q 404.91 204.43 382.41 182.09
  Q 376.55 176.26 370.00 176.26
  Q 283.38 176.23 196.78 176.27
  C 185.73 176.27 177.24 181.60 177.24 193.67
  Q 177.25 281.92 177.25 370.18
  C 177.25 377.54 184.69 383.54 190.07 388.85
  Z"
/>
<path fill="#ffffff" d="
  M 379.68 379.79
  L 230.50 379.64
  A 2.39 2.39 0.0 0 1 228.81 378.94
  L 211.63 361.75
  Q 211.25 361.38 211.25 360.84
  L 211.25 210.72
  Q 211.25 210.25 211.72 210.25
  L 360.50 210.25
  A 2.28 2.26 65.2 0 1 361.98 210.80
  Q 370.89 218.48 378.66 227.33
  C 379.89 228.73 380.24 230.63 380.24 232.66
  Q 380.28 305.95 380.24 379.24
  Q 380.24 379.80 379.68 379.79
  Z"
/>
</svg>
