<?xml version="1.0" encoding="UTF-8" standalone="no"?>
<!DOCTYPE svg PUBLIC "-//W3C//DTD SVG 1.1//EN" "http://www.w3.org/Graphics/SVG/1.1/DTD/svg11.dtd">
<svg xmlns="http://www.w3.org/2000/svg" version="1.1" viewBox="0 0 591 591">
<path fill="#ffffff" d="
  M 396.76 22.99
  C 391.27 31.72 385.15 38.31 379.42 45.43
  Q 379.09 45.84 379.32 46.32
  Q 380.09 47.94 381.25 49.25
  C 387.79 56.67 400.64 69.87 398.25 77.99
  C 395.66 86.75 387.92 86.54 380.42 86.53
  Q 344.19 86.47 307.76 86.51
  A 0.30 0.30 0.0 0 0 307.46 86.81
  L 307.52 115.00
  Q 307.52 115.51 307.00 115.51
  L 286.02 115.48
  Q 284.50 115.48 284.50 113.96
  Q 284.49 66.20 284.52 17.49
  C 284.53 6.60 291.62 6.05 300.87 6.03
  Q 357.81 5.93 387.75 6.02
  C 396.88 6.05 401.51 15.45 396.76 22.99
  Z"
/>
<path fill="#ffffff" d="
  M 437.74 289.00
  C 394.32 253.73 351.19 218.07 307.96 182.56
  C 301.04 176.87 294.95 171.31 286.22 178.47
  Q 223.36 229.99 160.50 281.51
  Q 155.79 285.37 150.75 288.85
  A 0.44 0.43 51.3 0 1 150.18 288.78
  L 130.13 265.90
  A 0.82 0.82 0.0 0 1 130.22 264.73
  L 293.36 130.55
  Q 294.71 129.44 296.05 130.55
  Q 373.11 193.93 451.09 257.90
  Q 455.34 261.39 459.76 264.67
  Q 460.17 264.98 459.82 265.36
  L 438.55 288.94
  Q 438.17 289.35 437.74 289.00
  Z"
/>
<path fill="#ffffff" d="
  M 337.69 460.31
  Q 292.72 460.05 247.75 460.47
  Q 241.71 460.52 237.48 464.26
  C 235.11 466.36 234.97 471.18 235.08 473.81
  C 235.46 483.24 235.04 495.62 235.03 502.03
  Q 234.96 542.02 235.02 582.01
  C 235.02 583.00 235.38 584.28 235.33 585.43
  Q 235.30 585.98 234.75 585.98
  L 183.79 586.01
  A 0.79 0.79 0.0 0 1 183.00 585.22
  L 183.00 291.34
  A 2.39 2.36 70.7 0 1 183.88 289.49
  L 293.25 200.19
  Q 294.18 199.43 295.12 200.19
  Q 346.16 242.13 397.68 284.31
  C 401.00 287.03 404.51 289.68 404.51 294.17
  Q 404.49 439.88 404.51 584.45
  Q 404.51 585.98 402.97 585.99
  L 355.59 586.01
  A 1.10 1.10 0.0 0 1 354.49 584.91
  Q 354.52 528.86 354.47 472.25
  C 354.46 461.51 346.19 460.36 337.69 460.31
  Z
  M 354.69 387.11
  A 10.60 10.60 0.0 0 0 344.09 376.51
  L 244.49 376.51
  A 10.60 10.60 0.0 0 0 233.89 387.11
  L 233.89 387.55
  A 10.60 10.60 0.0 0 0 244.49 398.15
  L 344.09 398.15
  A 10.60 10.60 0.0 0 0 354.69 387.55
  L 354.69 387.11
  Z"
/>
<path fill="#ffffff" d="
  M 38.56 352.94
  Q 98.53 353.06 158.50 352.99
  C 160.91 352.99 161.75 354.23 161.75 356.57
  Q 161.75 468.79 161.90 581.00
  Q 161.90 583.29 162.04 584.52
  A 1.32 1.32 0.0 0 1 160.73 585.99
  L 15.48 586.00
  A 0.47 0.47 0.0 0 1 15.01 585.53
  Q 14.98 478.56 14.98 371.50
  C 14.97 357.58 26.69 352.92 38.56 352.94
  Z
  M 69.46 408.91
  A 10.15 10.15 0.0 0 0 59.31 398.76
  L 58.05 398.76
  A 10.15 10.15 0.0 0 0 47.90 408.91
  L 47.90 433.01
  A 10.15 10.15 0.0 0 0 58.05 443.16
  L 59.31 443.16
  A 10.15 10.15 0.0 0 0 69.46 433.01
  L 69.46 408.91
  Z
  M 111.19 441.06
  C 119.42 447.68 128.04 440.20 128.94 431.54
  Q 129.54 425.79 128.26 408.27
  C 127.29 394.91 109.02 395.68 106.66 409.09
  C 105.23 417.23 103.87 435.18 111.19 441.06
  Z
  M 69.5319 501.4870
  A 10.30 10.30 0.0 0 0 59.2860 491.1332
  L 58.1660 491.1274
  A 10.30 10.30 0.0 0 0 47.8122 501.3733
  L 47.6881 525.0930
  A 10.30 10.30 0.0 0 0 57.9340 535.4468
  L 59.0540 535.4526
  A 10.30 10.30 0.0 0 0 69.4078 525.2067
  L 69.5319 501.4870
  Z
  M 106.38 524.32
  C 108.53 540.27 128.80 538.99 128.98 522.96
  Q 129.07 514.27 129.00 505.54
  C 128.96 499.95 128.24 495.92 123.72 492.90
  C 116.80 488.29 108.48 492.28 106.78 500.34
  Q 104.57 510.87 106.38 524.32
  Z"
/>
<path fill="#ffffff" d="
  M 427.21 586.00
  A 0.97 0.96 74.7 0 1 426.38 585.52
  Q 426.00 584.83 426.51 584.44
  Q 426.48 468.99 426.51 353.55
  Q 426.51 353.02 427.04 353.02
  Q 491.81 352.96 556.48 353.02
  Q 563.87 353.02 569.96 357.05
  C 576.34 361.27 576.98 368.24 576.98 376.29
  Q 577.02 480.94 576.99 585.66
  A 0.34 0.34 0.0 0 1 576.65 586.00
  L 427.21 586.00
  Z
  M 463.21 432.50
  C 464.09 441.97 475.26 447.30 481.86 440.12
  C 487.94 433.50 487.17 415.01 484.92 406.93
  C 482.50 398.23 471.03 395.52 465.52 402.95
  C 461.22 408.76 462.55 425.49 463.21 432.50
  Z
  M 542.7713 409.2382
  A 10.36 10.36 0.0 0 0 532.4475 398.8421
  L 531.3275 398.8382
  A 10.36 10.36 0.0 0 0 520.9314 409.1620
  L 520.8487 432.8618
  A 10.36 10.36 0.0 0 0 531.1725 443.2579
  L 532.2925 443.2618
  A 10.36 10.36 0.0 0 0 542.6886 432.9380
  L 542.7713 409.2382
  Z
  M 542.6717 501.3078
  A 10.28 10.28 0.0 0 0 532.4276 490.9920
  L 531.3876 490.9883
  A 10.28 10.28 0.0 0 0 521.0718 501.2324
  L 520.9883 525.1522
  A 10.28 10.28 0.0 0 0 531.2324 535.4680
  L 532.2724 535.4717
  A 10.28 10.28 0.0 0 0 542.5882 525.2276
  L 542.6717 501.3078
  Z
  M 476.13 535.27
  C 489.41 534.40 487.17 506.02 484.54 498.34
  C 479.90 484.81 462.76 491.48 462.69 503.99
  C 462.65 511.25 461.60 524.01 464.35 529.61
  Q 467.41 535.84 476.13 535.27
  Z"
/>
<rect fill="#ffffff" x="256.51" y="482.01" width="75.74" height="103.98" rx="0.92"/>
</svg>
