<?xml version="1.0" encoding="UTF-8" standalone="no"?>
<!DOCTYPE svg PUBLIC "-//W3C//DTD SVG 1.1//EN" "http://www.w3.org/Graphics/SVG/1.1/DTD/svg11.dtd">
<svg xmlns="http://www.w3.org/2000/svg" version="1.1" viewBox="0 0 591 591">
<path fill="#ffffff" d="
  M 241.23 353.25
  L 118.01 353.25
  A 0.31 0.30 -72.7 0 1 117.76 352.77
  L 354.42 5.87
  A 0.16 0.02 -78.6 0 1 354.41 6.07
  L 299.46 237.20
  A 0.46 0.45 -83.4 0 0 299.90 237.76
  L 423.21 237.75
  Q 423.82 237.75 423.48 238.25
  L 187.42 584.20
  A 0.22 0.22 0.0 0 1 187.02 584.02
  L 241.81 353.99
  Q 241.98 353.25 241.23 353.25
  Z"
/>
<path fill="#ffffff" d="
  M 63.94 380.90
  A 0.55 0.55 0.0 0 0 64.39 381.76
  L 205.30 381.74
  A 0.46 0.41 5.9 0 1 205.76 382.25
  L 186.27 464.11
  Q 186.17 464.51 185.76 464.51
  Q 132.50 464.48 79.25 464.52
  Q 64.85 464.53 59.28 463.71
  C 32.74 459.79 11.19 439.03 6.54 412.38
  Q 5.52 406.54 5.52 392.43
  Q 5.45 238.74 5.51 190.50
  C 5.55 155.07 33.04 126.53 69.12 126.51
  Q 153.13 126.48 236.97 126.51
  A 0.29 0.29 0.0 0 1 237.21 126.96
  L 63.94 380.90
  Z"
/>
<path fill="#ffffff" d="
  M 536.30 224.40
  Q 544.80 224.01 553.67 224.55
  C 568.61 225.46 580.21 236.73 583.67 250.53
  Q 585.02 255.94 584.88 268.22
  C 584.62 290.70 585.08 310.69 584.87 329.98
  C 584.67 348.97 572.79 365.27 552.91 366.45
  Q 545.15 366.92 536.58 366.72
  Q 535.50 366.69 535.50 367.77
  Q 535.49 383.97 535.50 400.72
  C 535.53 429.70 518.29 452.19 491.47 461.75
  C 484.63 464.19 476.29 464.47 467.68 464.48
  Q 386.14 464.53 305.56 464.49
  Q 303.72 464.49 304.74 462.99
  L 476.66 211.02
  A 1.17 1.14 -72.3 0 0 475.75 209.19
  L 336.18 209.18
  A 0.60 0.60 0.0 0 1 335.60 208.45
  L 354.93 127.09
  Q 355.07 126.50 355.68 126.50
  Q 409.25 126.51 462.73 126.49
  Q 476.85 126.48 482.68 127.40
  C 507.68 131.33 528.76 150.43 534.15 175.85
  Q 535.46 182.03 535.49 195.37
  Q 535.53 209.46 535.49 223.61
  Q 535.48 224.43 536.30 224.40
  Z"
/>
</svg>
